<?xml version="1.0" encoding="UTF-8" ?>
<!DOCTYPE svg PUBLIC "-//W3C//DTD SVG 1.1//EN" "http://www.w3.org/Graphics/SVG/1.1/DTD/svg11.dtd">
<svg width="600pt" height="300pt" viewBox="0 0 600 300" version="1.1" xmlns="http://www.w3.org/2000/svg">
<g id="#ffffffff">
<path fill="#ffffff" opacity="1.00" d=" M 0.00 0.00 L 600.00 0.00 L 600.00 300.00 L 0.00 300.00 L 0.00 0.00 M 148.30 16.36 C 144.79 20.87 144.58 27.64 147.48 32.50 C 150.45 37.42 157.65 38.28 162.27 35.28 C 164.05 34.55 162.14 32.59 161.95 31.47 C 159.54 32.74 156.84 34.30 154.05 33.27 C 147.23 30.76 147.27 19.22 154.08 16.71 C 156.81 15.74 159.43 17.26 161.80 18.43 C 162.23 17.73 163.09 16.34 163.52 15.65 C 159.28 11.96 152.06 12.01 148.30 16.36 M 282.27 16.40 C 278.80 20.90 278.58 27.64 281.48 32.49 C 284.74 37.89 293.08 38.45 297.53 34.23 C 296.84 33.32 296.15 32.40 295.46 31.48 C 293.10 33.36 289.75 34.41 286.95 32.80 C 281.23 29.38 281.67 19.09 288.11 16.70 C 290.83 15.75 293.43 17.25 295.79 18.44 C 296.22 17.74 297.09 16.35 297.53 15.66 C 293.28 11.94 286.02 12.01 282.27 16.40 M 317.00 14.01 C 317.01 21.39 316.98 28.78 317.01 36.16 C 318.36 36.15 319.47 35.68 319.96 34.37 C 322.84 38.09 329.32 37.89 331.42 33.50 C 333.49 29.13 332.86 21.93 327.53 20.30 C 324.98 19.31 322.46 20.55 320.37 21.94 C 320.47 19.29 320.48 16.64 320.45 13.99 C 319.59 14.00 317.86 14.00 317.00 14.01 M 336.00 14.01 C 336.00 21.34 336.00 28.67 336.00 35.99 C 336.86 36.00 338.59 36.01 339.45 36.01 C 339.46 28.67 339.49 21.33 339.44 13.98 C 338.58 13.99 336.86 14.00 336.00 14.01 M 365.53 14.01 C 367.70 21.33 370.12 28.57 372.26 35.90 C 372.97 35.93 374.39 35.99 375.10 36.02 C 376.62 30.92 377.65 25.66 379.55 20.69 C 381.02 25.79 382.41 30.93 383.78 36.06 C 384.51 36.00 385.97 35.87 386.71 35.80 C 388.82 28.50 391.19 21.27 393.45 14.00 C 392.50 14.00 390.61 13.98 389.66 13.97 C 388.12 18.99 386.75 24.06 385.39 29.13 C 383.31 24.29 382.46 19.04 380.94 14.02 C 380.19 14.02 378.70 14.00 377.95 14.00 C 376.37 19.02 375.47 24.26 373.51 29.15 C 372.13 24.07 370.71 19.00 369.23 13.95 C 368.31 13.96 366.46 13.99 365.53 14.01 M 396.28 14.38 C 394.15 16.09 397.57 19.60 399.32 17.35 C 401.54 15.62 398.08 12.16 396.28 14.38 M 415.28 14.36 C 413.13 16.12 416.56 19.57 418.32 17.35 C 420.53 15.61 417.09 12.20 415.28 14.36 M 184.53 15.99 C 184.56 17.59 184.58 19.19 184.62 20.79 C 183.87 20.87 182.38 21.04 181.63 21.13 C 181.13 23.45 182.46 24.04 184.52 23.80 C 184.73 27.51 183.99 31.37 185.11 34.97 C 186.76 37.64 190.43 37.33 192.85 35.97 C 192.62 35.42 192.16 34.32 191.93 33.78 C 190.58 33.76 188.77 34.60 188.09 32.94 C 187.85 29.87 188.04 26.79 188.01 23.72 C 189.31 23.74 190.61 23.76 191.92 23.78 C 191.95 23.09 192.00 21.70 192.03 21.01 C 190.69 21.00 189.34 21.00 188.01 21.00 C 188.00 19.33 188.00 17.67 188.00 16.01 C 187.13 16.00 185.40 15.99 184.53 15.99 M 166.43 20.91 C 166.58 21.67 166.88 23.20 167.03 23.96 C 169.22 23.44 171.59 22.38 173.79 23.37 C 175.40 23.91 175.26 25.82 175.68 27.15 C 171.69 26.17 165.17 26.64 164.98 31.99 C 165.03 37.27 172.06 38.32 175.44 35.34 C 176.62 35.62 177.79 35.90 178.98 36.17 C 178.75 31.81 179.72 27.19 178.17 23.01 C 175.74 18.88 170.30 19.88 166.43 20.91 M 195.74 22.72 C 193.34 26.29 193.34 31.53 196.21 34.84 C 198.69 37.38 202.75 37.49 205.88 36.22 C 208.17 35.81 207.02 34.12 206.21 32.91 C 204.13 33.77 201.63 34.70 199.53 33.38 C 197.98 32.48 197.85 30.53 197.28 29.02 C 200.98 28.98 204.69 29.01 208.39 28.99 C 208.13 26.52 208.03 23.68 206.09 21.86 C 203.31 19.00 198.01 19.46 195.74 22.72 M 213.13 21.10 C 210.61 22.85 210.81 26.25 211.77 28.83 C 209.62 30.49 209.56 33.34 211.61 35.15 C 210.34 36.78 209.00 38.70 210.36 40.74 C 213.12 43.57 217.73 43.40 221.26 42.36 C 224.27 41.58 226.39 37.56 223.99 35.05 C 221.00 32.68 216.83 33.76 213.40 32.57 C 213.22 32.09 212.84 31.14 212.66 30.67 C 215.65 30.65 219.10 31.69 221.65 29.55 C 223.13 27.76 223.10 25.38 222.71 23.22 C 223.21 22.94 224.21 22.38 224.72 22.10 L 224.31 21.13 C 220.53 21.67 216.61 18.74 213.13 21.10 M 233.03 20.22 C 227.06 21.25 225.60 29.07 228.34 33.66 C 231.59 39.08 241.71 37.75 242.66 31.15 C 244.76 25.23 239.38 18.31 233.03 20.22 M 300.46 20.88 C 300.60 21.65 300.88 23.20 301.01 23.97 C 303.21 23.45 305.57 22.38 307.79 23.36 C 309.37 23.92 309.26 25.81 309.70 27.14 C 306.82 26.76 303.59 26.32 301.02 28.02 C 298.09 29.95 298.46 35.18 301.85 36.41 C 304.37 37.57 307.26 36.92 309.44 35.34 C 310.61 35.62 311.79 35.90 312.98 36.17 C 312.75 31.81 313.73 27.17 312.16 23.00 C 309.73 18.88 304.33 19.91 300.46 20.88 M 343.97 32.99 C 345.77 37.09 351.13 37.85 354.90 36.21 C 357.30 36.32 356.22 32.23 354.35 33.38 C 352.44 33.73 350.31 34.58 348.53 33.38 C 346.97 32.48 346.82 30.54 346.34 29.00 C 350.02 28.99 353.70 29.01 357.39 28.99 C 357.72 24.63 354.93 19.47 349.96 19.97 C 343.73 20.16 341.49 28.16 343.97 32.99 M 427.89 20.83 C 426.37 21.92 424.62 21.26 423.00 20.92 C 423.00 25.94 422.99 30.97 423.00 36.00 C 423.86 36.00 425.59 36.01 426.45 36.01 C 426.56 32.50 426.21 28.96 426.66 25.47 C 427.53 22.33 432.70 22.00 433.64 25.26 C 434.39 28.77 433.86 32.42 433.99 35.99 C 434.85 35.99 436.58 36.01 437.44 36.01 C 437.40 32.37 437.65 28.72 437.35 25.09 C 436.91 20.74 431.43 18.68 427.89 20.83 M 443.16 21.08 C 440.60 22.82 440.81 26.26 441.76 28.85 C 439.64 30.50 439.55 33.34 441.61 35.13 C 440.12 36.80 438.86 39.37 440.81 41.22 C 444.12 43.67 449.06 43.57 452.62 41.68 C 455.19 40.40 456.00 36.32 453.46 34.61 C 450.42 32.88 446.70 33.63 443.43 32.60 C 443.25 32.11 442.87 31.11 442.68 30.61 C 445.76 30.66 449.80 31.87 452.00 29.01 C 453.86 26.85 451.39 23.05 454.81 22.00 L 454.18 21.16 C 450.46 21.58 446.59 18.77 443.16 21.08 M 246.00 21.00 C 246.00 26.00 246.00 31.00 246.00 36.00 C 246.87 36.00 248.59 36.00 249.45 36.01 C 249.54 32.82 249.23 29.60 249.67 26.44 C 250.20 24.50 252.31 24.08 254.00 23.74 C 254.00 23.01 253.99 21.54 253.98 20.81 C 251.92 20.93 250.11 21.85 248.44 22.99 C 248.41 22.49 248.35 21.50 248.32 21.00 C 247.74 21.00 246.58 21.00 246.00 21.00 M 255.22 21.11 C 257.30 25.76 259.49 30.36 261.44 35.07 C 260.76 37.48 259.49 39.67 258.53 41.97 C 259.43 41.98 261.24 42.02 262.14 42.03 C 265.15 35.01 268.16 28.00 271.10 20.95 C 269.86 21.02 268.63 21.10 267.39 21.18 C 266.11 24.72 264.68 28.20 263.50 31.77 C 261.78 28.29 260.52 24.60 259.12 20.98 C 257.82 21.02 256.52 21.06 255.22 21.11 M 396.00 21.01 C 396.00 26.01 395.99 31.00 396.00 36.00 C 396.87 36.00 398.59 36.00 399.46 36.00 C 399.46 31.00 399.48 25.99 399.44 20.99 C 398.58 21.00 396.86 21.00 396.00 21.01 M 404.00 21.00 C 403.99 26.00 404.00 30.99 404.00 35.99 C 404.87 35.99 406.60 36.00 407.46 36.01 C 407.53 32.83 407.22 29.62 407.66 26.45 C 408.17 24.51 410.31 24.07 412.00 23.75 C 412.00 23.02 411.99 21.55 411.98 20.82 C 409.92 20.90 408.12 21.86 406.49 23.03 C 406.44 22.52 406.35 21.50 406.31 21.00 C 405.73 21.00 404.58 21.00 404.00 21.00 M 415.00 21.01 C 415.00 26.00 415.00 30.99 415.00 35.99 C 415.86 36.00 417.58 36.01 418.44 36.02 C 418.48 31.01 418.47 26.00 418.45 20.99 C 417.58 20.99 415.86 21.00 415.00 21.01 M 19.00 49.00 C 19.00 129.00 19.00 209.00 19.00 289.00 C 72.33 289.00 125.67 289.00 179.00 289.00 C 179.00 209.00 179.00 129.00 179.00 49.00 C 125.67 49.00 72.33 49.00 19.00 49.00 M 220.00 49.00 C 220.00 129.00 220.00 209.00 220.00 289.00 C 273.33 289.00 326.67 289.00 380.00 289.00 C 380.00 209.00 380.00 129.00 380.00 49.00 C 326.67 49.00 273.33 49.00 220.00 49.00 M 421.00 49.00 C 421.00 129.00 421.00 209.00 421.00 289.00 C 474.33 289.00 527.67 289.00 581.00 289.00 C 581.00 209.00 581.00 129.00 581.00 49.00 C 527.67 49.00 474.33 49.00 421.00 49.00 Z" />
<path fill="#ffffff" opacity="1.00" d=" M 197.69 26.78 C 197.87 24.91 198.94 22.62 201.15 22.71 C 203.54 22.30 204.26 24.97 205.00 26.67 C 202.56 26.72 200.12 26.76 197.69 26.78 Z" />
<path fill="#ffffff" opacity="1.00" d=" M 216.44 22.43 C 220.32 21.53 221.46 28.06 217.54 28.56 C 213.89 29.33 212.93 23.15 216.44 22.43 Z" />
<path fill="#ffffff" opacity="1.00" d=" M 346.28 26.31 C 347.25 24.90 348.01 22.58 350.13 22.71 C 352.55 22.28 353.24 24.96 354.00 26.67 C 351.42 26.75 348.81 26.96 346.28 26.31 Z" />
<path fill="#ffffff" opacity="1.00" d=" M 446.43 22.44 C 448.45 22.00 450.47 23.94 449.99 26.00 C 449.89 27.90 447.56 29.18 445.88 28.36 C 443.45 27.27 443.75 23.02 446.43 22.44 Z" />
<path fill="#ffffff" opacity="1.00" d=" M 233.13 23.15 C 236.35 21.35 239.63 24.84 239.57 28.01 C 239.97 31.15 237.57 35.09 234.00 34.23 C 229.41 32.78 229.25 25.48 233.13 23.15 Z" />
<path fill="#ffffff" opacity="1.00" d=" M 322.35 23.51 C 325.00 21.87 328.72 23.82 328.91 26.90 C 329.43 29.69 328.39 33.63 325.10 34.02 C 319.76 34.44 318.70 26.24 322.35 23.51 Z" />
<path fill="#ffffff" opacity="1.00" d=" M 168.91 30.07 C 170.69 28.42 173.27 29.18 175.44 29.14 C 175.68 31.16 175.33 33.80 172.93 34.28 C 170.40 35.67 167.04 32.59 168.91 30.07 Z" />
<path fill="#ffffff" opacity="1.00" d=" M 302.88 30.03 C 304.90 28.43 307.62 28.92 309.88 29.68 C 309.34 31.40 309.19 33.87 306.97 34.27 C 304.40 35.69 301.07 32.60 302.88 30.03 Z" />
<path fill="#ffffff" opacity="1.00" d=" M 213.20 39.63 C 212.32 34.76 219.87 34.85 221.68 37.91 C 220.74 41.62 215.85 40.76 213.20 39.63 Z" />
<path fill="#ffffff" opacity="1.00" d=" M 443.22 39.67 C 442.17 34.74 450.14 34.81 451.55 37.96 C 450.86 41.65 445.77 40.71 443.22 39.67 Z" />
<path fill="#ffffff" opacity="1.00" d=" M 512.08 73.86 C 513.90 73.27 515.86 73.36 517.24 74.86 C 516.79 76.87 516.27 78.87 515.28 80.69 C 514.30 78.37 513.28 76.07 512.08 73.86 Z" />
<path fill="#ffffff" opacity="1.00" d=" M 481.31 74.02 C 482.89 73.99 484.47 73.97 486.05 73.97 C 487.21 76.85 487.44 79.98 487.10 83.05 C 485.14 80.86 483.11 78.67 481.81 76.02 C 481.68 75.52 481.44 74.52 481.31 74.02 Z" />
<path fill="#ffffff" opacity="1.00" d=" M 110.47 77.64 C 110.44 83.94 110.50 90.36 112.36 96.44 C 113.47 106.11 112.78 116.02 110.70 125.53 C 108.29 118.16 109.52 110.24 109.34 102.63 C 108.80 94.29 108.67 85.85 110.47 77.64 Z" />
<path fill="#ffffff" opacity="1.00" d=" M 285.61 78.42 C 287.19 78.04 288.78 77.65 290.36 77.23 C 292.49 84.30 292.00 91.77 291.56 99.04 C 288.63 92.50 285.78 85.70 285.61 78.42 Z" />
<path fill="#ffffff" opacity="1.00" d=" M 310.16 98.43 C 308.94 91.47 309.56 84.37 310.80 77.47 C 312.67 77.59 314.48 78.09 316.28 78.64 C 315.24 85.50 313.18 92.18 310.16 98.43 Z" />
<path fill="#ffffff" opacity="1.00" d=" M 461.83 80.26 C 463.28 80.09 464.75 79.93 466.22 79.77 C 468.07 82.35 468.29 85.56 468.54 88.62 C 466.04 86.51 463.51 84.32 461.85 81.46 L 461.83 80.26 Z" />
<path fill="#ffffff" opacity="1.00" d=" M 525.30 81.27 C 526.34 79.13 529.09 79.87 530.98 79.94 C 531.54 81.77 532.13 83.58 532.61 85.43 C 533.50 91.33 531.69 97.32 528.26 102.12 C 525.75 96.93 528.61 91.05 526.23 85.83 C 525.80 84.34 525.12 82.84 525.30 81.27 Z" />
<path fill="#ffffff" opacity="1.00" d=" M 81.85 81.61 C 83.34 86.75 84.28 92.12 87.00 96.80 C 90.01 106.06 91.12 115.94 90.95 125.66 C 87.09 118.92 86.86 110.87 85.17 103.44 C 83.32 96.32 81.38 89.05 81.85 81.61 Z" />
<path fill="#ffffff" opacity="1.00" d=" M 507.83 90.49 C 507.89 87.45 508.61 84.47 509.89 81.71 C 511.10 83.92 511.93 86.36 511.95 88.91 C 512.00 92.91 513.19 96.75 514.47 100.51 C 516.32 107.16 516.00 114.52 513.23 120.87 C 510.83 114.54 511.68 107.64 509.90 101.22 C 509.49 99.85 509.02 98.50 508.61 97.13 C 508.37 94.92 508.09 92.71 507.83 90.49 Z" />
<path fill="#ffffff" opacity="1.00" d=" M 481.98 83.75 C 484.65 86.00 486.22 89.18 486.58 92.64 C 487.98 94.25 489.44 95.82 490.86 97.43 C 494.12 101.02 495.42 105.92 494.78 110.70 C 490.36 107.47 489.55 101.65 485.67 98.04 C 481.21 94.82 480.28 88.73 481.98 83.75 Z" />
<path fill="#ffffff" opacity="1.00" d=" M 256.82 87.01 C 258.31 86.11 259.81 85.23 261.34 84.41 C 264.68 90.74 266.39 97.87 267.01 104.97 C 262.80 99.50 258.95 93.63 256.82 87.01 Z" />
<path fill="#ffffff" opacity="1.00" d=" M 334.71 104.78 C 334.88 97.94 336.78 91.05 339.88 84.95 C 341.69 84.35 343.14 86.38 344.67 87.06 C 342.50 93.54 338.79 99.35 334.71 104.78 Z" />
<path fill="#ffffff" opacity="1.00" d=" M 463.50 89.93 C 468.32 92.53 468.25 98.89 472.96 101.54 C 477.24 104.76 479.48 110.06 479.59 115.33 C 477.67 113.67 475.44 112.24 474.13 110.01 C 472.70 107.67 471.29 105.20 468.90 103.71 C 464.11 101.02 462.36 95.09 463.50 89.93 Z" />
<path fill="#ffffff" opacity="1.00" d=" M 285.39 99.12 C 287.31 104.33 289.60 109.51 290.16 115.10 C 290.42 119.30 292.71 122.93 294.77 126.46 C 299.22 135.94 302.18 147.25 298.73 157.50 C 297.71 154.04 296.38 150.69 295.09 147.33 C 294.78 143.78 294.21 140.26 293.25 136.83 C 292.42 133.65 291.07 130.62 289.36 127.83 C 283.94 119.36 283.11 108.74 285.39 99.12 Z" />
<path fill="#ffffff" opacity="1.00" d=" M 311.10 115.94 C 311.79 110.38 313.71 105.08 315.83 99.92 C 318.94 109.26 317.10 119.98 311.87 128.23 C 306.25 136.70 307.69 147.48 302.99 156.31 L 302.30 157.08 C 299.81 146.95 302.12 136.22 306.47 126.94 C 308.41 123.47 310.76 120.02 311.10 115.94 Z" />
<path fill="#ffffff" opacity="1.00" d=" M 518.93 118.53 C 517.73 112.54 519.22 106.01 523.17 101.31 C 525.34 106.86 522.28 112.67 524.05 118.30 C 524.51 121.32 524.29 124.43 523.62 127.41 C 522.33 130.75 520.18 133.62 517.62 136.09 C 517.47 132.30 517.70 128.49 518.90 124.87 C 519.68 122.81 519.36 120.62 518.93 118.53 Z" />
<path fill="#ffffff" opacity="1.00" d=" M 261.66 107.52 C 264.87 112.09 268.07 116.77 269.86 122.11 C 270.97 125.91 274.07 128.58 276.60 131.46 C 283.25 139.81 288.16 150.24 287.62 161.15 C 285.29 157.22 282.15 153.72 280.71 149.33 C 278.79 143.92 276.10 138.69 272.10 134.52 C 265.03 127.56 260.82 117.50 261.66 107.52 Z" />
<path fill="#ffffff" opacity="1.00" d=" M 331.77 121.77 C 333.54 116.54 336.73 111.99 339.87 107.50 C 340.60 117.24 336.68 127.12 329.85 134.02 C 325.42 138.50 322.45 144.19 320.37 150.09 C 319.01 154.07 316.18 157.27 314.10 160.87 C 313.15 149.97 318.45 139.49 325.12 131.23 C 327.76 128.42 330.62 125.57 331.77 121.77 Z" />
<path fill="#ffffff" opacity="1.00" d=" M 491.50 125.64 C 490.06 121.52 487.63 116.98 489.98 112.68 C 493.91 116.61 494.32 122.78 498.97 126.16 C 502.29 130.58 504.08 136.45 502.26 141.85 C 497.74 137.66 498.39 130.31 493.04 126.87 C 492.66 126.56 491.89 125.95 491.50 125.64 Z" />
<path fill="#ffffff" opacity="1.00" d=" M 474.96 117.72 C 479.11 121.01 480.21 126.80 484.91 129.55 C 489.20 133.46 491.76 139.52 490.97 145.35 C 485.87 141.82 485.32 134.89 480.20 131.44 C 476.14 128.31 473.22 122.88 474.96 117.72 Z" />
<path fill="#ffffff" opacity="1.00" d=" M 506.79 141.39 C 504.90 134.56 504.90 126.71 508.61 120.47 C 510.74 125.75 510.14 131.53 510.10 137.08 C 510.06 142.16 512.45 146.82 513.23 151.77 C 512.98 153.72 512.59 155.65 512.11 157.55 C 511.07 156.79 510.04 156.04 509.01 155.28 C 509.29 150.54 508.14 145.89 506.79 141.39 Z" />
<path fill="#ffffff" opacity="1.00" d=" M 106.44 135.85 C 106.94 141.96 106.72 148.31 108.99 154.10 C 111.23 166.02 111.54 178.61 108.87 190.50 C 107.53 180.97 107.19 171.33 106.05 161.78 C 104.31 153.17 105.99 144.49 106.44 135.85 Z" />
<path fill="#ffffff" opacity="1.00" d=" M 89.22 138.88 C 90.77 144.15 91.76 149.76 94.87 154.40 C 95.94 156.07 96.39 158.03 96.97 159.91 C 99.87 169.78 101.98 180.02 101.79 190.36 C 98.46 180.96 96.23 171.20 93.16 161.72 C 90.35 154.43 89.77 146.59 89.22 138.88 Z" />
<path fill="#ffffff" opacity="1.00" d=" M 496.08 142.32 C 499.52 145.84 502.11 150.21 502.39 155.24 C 500.78 155.28 499.18 155.47 497.57 155.35 C 495.14 151.53 495.41 146.63 496.08 142.32 Z" />
<path fill="#ffffff" opacity="1.00" d=" M 484.19 145.96 C 487.43 148.95 490.81 152.10 491.84 156.60 C 490.11 157.43 488.42 158.33 486.68 159.13 C 485.21 154.88 484.12 150.49 484.19 145.96 Z" />
<path fill="#ffffff" opacity="1.00" d=" M 292.37 156.34 C 292.55 156.47 292.90 156.75 293.07 156.88 C 293.86 161.59 295.45 166.19 295.28 171.02 C 295.12 174.65 295.81 178.21 296.95 181.64 C 295.05 181.95 293.15 182.30 291.28 182.74 C 291.19 182.08 290.99 180.75 290.89 180.08 C 289.68 172.12 290.98 164.16 292.37 156.34 Z" />
<path fill="#ffffff" opacity="1.00" d=" M 305.08 180.99 C 306.77 173.15 305.42 164.76 308.82 157.23 C 309.69 159.93 310.33 162.71 310.64 165.53 C 311.27 170.84 311.10 176.22 310.38 181.52 C 308.62 181.27 306.85 181.10 305.08 180.99 Z" />
<path fill="#ffffff" opacity="1.00" d=" M 281.18 161.68 C 286.18 167.95 286.70 176.18 290.01 183.20 C 288.41 183.78 286.82 184.39 285.21 184.92 C 285.07 184.70 284.78 184.26 284.63 184.04 C 281.76 176.98 281.11 169.24 281.18 161.68 Z" />
<path fill="#ffffff" opacity="1.00" d=" M 312.15 181.82 C 314.83 175.23 315.62 167.79 320.16 162.00 C 320.43 168.79 319.90 175.83 317.40 182.20 C 317.27 182.41 317.01 182.83 316.88 183.04 C 315.29 182.65 313.73 182.20 312.15 181.82 Z" />
<path fill="#ffffff" opacity="1.00" d=" M 97.64 189.09 C 99.64 194.06 100.92 199.27 102.78 204.30 C 103.54 201.51 103.99 198.65 104.35 195.79 C 104.20 195.48 103.89 194.87 103.73 194.56 L 104.56 194.79 C 104.71 193.03 104.92 191.28 105.17 189.53 C 106.28 195.55 106.67 201.67 107.52 207.73 C 104.70 207.34 101.85 207.60 99.05 207.96 C 98.93 206.88 98.81 205.80 98.69 204.72 C 98.15 199.52 98.33 194.27 97.64 189.09 Z" />
</g>
<g id="#666666ff">
<path fill="#666666" opacity="1.00" d=" M 148.30 16.36 C 152.06 12.01 159.28 11.96 163.52 15.65 C 163.09 16.34 162.23 17.73 161.80 18.43 C 159.43 17.26 156.81 15.74 154.08 16.71 C 147.27 19.22 147.23 30.76 154.05 33.27 C 156.84 34.30 159.54 32.74 161.95 31.47 C 162.14 32.59 164.05 34.55 162.27 35.28 C 157.65 38.28 150.45 37.42 147.48 32.50 C 144.58 27.64 144.79 20.87 148.30 16.36 Z" />
<path fill="#666666" opacity="1.00" d=" M 282.27 16.40 C 286.02 12.01 293.28 11.94 297.53 15.66 C 297.09 16.35 296.22 17.74 295.79 18.44 C 293.43 17.25 290.83 15.75 288.11 16.70 C 281.67 19.09 281.23 29.38 286.95 32.80 C 289.75 34.41 293.10 33.36 295.46 31.48 C 296.15 32.40 296.84 33.32 297.53 34.23 C 293.08 38.45 284.74 37.89 281.48 32.49 C 278.58 27.64 278.80 20.90 282.27 16.40 Z" />
<path fill="#666666" opacity="1.00" d=" M 317.00 14.01 C 317.86 14.00 319.59 14.00 320.45 13.99 C 320.48 16.64 320.47 19.29 320.37 21.94 C 322.46 20.55 324.98 19.31 327.53 20.30 C 332.86 21.93 333.49 29.13 331.42 33.50 C 329.32 37.89 322.84 38.09 319.96 34.37 C 319.47 35.68 318.36 36.15 317.01 36.16 C 316.98 28.78 317.01 21.39 317.00 14.01 M 322.35 23.51 C 318.70 26.24 319.76 34.44 325.10 34.02 C 328.39 33.63 329.43 29.69 328.91 26.90 C 328.72 23.82 325.00 21.87 322.35 23.51 Z" />
<path fill="#666666" opacity="1.00" d=" M 336.00 14.01 C 336.86 14.00 338.58 13.99 339.44 13.98 C 339.49 21.33 339.46 28.67 339.45 36.01 C 338.59 36.01 336.86 36.00 336.00 35.99 C 336.00 28.67 336.00 21.34 336.00 14.01 Z" />
<path fill="#666666" opacity="1.00" d=" M 365.53 14.01 C 366.46 13.99 368.31 13.96 369.23 13.95 C 370.71 19.00 372.13 24.07 373.51 29.15 C 375.47 24.26 376.37 19.02 377.95 14.00 C 378.70 14.00 380.19 14.02 380.94 14.02 C 382.46 19.04 383.31 24.29 385.39 29.13 C 386.75 24.06 388.12 18.99 389.66 13.97 C 390.61 13.98 392.50 14.00 393.45 14.00 C 391.19 21.27 388.82 28.50 386.71 35.80 C 385.97 35.87 384.51 36.00 383.78 36.06 C 382.41 30.93 381.02 25.79 379.55 20.69 C 377.65 25.66 376.62 30.92 375.10 36.02 C 374.39 35.99 372.97 35.93 372.26 35.90 C 370.12 28.57 367.70 21.33 365.53 14.01 Z" />
<path fill="#666666" opacity="1.00" d=" M 396.28 14.38 C 398.08 12.16 401.54 15.62 399.32 17.35 C 397.57 19.60 394.15 16.09 396.28 14.38 Z" />
<path fill="#666666" opacity="1.00" d=" M 415.28 14.36 C 417.09 12.20 420.53 15.61 418.32 17.35 C 416.56 19.57 413.13 16.12 415.28 14.36 Z" />
<path fill="#666666" opacity="1.00" d=" M 184.53 15.99 C 185.40 15.99 187.13 16.00 188.00 16.01 C 188.00 17.67 188.00 19.33 188.01 21.00 C 189.34 21.00 190.69 21.00 192.03 21.01 C 192.00 21.70 191.95 23.09 191.92 23.78 C 190.61 23.76 189.31 23.74 188.01 23.72 C 188.04 26.79 187.85 29.87 188.09 32.94 C 188.77 34.60 190.58 33.76 191.93 33.78 C 192.16 34.32 192.62 35.42 192.85 35.97 C 190.43 37.33 186.76 37.64 185.11 34.97 C 183.99 31.37 184.73 27.51 184.52 23.80 C 182.46 24.04 181.13 23.45 181.63 21.13 C 182.38 21.04 183.87 20.87 184.62 20.79 C 184.58 19.19 184.56 17.59 184.53 15.99 Z" />
<path fill="#666666" opacity="1.00" d=" M 166.43 20.91 C 170.30 19.88 175.74 18.88 178.17 23.01 C 179.72 27.19 178.75 31.81 178.98 36.17 C 177.79 35.90 176.62 35.62 175.44 35.34 C 172.06 38.32 165.03 37.27 164.98 31.99 C 165.17 26.64 171.69 26.17 175.68 27.15 C 175.26 25.82 175.40 23.91 173.79 23.37 C 171.59 22.38 169.22 23.44 167.03 23.96 C 166.88 23.20 166.58 21.67 166.43 20.91 M 168.91 30.07 C 167.04 32.59 170.40 35.67 172.93 34.28 C 175.33 33.80 175.68 31.16 175.44 29.14 C 173.27 29.18 170.69 28.42 168.91 30.07 Z" />
<path fill="#666666" opacity="1.00" d=" M 195.74 22.72 C 198.01 19.46 203.31 19.00 206.09 21.86 C 208.03 23.68 208.13 26.52 208.39 28.99 C 204.69 29.01 200.98 28.98 197.28 29.02 C 197.85 30.53 197.98 32.48 199.53 33.38 C 201.63 34.70 204.13 33.77 206.21 32.91 C 207.02 34.12 208.17 35.81 205.88 36.22 C 202.75 37.49 198.69 37.38 196.21 34.84 C 193.34 31.53 193.34 26.29 195.74 22.72 M 197.69 26.78 C 200.12 26.76 202.56 26.72 205.00 26.67 C 204.26 24.97 203.54 22.30 201.15 22.71 C 198.94 22.62 197.87 24.91 197.69 26.78 Z" />
<path fill="#666666" opacity="1.00" d=" M 213.13 21.10 C 216.61 18.74 220.53 21.67 224.31 21.13 L 224.72 22.10 C 224.21 22.38 223.21 22.94 222.71 23.22 C 223.10 25.38 223.13 27.76 221.65 29.55 C 219.10 31.69 215.65 30.65 212.66 30.67 C 212.84 31.14 213.22 32.09 213.40 32.57 C 216.83 33.76 221.00 32.68 223.99 35.05 C 226.39 37.56 224.27 41.58 221.26 42.36 C 217.73 43.40 213.12 43.57 210.36 40.74 C 209.00 38.70 210.34 36.78 211.61 35.15 C 209.56 33.34 209.62 30.49 211.77 28.83 C 210.81 26.25 210.61 22.85 213.13 21.10 M 216.44 22.43 C 212.93 23.15 213.89 29.33 217.54 28.56 C 221.46 28.06 220.32 21.53 216.44 22.43 M 213.20 39.63 C 215.85 40.76 220.74 41.62 221.68 37.91 C 219.87 34.85 212.32 34.76 213.20 39.63 Z" />
<path fill="#666666" opacity="1.00" d=" M 233.03 20.22 C 239.38 18.31 244.76 25.23 242.66 31.15 C 241.71 37.75 231.59 39.08 228.34 33.66 C 225.60 29.07 227.06 21.25 233.03 20.22 M 233.13 23.15 C 229.25 25.48 229.41 32.78 234.00 34.23 C 237.57 35.09 239.97 31.15 239.57 28.01 C 239.63 24.84 236.35 21.35 233.13 23.15 Z" />
<path fill="#666666" opacity="1.00" d=" M 300.46 20.88 C 304.33 19.91 309.73 18.88 312.16 23.00 C 313.73 27.17 312.75 31.81 312.98 36.17 C 311.79 35.90 310.61 35.62 309.44 35.34 C 307.26 36.92 304.37 37.57 301.85 36.41 C 298.46 35.18 298.09 29.95 301.02 28.02 C 303.59 26.32 306.82 26.76 309.70 27.14 C 309.26 25.81 309.37 23.92 307.79 23.36 C 305.57 22.38 303.21 23.45 301.01 23.97 C 300.88 23.20 300.60 21.65 300.46 20.88 M 302.88 30.03 C 301.07 32.60 304.40 35.69 306.97 34.27 C 309.19 33.87 309.34 31.40 309.88 29.68 C 307.62 28.92 304.90 28.43 302.88 30.03 Z" />
<path fill="#666666" opacity="1.00" d=" M 343.97 32.99 C 341.49 28.16 343.73 20.16 349.96 19.97 C 354.93 19.47 357.72 24.63 357.39 28.99 C 353.70 29.01 350.02 28.99 346.34 29.00 C 346.82 30.54 346.97 32.48 348.53 33.38 C 350.31 34.58 352.44 33.73 354.35 33.38 C 356.22 32.23 357.30 36.32 354.90 36.21 C 351.13 37.85 345.77 37.09 343.97 32.99 M 346.28 26.31 C 348.81 26.96 351.42 26.75 354.00 26.67 C 353.24 24.96 352.55 22.28 350.13 22.71 C 348.01 22.58 347.25 24.90 346.28 26.31 Z" />
<path fill="#666666" opacity="1.00" d=" M 427.89 20.83 C 431.43 18.68 436.91 20.74 437.35 25.09 C 437.65 28.72 437.40 32.37 437.44 36.01 C 436.58 36.01 434.85 35.99 433.99 35.99 C 433.86 32.42 434.39 28.77 433.64 25.26 C 432.70 22.00 427.53 22.33 426.66 25.47 C 426.21 28.96 426.56 32.50 426.45 36.01 C 425.59 36.01 423.86 36.00 423.00 36.00 C 422.99 30.97 423.00 25.94 423.00 20.92 C 424.62 21.26 426.37 21.92 427.89 20.83 Z" />
<path fill="#666666" opacity="1.00" d=" M 443.16 21.08 C 446.59 18.77 450.46 21.58 454.18 21.16 L 454.81 22.00 C 451.39 23.05 453.86 26.85 452.00 29.01 C 449.80 31.87 445.76 30.66 442.68 30.61 C 442.87 31.11 443.25 32.11 443.43 32.60 C 446.70 33.63 450.42 32.88 453.46 34.61 C 456.00 36.32 455.19 40.40 452.62 41.68 C 449.06 43.57 444.12 43.67 440.81 41.22 C 438.86 39.37 440.12 36.80 441.61 35.13 C 439.55 33.34 439.64 30.50 441.76 28.85 C 440.81 26.26 440.60 22.82 443.16 21.08 M 446.43 22.44 C 443.75 23.02 443.45 27.27 445.88 28.36 C 447.56 29.18 449.89 27.90 449.99 26.00 C 450.47 23.94 448.45 22.00 446.43 22.44 M 443.22 39.67 C 445.77 40.71 450.86 41.65 451.55 37.96 C 450.14 34.81 442.17 34.74 443.22 39.67 Z" />
<path fill="#666666" opacity="1.00" d=" M 246.00 21.00 C 246.58 21.00 247.74 21.00 248.32 21.00 C 248.35 21.50 248.41 22.49 248.44 22.99 C 250.11 21.85 251.92 20.93 253.98 20.81 C 253.99 21.54 254.00 23.01 254.00 23.74 C 252.31 24.08 250.20 24.50 249.67 26.44 C 249.23 29.60 249.54 32.82 249.45 36.01 C 248.59 36.00 246.87 36.00 246.00 36.00 C 246.00 31.00 246.00 26.00 246.00 21.00 Z" />
<path fill="#666666" opacity="1.00" d=" M 255.22 21.11 C 256.52 21.06 257.82 21.02 259.12 20.98 C 260.52 24.60 261.78 28.29 263.50 31.77 C 264.68 28.20 266.11 24.72 267.39 21.18 C 268.63 21.10 269.86 21.02 271.10 20.95 C 268.16 28.00 265.15 35.01 262.14 42.03 C 261.24 42.02 259.43 41.98 258.53 41.97 C 259.49 39.67 260.76 37.48 261.44 35.07 C 259.49 30.36 257.30 25.76 255.22 21.11 Z" />
<path fill="#666666" opacity="1.00" d=" M 396.00 21.01 C 396.86 21.00 398.58 21.00 399.44 20.99 C 399.48 25.99 399.46 31.00 399.46 36.00 C 398.59 36.00 396.87 36.00 396.00 36.00 C 395.99 31.00 396.00 26.01 396.00 21.01 Z" />
<path fill="#666666" opacity="1.00" d=" M 404.00 21.00 C 404.58 21.00 405.73 21.00 406.31 21.00 C 406.35 21.50 406.44 22.52 406.49 23.03 C 408.12 21.86 409.92 20.90 411.98 20.82 C 411.99 21.55 412.00 23.02 412.00 23.75 C 410.31 24.07 408.17 24.51 407.66 26.45 C 407.22 29.62 407.53 32.83 407.46 36.01 C 406.60 36.00 404.87 35.99 404.00 35.99 C 404.00 30.99 403.99 26.00 404.00 21.00 Z" />
<path fill="#666666" opacity="1.00" d=" M 415.00 21.01 C 415.86 21.00 417.58 20.99 418.45 20.99 C 418.47 26.00 418.48 31.01 418.44 36.02 C 417.58 36.01 415.86 36.00 415.00 35.99 C 415.00 30.99 415.00 26.00 415.00 21.01 Z" />
<path fill="#666666" opacity="1.00" d=" M 296.95 181.64 C 299.03 181.36 301.13 181.17 303.23 181.06 C 303.69 181.04 304.62 181.01 305.08 180.99 C 306.85 181.10 308.62 181.27 310.38 181.52 C 310.82 181.59 311.71 181.74 312.15 181.82 C 313.73 182.20 315.29 182.65 316.88 183.04 C 317.01 182.83 317.27 182.41 317.40 182.20 C 318.64 184.22 321.03 184.89 322.99 185.98 C 323.00 203.32 323.01 220.65 322.99 237.99 C 309.66 237.98 296.33 238.03 283.00 237.98 C 283.02 221.29 282.98 204.61 283.00 187.93 C 282.88 186.43 284.02 185.29 284.63 184.04 C 284.78 184.26 285.07 184.70 285.21 184.92 C 286.82 184.39 288.41 183.78 290.01 183.20 C 290.33 183.09 290.96 182.86 291.28 182.74 C 293.15 182.30 295.05 181.95 296.95 181.64 Z" />
<path fill="#666666" opacity="1.00" d=" M 487.75 196.24 C 495.55 193.72 504.28 193.10 511.97 196.37 C 513.01 196.82 514.00 197.40 515.02 197.94 C 514.96 211.29 515.05 224.65 514.97 238.00 C 504.65 237.99 494.33 238.01 484.01 237.99 C 483.98 225.65 484.01 213.32 483.99 200.99 C 483.88 199.41 484.40 197.92 485.00 196.50 C 485.91 196.42 486.83 196.36 487.75 196.24 Z" />
<path fill="#666666" opacity="1.00" d=" M 98.69 204.72 C 98.81 205.80 98.93 206.88 99.05 207.96 C 101.85 207.60 104.70 207.34 107.52 207.73 C 108.38 207.91 110.12 208.27 110.98 208.45 C 111.48 208.57 112.48 208.81 112.98 208.93 C 113.02 218.61 112.99 228.29 113.01 237.97 C 107.68 238.03 102.34 237.99 97.01 237.99 C 96.98 229.33 97.02 220.68 96.98 212.03 C 96.93 209.47 98.40 207.23 98.69 204.72 Z" />
</g>
<g id="#1a1a1aff">
<path fill="#1a1a1a" opacity="1.00" d=" M 19.00 49.00 C 72.33 49.00 125.67 49.00 179.00 49.00 C 179.00 129.00 179.00 209.00 179.00 289.00 C 125.67 289.00 72.33 289.00 19.00 289.00 C 19.00 209.00 19.00 129.00 19.00 49.00 M 110.47 77.64 C 108.67 85.85 108.80 94.29 109.34 102.63 C 109.07 102.99 108.54 103.71 108.28 104.07 C 105.56 114.40 105.95 125.27 106.44 135.85 C 105.99 144.49 104.31 153.17 106.05 161.78 C 104.62 166.38 104.69 171.26 104.58 176.02 C 104.67 180.53 104.24 185.09 105.17 189.53 C 104.92 191.28 104.71 193.03 104.56 194.79 L 103.73 194.56 C 103.04 193.17 102.35 191.80 101.79 190.36 C 101.98 180.02 99.87 169.78 96.97 159.91 C 96.39 158.03 95.94 156.07 94.87 154.40 C 95.36 146.83 93.92 139.31 92.70 131.88 C 92.26 129.78 92.14 127.51 90.95 125.66 C 91.12 115.94 90.01 106.06 87.00 96.80 C 88.11 94.32 87.70 91.61 87.61 89.00 C 87.38 84.81 87.60 80.51 86.41 76.44 C 85.48 75.22 83.89 74.91 82.50 75.45 C 80.84 77.09 81.45 79.60 81.85 81.61 C 81.38 89.05 83.32 96.32 85.17 103.44 C 84.41 104.85 84.22 106.44 84.27 108.01 C 84.46 118.48 86.67 128.77 89.22 138.88 C 89.77 146.59 90.35 154.43 93.16 161.72 C 93.37 170.96 94.43 180.38 97.64 189.09 C 98.33 194.27 98.15 199.52 98.69 204.72 C 98.40 207.23 96.93 209.47 96.98 212.03 C 97.02 220.68 96.98 229.33 97.01 237.99 C 102.34 237.99 107.68 238.03 113.01 237.97 C 112.99 228.29 113.02 218.61 112.98 208.93 C 112.48 208.81 111.48 208.57 110.98 208.45 C 112.18 202.32 110.30 196.39 108.87 190.50 C 111.54 178.61 111.23 166.02 108.99 154.10 C 110.92 148.24 110.75 142.01 111.14 135.93 C 111.15 132.47 111.85 128.88 110.70 125.53 C 112.78 116.02 113.47 106.11 112.36 96.44 C 114.88 90.09 115.77 83.00 115.67 76.20 C 114.42 73.16 110.00 74.41 110.47 77.64 M 80.98 258.97 C 76.72 261.70 77.43 268.88 82.16 270.70 C 84.39 271.45 88.82 271.39 88.85 268.21 C 86.93 268.61 84.97 269.66 82.99 269.01 C 79.97 267.93 78.91 263.50 81.27 261.23 C 83.08 258.70 86.51 260.31 88.98 260.51 C 88.06 257.25 83.31 257.33 80.98 258.97 M 111.39 258.16 C 111.31 258.52 111.15 259.25 111.06 259.61 C 112.87 259.70 114.68 259.79 116.50 259.88 C 115.30 261.42 114.19 263.03 113.36 264.80 C 115.22 265.00 118.83 265.14 117.95 268.01 C 116.28 270.19 113.20 268.65 111.01 268.50 C 112.34 272.29 118.83 271.88 119.82 267.97 C 120.47 265.57 118.35 263.91 116.29 263.37 C 117.68 261.75 119.14 260.11 119.79 258.02 C 116.99 257.99 114.17 257.82 111.39 258.16 M 101.01 258.93 C 100.99 259.63 100.96 261.03 100.94 261.73 C 100.44 261.96 99.44 262.43 98.93 262.67 C 99.44 262.95 100.46 263.50 100.97 263.78 C 101.01 265.76 100.80 267.78 101.23 269.74 C 102.03 271.34 104.03 270.84 105.46 271.16 L 105.63 269.51 C 101.83 270.47 102.95 266.11 102.82 263.90 C 104.00 263.63 104.96 263.03 105.68 262.11 C 104.98 262.06 103.56 261.97 102.85 261.92 C 102.85 261.21 102.84 259.79 102.83 259.08 C 102.37 259.04 101.46 258.97 101.01 258.93 M 90.64 264.00 C 92.51 263.96 95.62 262.95 96.16 265.59 C 93.72 265.51 89.45 265.48 89.96 269.06 C 91.44 272.13 95.17 270.60 97.83 270.75 C 97.51 267.89 98.72 263.96 95.78 262.15 C 93.93 261.84 90.92 261.43 90.64 264.00 Z" />
<path fill="#1a1a1a" opacity="1.00" d=" M 220.00 49.00 C 273.33 49.00 326.67 49.00 380.00 49.00 C 380.00 129.00 380.00 209.00 380.00 289.00 C 326.67 289.00 273.33 289.00 220.00 289.00 C 220.00 209.00 220.00 129.00 220.00 49.00 M 279.72 78.11 C 280.42 85.37 282.75 92.36 285.39 99.12 C 283.11 108.74 283.94 119.36 289.36 127.83 C 287.19 137.26 288.52 147.22 292.10 156.13 L 292.37 156.34 C 290.98 164.16 289.68 172.12 290.89 180.08 C 289.20 173.87 291.79 166.58 287.62 161.15 C 288.16 150.24 283.25 139.81 276.60 131.46 C 276.23 121.93 272.79 112.54 267.01 104.97 C 266.39 97.87 264.68 90.74 261.34 84.41 C 259.81 85.23 258.31 86.11 256.82 87.01 L 256.52 86.16 C 254.77 86.69 252.41 86.62 251.33 88.29 C 253.52 95.26 257.75 101.41 261.66 107.52 C 260.82 117.50 265.03 127.56 272.10 134.52 C 271.20 144.29 275.57 153.91 281.18 161.68 C 281.11 169.24 281.76 176.98 284.63 184.04 C 284.02 185.29 282.88 186.43 283.00 187.93 C 282.98 204.61 283.02 221.29 283.00 237.98 C 296.33 238.03 309.66 237.98 322.99 237.99 C 323.01 220.65 323.00 203.32 322.99 185.98 C 321.03 184.89 318.64 184.22 317.40 182.20 C 319.90 175.83 320.43 168.79 320.16 162.00 C 326.10 153.93 329.92 144.13 329.85 134.02 C 336.68 127.12 340.60 117.24 339.87 107.50 C 343.70 101.12 348.65 94.91 349.98 87.44 C 348.33 86.99 346.69 86.55 345.04 86.10 C 344.95 86.34 344.77 86.82 344.67 87.06 C 343.14 86.38 341.69 84.35 339.88 84.95 C 336.78 91.05 334.88 97.94 334.71 104.78 C 334.46 105.03 333.96 105.54 333.71 105.79 C 328.72 113.31 325.02 122.07 325.12 131.23 C 318.45 139.49 313.15 149.97 314.10 160.87 C 313.12 162.54 312.02 164.15 310.64 165.53 C 310.33 162.71 309.69 159.93 308.82 157.23 C 312.67 148.25 314.74 137.77 311.87 128.23 C 317.10 119.98 318.94 109.26 315.83 99.92 C 318.52 92.92 320.92 85.73 321.87 78.26 C 320.09 78.00 318.30 77.74 316.53 77.48 L 316.28 78.64 C 314.48 78.09 312.67 77.59 310.80 77.47 C 309.56 84.37 308.94 91.47 310.16 98.43 C 305.95 107.29 305.38 117.32 306.47 126.94 C 302.12 136.22 299.81 146.95 302.30 157.08 L 302.99 156.31 C 302.17 159.00 301.21 161.65 300.14 164.26 C 299.96 161.95 299.36 159.71 298.73 157.50 C 302.18 147.25 299.22 135.94 294.77 126.46 C 296.41 117.28 295.40 107.57 291.56 99.04 C 292.00 91.77 292.49 84.30 290.36 77.23 C 288.78 77.65 287.19 78.04 285.61 78.42 C 283.81 77.27 281.68 77.98 279.72 78.11 M 315.59 254.54 C 312.45 260.75 308.87 266.82 306.47 273.36 C 308.67 273.01 309.20 270.66 310.18 269.05 C 312.59 263.91 315.52 259.01 317.56 253.71 C 317.07 253.92 316.08 254.33 315.59 254.54 M 265.80 261.00 C 263.32 264.91 266.02 271.15 270.93 271.05 C 272.78 271.12 276.16 270.72 275.26 268.09 C 273.32 268.72 271.20 269.94 269.20 268.79 C 265.75 266.99 266.14 260.94 270.00 259.92 C 271.81 259.26 273.55 260.40 275.24 260.91 L 275.41 259.69 C 273.19 256.58 267.49 257.72 265.80 261.00 M 298.34 258.10 C 298.28 260.45 298.21 262.80 298.11 265.16 C 300.16 265.03 302.24 265.06 304.19 265.78 C 304.05 266.50 303.77 267.96 303.63 268.68 C 301.75 269.88 299.69 268.59 297.81 268.10 C 297.77 272.84 306.77 271.67 306.05 266.98 C 306.23 263.74 302.43 263.22 300.00 263.09 C 300.01 262.28 300.02 260.66 300.02 259.85 C 301.93 259.77 303.85 259.67 305.77 259.57 C 305.63 259.17 305.36 258.37 305.22 257.97 C 302.92 257.97 300.63 257.98 298.34 258.10 M 319.32 258.15 C 319.28 260.51 319.21 262.87 319.13 265.24 C 321.15 265.08 323.25 264.92 325.13 265.86 C 325.04 266.63 324.85 268.17 324.75 268.94 C 322.69 269.32 320.70 268.83 318.78 268.11 C 318.86 272.86 327.75 271.65 327.05 266.96 C 327.21 263.73 323.43 263.23 321.01 263.09 C 321.01 262.28 321.00 260.67 321.00 259.87 C 322.97 259.78 324.93 259.68 326.90 259.54 C 325.82 256.53 321.75 258.45 319.32 258.15 M 287.27 259.00 C 287.44 260.60 286.89 261.69 285.61 262.28 C 287.65 264.27 286.65 267.25 287.51 269.67 C 288.29 271.60 290.60 270.87 292.20 270.93 C 292.21 268.99 290.37 269.26 289.03 269.04 C 289.01 267.27 289.00 265.51 289.00 263.74 C 290.15 263.44 291.67 263.66 292.24 262.30 C 291.43 262.19 289.81 261.97 289.00 261.85 C 289.00 261.14 289.00 259.71 289.00 258.99 C 288.57 259.00 287.70 259.00 287.27 259.00 M 276.68 263.83 C 278.52 264.09 282.31 262.56 282.18 265.63 C 279.84 265.53 276.20 265.65 276.09 268.78 C 277.53 272.32 281.33 270.01 284.04 270.99 C 283.63 268.21 285.11 264.47 282.51 262.50 C 280.64 261.54 277.56 261.53 276.68 263.83 M 328.95 267.02 C 328.94 271.06 335.32 272.71 337.28 269.17 C 334.97 269.17 331.29 270.26 330.65 267.06 C 332.90 267.00 335.16 267.00 337.43 267.00 C 337.34 264.88 336.45 262.24 334.02 261.99 C 331.08 261.25 328.64 264.27 328.95 267.02 Z" />
<path fill="#1a1a1a" opacity="1.00" d=" M 421.00 49.00 C 474.33 49.00 527.67 49.00 581.00 49.00 C 581.00 129.00 581.00 209.00 581.00 289.00 C 527.67 289.00 474.33 289.00 421.00 289.00 C 421.00 209.00 421.00 129.00 421.00 49.00 M 491.50 65.97 C 491.61 66.68 491.83 68.08 491.93 68.78 C 491.11 68.79 489.46 68.79 488.63 68.79 C 488.93 75.22 489.26 81.68 490.02 88.08 C 489.36 86.24 488.46 84.46 487.10 83.05 C 487.44 79.98 487.21 76.85 486.05 73.97 C 484.47 73.97 482.89 73.99 481.31 74.02 C 481.44 74.52 481.68 75.52 481.81 76.02 C 481.55 75.49 481.02 74.45 480.76 73.92 C 479.10 74.03 477.48 74.38 475.97 75.08 C 477.14 78.48 479.28 81.41 481.98 83.75 C 480.28 88.73 481.21 94.82 485.67 98.04 C 483.20 103.37 486.02 109.01 489.98 112.68 C 487.63 116.98 490.06 121.52 491.50 125.64 C 491.02 132.52 491.58 139.45 491.88 146.34 C 491.65 146.09 491.20 145.60 490.97 145.35 C 491.76 139.52 489.20 133.46 484.91 129.55 C 486.09 124.27 483.20 118.98 479.59 115.33 C 479.48 110.06 477.24 104.76 472.96 101.54 C 474.01 96.91 472.04 91.75 468.54 88.62 C 468.29 85.56 468.07 82.35 466.22 79.77 C 464.75 79.93 463.28 80.09 461.83 80.26 L 461.85 81.46 C 460.94 79.54 457.95 80.69 456.99 81.99 C 457.49 85.60 460.84 87.84 463.50 89.93 C 462.36 95.09 464.11 101.02 468.90 103.71 C 467.21 109.33 470.50 114.57 474.96 117.72 C 473.22 122.88 476.14 128.31 480.20 131.44 C 478.99 136.53 480.68 142.14 484.19 145.96 C 484.12 150.49 485.21 154.88 486.68 159.13 C 486.44 168.08 486.97 177.09 487.59 186.03 C 487.32 186.55 486.78 187.61 486.51 188.13 C 480.16 169.91 473.91 151.65 467.36 133.50 C 466.39 130.87 462.50 132.21 463.74 134.94 C 470.61 155.52 478.24 175.87 485.00 196.50 C 484.40 197.92 483.88 199.41 483.99 200.99 C 484.01 213.32 483.98 225.65 484.01 237.99 C 494.33 238.01 504.65 237.99 514.97 238.00 C 515.05 224.65 514.96 211.29 515.02 197.94 C 514.00 197.40 513.01 196.82 511.97 196.37 C 512.11 183.43 511.83 170.49 512.11 157.55 C 512.59 155.65 512.98 153.72 513.23 151.77 C 514.26 150.13 515.41 148.49 515.85 146.57 C 516.26 146.03 517.07 144.97 517.47 144.44 C 526.46 127.06 535.42 109.68 544.50 92.35 C 545.04 91.40 546.51 88.30 544.07 88.96 C 536.70 101.45 530.88 114.85 523.62 127.41 C 524.29 124.43 524.51 121.32 524.05 118.30 C 528.33 114.23 529.55 107.72 528.26 102.12 C 531.69 97.32 533.50 91.33 532.61 85.43 C 533.66 84.31 534.77 83.19 535.48 81.79 C 535.08 79.57 532.58 80.29 530.98 79.94 C 529.09 79.87 526.34 79.13 525.30 81.27 C 525.12 82.84 525.80 84.34 526.23 85.83 C 523.03 90.24 521.86 96.01 523.17 101.31 C 519.22 106.01 517.73 112.54 518.93 118.53 C 516.84 120.37 515.58 122.88 514.38 125.34 C 513.99 123.84 513.62 122.36 513.23 120.87 C 516.00 114.52 516.32 107.16 514.47 100.51 C 517.72 94.46 517.70 87.02 515.28 80.69 C 516.27 78.87 516.79 76.87 517.24 74.86 C 515.86 73.36 513.90 73.27 512.08 73.86 C 510.76 72.55 508.87 72.35 507.14 72.06 C 506.74 75.54 508.30 78.73 509.89 81.71 C 508.61 84.47 507.89 87.45 507.83 90.49 C 506.93 82.25 506.44 73.96 505.93 65.69 C 503.55 65.24 501.24 66.15 498.95 66.64 C 496.46 66.47 493.98 66.26 491.50 65.97 M 513.72 257.97 C 511.31 263.08 508.50 267.99 506.29 273.18 L 507.93 272.83 C 511.63 266.75 514.67 260.22 517.61 253.73 C 515.15 253.73 514.71 256.32 513.72 257.97 M 463.95 263.97 C 463.36 267.91 467.05 271.75 471.05 271.04 C 472.54 270.98 475.32 270.14 474.20 268.07 C 471.99 269.10 468.90 270.16 467.08 267.86 C 464.15 265.04 466.62 258.79 470.94 259.85 C 472.11 259.72 474.17 261.82 474.58 259.83 C 471.56 255.61 463.66 258.74 463.95 263.97 M 499.16 259.09 C 496.19 262.19 496.20 268.47 500.19 270.76 C 503.30 272.17 507.51 269.63 506.86 266.05 C 505.71 262.60 501.54 262.36 498.78 263.91 C 499.23 262.72 499.55 261.47 500.27 260.41 C 502.15 258.95 504.31 260.31 506.17 261.03 C 506.65 257.39 501.17 257.11 499.16 259.09 M 521.00 259.07 C 517.94 262.12 517.96 268.64 522.06 270.80 C 525.54 272.45 529.81 267.99 527.37 264.77 C 525.98 262.40 523.02 262.83 520.86 263.70 C 521.20 262.31 521.23 260.12 523.08 259.88 C 524.55 259.23 525.87 260.65 527.26 261.00 C 528.02 257.63 522.81 257.07 521.00 259.07 M 486.24 259.01 C 486.16 260.53 486.16 262.20 484.26 262.41 C 484.85 262.93 485.44 263.46 486.03 263.99 C 486.28 266.33 485.29 269.66 487.90 271.00 C 489.32 271.08 491.33 271.42 491.04 269.35 C 490.29 269.30 488.77 269.21 488.02 269.16 C 488.00 267.35 488.00 265.53 488.00 263.72 C 489.08 263.49 490.16 263.25 491.24 263.01 C 490.37 262.17 489.29 261.77 488.00 261.80 C 488.00 261.10 488.00 259.69 488.00 258.99 C 487.56 258.99 486.68 259.00 486.24 259.01 M 476.57 264.02 C 478.51 263.91 481.55 262.97 482.22 265.62 C 479.80 265.41 475.36 265.49 475.99 269.07 C 477.38 272.23 481.20 270.49 483.85 270.82 C 483.52 267.93 484.74 263.98 481.78 262.13 C 479.87 261.81 476.99 261.45 476.57 264.02 M 529.59 264.05 C 531.76 263.76 534.30 262.99 535.72 265.29 C 533.23 265.73 528.52 265.32 528.98 269.10 C 530.25 271.44 533.08 271.26 535.26 270.42 C 535.70 270.62 536.57 271.02 537.00 271.22 C 536.63 268.22 538.31 263.86 534.93 262.14 C 533.00 261.85 530.02 261.47 529.59 264.05 Z" />
<path fill="#1a1a1a" opacity="1.00" d=" M 507.92 102.94 C 507.58 100.96 507.90 98.99 508.61 97.13 C 509.02 98.50 509.49 99.85 509.90 101.22 C 509.40 101.98 508.74 102.56 507.92 102.94 Z" />
<path fill="#1a1a1a" opacity="1.00" d=" M 293.25 136.83 C 294.21 140.26 294.78 143.78 295.09 147.33 C 293.61 144.03 293.38 140.39 293.25 136.83 Z" />
<path fill="#1a1a1a" opacity="1.00" d=" M 331.00 265.68 C 331.08 263.08 334.80 262.91 335.50 265.31 C 334.00 265.47 332.50 265.58 331.00 265.68 Z" />
<path fill="#1a1a1a" opacity="1.00" d=" M 501.63 264.77 C 502.99 264.62 505.18 265.08 505.01 266.88 C 505.08 269.69 500.20 270.15 499.50 267.52 C 498.77 266.25 500.44 264.90 501.63 264.77 Z" />
<path fill="#1a1a1a" opacity="1.00" d=" M 523.65 264.72 C 526.97 264.18 526.86 269.73 523.63 269.34 C 520.39 269.44 520.24 264.43 523.65 264.72 Z" />
<path fill="#1a1a1a" opacity="1.00" d=" M 92.11 267.17 C 93.44 267.11 94.76 267.06 96.09 267.03 C 96.33 269.34 94.01 269.48 92.33 269.72 C 92.27 269.08 92.17 267.80 92.11 267.17 Z" />
<path fill="#1a1a1a" opacity="1.00" d=" M 277.71 269.02 C 277.90 266.48 280.60 267.23 282.33 266.96 C 282.80 269.87 279.57 269.82 277.71 269.02 Z" />
<path fill="#1a1a1a" opacity="1.00" d=" M 530.91 269.00 C 530.48 265.99 534.10 267.12 535.82 267.62 C 534.75 269.28 532.71 270.22 530.91 269.00 Z" />
</g>
<g id="#b3b3b3ff">
<path fill="#b3b3b3" opacity="1.00" d=" M 491.50 65.97 C 493.98 66.26 496.46 66.47 498.95 66.64 C 499.43 81.75 500.09 96.86 501.34 111.94 C 501.77 115.63 502.00 119.35 501.74 123.07 C 498.20 105.03 495.16 86.89 491.93 68.78 C 491.83 68.08 491.61 66.68 491.50 65.97 Z" />
</g>
<g id="#ccccccff">
<path fill="#cccccc" opacity="1.00" d=" M 498.95 66.64 C 501.24 66.15 503.55 65.24 505.93 65.69 C 506.44 73.96 506.93 82.25 507.83 90.49 C 508.09 92.71 508.37 94.92 508.61 97.13 C 507.90 98.99 507.58 100.96 507.92 102.94 C 506.94 108.75 506.17 114.89 508.61 120.47 C 504.90 126.71 504.90 134.56 506.79 141.39 C 506.11 142.97 505.45 144.55 504.89 146.18 C 504.03 144.72 503.19 143.26 502.26 141.85 C 504.08 136.45 502.29 130.58 498.97 126.16 C 499.60 120.66 498.33 115.02 494.78 110.70 C 495.42 105.92 494.12 101.02 490.86 97.43 C 490.85 94.29 490.63 91.15 490.02 88.08 C 489.26 81.68 488.93 75.22 488.63 68.79 C 489.46 68.79 491.11 68.79 491.93 68.78 C 495.16 86.89 498.20 105.03 501.74 123.07 C 502.00 119.35 501.77 115.63 501.34 111.94 C 500.09 96.86 499.43 81.75 498.95 66.64 Z" />
<path fill="#cccccc" opacity="1.00" d=" M 491.50 125.64 C 491.89 125.95 492.66 126.56 493.04 126.87 C 492.37 132.18 492.58 137.95 496.08 142.32 C 495.41 146.63 495.14 151.53 497.57 155.35 C 499.18 155.47 500.78 155.28 502.39 155.24 C 502.97 155.24 504.11 155.25 504.68 155.26 C 506.07 155.44 507.45 155.69 508.84 155.90 L 509.01 155.28 C 510.04 156.04 511.07 156.79 512.11 157.55 C 511.83 170.49 512.11 183.43 511.97 196.37 C 504.28 193.10 495.55 193.72 487.75 196.24 C 487.84 192.84 488.02 189.42 487.59 186.03 C 486.97 177.09 486.44 168.08 486.68 159.13 C 488.42 158.33 490.11 157.43 491.84 156.60 C 493.34 156.56 494.79 156.25 496.26 155.95 C 495.30 152.54 493.79 149.32 491.88 146.34 C 491.58 139.45 491.02 132.52 491.50 125.64 Z" />
</g>
<g id="#0071bcff">
<path fill="#0071bc" opacity="1.00" d=" M 507.14 72.06 C 508.87 72.35 510.76 72.55 512.08 73.86 C 513.28 76.07 514.30 78.37 515.28 80.69 C 517.70 87.02 517.72 94.46 514.47 100.51 C 513.19 96.75 512.00 92.91 511.95 88.91 C 511.93 86.36 511.10 83.92 509.89 81.71 C 508.30 78.73 506.74 75.54 507.14 72.06 Z" />
<path fill="#0071bc" opacity="1.00" d=" M 316.28 78.64 L 316.53 77.48 C 318.30 77.74 320.09 78.00 321.87 78.26 C 320.92 85.73 318.52 92.92 315.83 99.92 C 313.71 105.08 311.79 110.38 311.10 115.94 C 310.76 120.02 308.41 123.47 306.47 126.94 C 305.38 117.32 305.95 107.29 310.16 98.43 C 313.18 92.18 315.24 85.50 316.28 78.64 Z" />
<path fill="#0071bc" opacity="1.00" d=" M 507.92 102.94 C 508.74 102.56 509.40 101.98 509.90 101.22 C 511.68 107.64 510.83 114.54 513.23 120.87 C 513.62 122.36 513.99 123.84 514.38 125.34 C 512.57 129.10 511.11 133.03 510.10 137.08 C 510.14 131.53 510.74 125.75 508.61 120.47 C 506.17 114.89 506.94 108.75 507.92 102.94 Z" />
<path fill="#0071bc" opacity="1.00" d=" M 302.99 156.31 C 307.69 147.48 306.25 136.70 311.87 128.23 C 314.74 137.77 312.67 148.25 308.82 157.23 C 305.42 164.76 306.77 173.15 305.08 180.99 C 304.62 181.01 303.69 181.04 303.23 181.06 C 302.26 175.45 300.45 169.97 300.14 164.26 C 301.21 161.65 302.17 159.00 302.99 156.31 Z" />
<path fill="#0071bc" opacity="1.00" d=" M 504.89 146.18 C 505.45 144.55 506.11 142.97 506.79 141.39 C 508.14 145.89 509.29 150.54 509.01 155.28 L 508.84 155.90 C 507.45 155.69 506.07 155.44 504.68 155.26 C 504.50 152.23 504.41 149.18 504.89 146.18 Z" />
</g>
<g id="#006837ff">
<path fill="#006837" opacity="1.00" d=" M 110.47 77.64 C 110.00 74.41 114.42 73.16 115.67 76.20 C 115.77 83.00 114.88 90.09 112.36 96.44 C 110.50 90.36 110.44 83.94 110.47 77.64 Z" />
<path fill="#006837" opacity="1.00" d=" M 456.99 81.99 C 457.95 80.69 460.94 79.54 461.85 81.46 C 463.51 84.32 466.04 86.51 468.54 88.62 C 472.04 91.75 474.01 96.91 472.96 101.54 C 468.25 98.89 468.32 92.53 463.50 89.93 C 460.84 87.84 457.49 85.60 456.99 81.99 Z" />
<path fill="#006837" opacity="1.00" d=" M 251.33 88.29 C 252.41 86.62 254.77 86.69 256.52 86.16 L 256.82 87.01 C 258.95 93.63 262.80 99.50 267.01 104.97 C 272.79 112.54 276.23 121.93 276.60 131.46 C 274.07 128.58 270.97 125.91 269.86 122.11 C 268.07 116.77 264.87 112.09 261.66 107.52 C 257.75 101.41 253.52 95.26 251.33 88.29 Z" />
<path fill="#006837" opacity="1.00" d=" M 108.28 104.07 C 108.54 103.71 109.07 102.99 109.34 102.63 C 109.52 110.24 108.29 118.16 110.70 125.53 C 111.85 128.88 111.15 132.47 111.14 135.93 C 110.75 142.01 110.92 148.24 108.99 154.10 C 106.72 148.31 106.94 141.96 106.44 135.85 C 105.95 125.27 105.56 114.40 108.28 104.07 Z" />
<path fill="#006837" opacity="1.00" d=" M 468.90 103.71 C 471.29 105.20 472.70 107.67 474.13 110.01 C 475.44 112.24 477.67 113.67 479.59 115.33 C 483.20 118.98 486.09 124.27 484.91 129.55 C 480.21 126.80 479.11 121.01 474.96 117.72 C 470.50 114.57 467.21 109.33 468.90 103.71 Z" />
<path fill="#006837" opacity="1.00" d=" M 480.20 131.44 C 485.32 134.89 485.87 141.82 490.97 145.35 C 491.20 145.60 491.65 146.09 491.88 146.34 C 493.79 149.32 495.30 152.54 496.26 155.95 C 494.79 156.25 493.34 156.56 491.84 156.60 C 490.81 152.10 487.43 148.95 484.19 145.96 C 480.68 142.14 478.99 136.53 480.20 131.44 Z" />
<path fill="#006837" opacity="1.00" d=" M 272.10 134.52 C 276.10 138.69 278.79 143.92 280.71 149.33 C 282.15 153.72 285.29 157.22 287.62 161.15 C 291.79 166.58 289.20 173.87 290.89 180.08 C 290.99 180.75 291.19 182.08 291.28 182.74 C 290.96 182.86 290.33 183.09 290.01 183.20 C 286.70 176.18 286.18 167.95 281.18 161.68 C 275.57 153.91 271.20 144.29 272.10 134.52 Z" />
<path fill="#006837" opacity="1.00" d=" M 106.05 161.78 C 107.19 171.33 107.53 180.97 108.87 190.50 C 110.30 196.39 112.18 202.32 110.98 208.45 C 110.12 208.27 108.38 207.91 107.52 207.73 C 106.67 201.67 106.28 195.55 105.17 189.53 C 104.24 185.09 104.67 180.53 104.58 176.02 C 104.69 171.26 104.62 166.38 106.05 161.78 Z" />
</g>
<g id="#f15a24ff">
<path fill="#f15a24" opacity="1.00" d=" M 475.97 75.08 C 477.48 74.38 479.10 74.03 480.76 73.92 C 481.02 74.45 481.55 75.49 481.81 76.02 C 483.11 78.67 485.14 80.86 487.10 83.05 C 488.46 84.46 489.36 86.24 490.02 88.08 C 490.63 91.15 490.85 94.29 490.86 97.43 C 489.44 95.82 487.98 94.25 486.58 92.64 C 486.22 89.18 484.65 86.00 481.98 83.75 C 479.28 81.41 477.14 78.48 475.97 75.08 Z" />
<path fill="#f15a24" opacity="1.00" d=" M 82.50 75.45 C 83.89 74.91 85.48 75.22 86.41 76.44 C 87.60 80.51 87.38 84.81 87.61 89.00 C 87.70 91.61 88.11 94.32 87.00 96.80 C 84.28 92.12 83.34 86.75 81.85 81.61 C 81.45 79.60 80.84 77.09 82.50 75.45 Z" />
<path fill="#f15a24" opacity="1.00" d=" M 279.72 78.11 C 281.68 77.98 283.81 77.27 285.61 78.42 C 285.78 85.70 288.63 92.50 291.56 99.04 C 295.40 107.57 296.41 117.28 294.77 126.46 C 292.71 122.93 290.42 119.30 290.16 115.10 C 289.60 109.51 287.31 104.33 285.39 99.12 C 282.75 92.36 280.42 85.37 279.72 78.11 Z" />
<path fill="#f15a24" opacity="1.00" d=" M 485.67 98.04 C 489.55 101.65 490.36 107.47 494.78 110.70 C 498.33 115.02 499.60 120.66 498.97 126.16 C 494.32 122.78 493.91 116.61 489.98 112.68 C 486.02 109.01 483.20 103.37 485.67 98.04 Z" />
<path fill="#f15a24" opacity="1.00" d=" M 84.27 108.01 C 84.22 106.44 84.41 104.85 85.17 103.44 C 86.86 110.87 87.09 118.92 90.95 125.66 C 92.14 127.51 92.26 129.78 92.70 131.88 C 93.92 139.31 95.36 146.83 94.87 154.40 C 91.76 149.76 90.77 144.15 89.22 138.88 C 86.67 128.77 84.46 118.48 84.27 108.01 Z" />
<path fill="#f15a24" opacity="1.00" d=" M 493.04 126.87 C 498.39 130.31 497.74 137.66 502.26 141.85 C 503.19 143.26 504.03 144.72 504.89 146.18 C 504.41 149.18 504.50 152.23 504.68 155.26 C 504.11 155.25 502.97 155.24 502.39 155.24 C 502.11 150.21 499.52 145.84 496.08 142.32 C 492.58 137.95 492.37 132.18 493.04 126.87 Z" />
<path fill="#f15a24" opacity="1.00" d=" M 289.36 127.83 C 291.07 130.62 292.42 133.65 293.25 136.83 C 293.38 140.39 293.61 144.03 295.09 147.33 C 296.38 150.69 297.71 154.04 298.73 157.50 C 299.36 159.71 299.96 161.95 300.14 164.26 C 300.45 169.97 302.26 175.45 303.23 181.06 C 301.13 181.17 299.03 181.36 296.95 181.64 C 295.81 178.21 295.12 174.65 295.28 171.02 C 295.45 166.19 293.86 161.59 293.07 156.88 C 292.90 156.75 292.55 156.47 292.37 156.34 L 292.10 156.13 C 288.52 147.22 287.19 137.26 289.36 127.83 Z" />
<path fill="#f15a24" opacity="1.00" d=" M 93.16 161.72 C 96.23 171.20 98.46 180.96 101.79 190.36 C 102.35 191.80 103.04 193.17 103.73 194.56 C 103.89 194.87 104.20 195.48 104.35 195.79 C 103.99 198.65 103.54 201.51 102.78 204.30 C 100.92 199.27 99.64 194.06 97.64 189.09 C 94.43 180.38 93.37 170.96 93.16 161.72 Z" />
</g>
<g id="#896541ff">
<path fill="#896541" opacity="1.00" d=" M 530.98 79.94 C 532.58 80.29 535.08 79.57 535.48 81.79 C 534.77 83.19 533.66 84.31 532.61 85.43 C 532.13 83.58 531.54 81.77 530.98 79.94 Z" />
</g>
<g id="#8c6239ff">
<path fill="#8c6239" opacity="1.00" d=" M 345.04 86.10 C 346.69 86.55 348.33 86.99 349.98 87.44 C 348.65 94.91 343.70 101.12 339.87 107.50 C 336.73 111.99 333.54 116.54 331.77 121.77 C 330.62 125.57 327.76 128.42 325.12 131.23 C 325.02 122.07 328.72 113.31 333.71 105.79 C 333.96 105.54 334.46 105.03 334.71 104.78 C 338.79 99.35 342.50 93.54 344.67 87.06 C 344.77 86.82 344.95 86.34 345.04 86.10 Z" />
<path fill="#8c6239" opacity="1.00" d=" M 526.23 85.83 C 528.61 91.05 525.75 96.93 528.26 102.12 C 529.55 107.72 528.33 114.23 524.05 118.30 C 522.28 112.67 525.34 106.86 523.17 101.31 C 521.86 96.01 523.03 90.24 526.23 85.83 Z" />
<path fill="#8c6239" opacity="1.00" d=" M 514.38 125.34 C 515.58 122.88 516.84 120.37 518.93 118.53 C 519.36 120.62 519.68 122.81 518.90 124.87 C 517.70 128.49 517.47 132.30 517.62 136.09 C 517.74 139.67 516.57 143.10 515.85 146.57 C 515.41 148.49 514.26 150.13 513.23 151.77 C 512.45 146.82 510.06 142.16 510.10 137.08 C 511.11 133.03 512.57 129.10 514.38 125.34 Z" />
<path fill="#8c6239" opacity="1.00" d=" M 320.37 150.09 C 322.45 144.19 325.42 138.50 329.85 134.02 C 329.92 144.13 326.10 153.93 320.16 162.00 C 315.62 167.79 314.83 175.23 312.15 181.82 C 311.71 181.74 310.82 181.59 310.38 181.52 C 311.10 176.22 311.27 170.84 310.64 165.53 C 312.02 164.15 313.12 162.54 314.10 160.87 C 316.18 157.27 319.01 154.07 320.37 150.09 Z" />
</g>
<g id="#5f5f5fff">
<path fill="#5f5f5f" opacity="1.00" d=" M 544.07 88.96 C 546.51 88.30 545.04 91.40 544.50 92.35 C 535.42 109.68 526.46 127.06 517.47 144.44 C 517.07 144.97 516.26 146.03 515.85 146.57 C 516.57 143.10 517.74 139.67 517.62 136.09 C 520.18 133.62 522.33 130.75 523.62 127.41 C 530.88 114.85 536.70 101.45 544.07 88.96 Z" />
</g>
<g id="#808080ff">
<path fill="#808080" opacity="1.00" d=" M 463.74 134.94 C 462.50 132.21 466.39 130.87 467.36 133.50 C 473.91 151.65 480.16 169.91 486.51 188.13 C 486.78 187.61 487.32 186.55 487.59 186.03 C 488.02 189.42 487.84 192.84 487.75 196.24 C 486.83 196.36 485.91 196.42 485.00 196.50 C 478.24 175.87 470.61 155.52 463.74 134.94 Z" />
</g>
<g id="#e1733aff">
<path fill="#e1733a" opacity="1.00" d=" M 315.59 254.54 C 316.08 254.33 317.07 253.92 317.56 253.71 C 315.52 259.01 312.59 263.91 310.18 269.05 C 309.20 270.66 308.67 273.01 306.47 273.36 C 308.87 266.82 312.45 260.75 315.59 254.54 Z" />
</g>
<g id="#e8c247ff">
<path fill="#e8c247" opacity="1.00" d=" M 513.72 257.97 C 514.71 256.32 515.15 253.73 517.61 253.73 C 514.67 260.22 511.63 266.75 507.93 272.83 L 506.29 273.18 C 508.50 267.99 511.31 263.08 513.72 257.97 Z" />
</g>
<g id="#c51842ff">
<path fill="#c51842" opacity="1.00" d=" M 80.98 258.97 C 83.31 257.33 88.06 257.25 88.98 260.51 C 86.51 260.31 83.08 258.70 81.27 261.23 C 78.91 263.50 79.97 267.93 82.99 269.01 C 84.97 269.66 86.93 268.61 88.85 268.21 C 88.82 271.39 84.39 271.45 82.16 270.70 C 77.43 268.88 76.72 261.70 80.98 258.97 Z" />
</g>
<g id="#c71742ff">
<path fill="#c71742" opacity="1.00" d=" M 111.39 258.16 C 114.17 257.82 116.99 257.99 119.79 258.02 C 119.14 260.11 117.68 261.75 116.29 263.37 C 118.35 263.91 120.47 265.57 119.82 267.97 C 118.83 271.88 112.34 272.29 111.01 268.50 C 113.20 268.65 116.28 270.19 117.95 268.01 C 118.83 265.14 115.22 265.00 113.36 264.80 C 114.19 263.03 115.30 261.42 116.50 259.88 C 114.68 259.79 112.87 259.70 111.06 259.61 C 111.15 259.25 111.31 258.52 111.39 258.16 Z" />
</g>
<g id="#ce6a37ff">
<path fill="#ce6a37" opacity="1.00" d=" M 265.80 261.00 C 267.49 257.72 273.19 256.58 275.41 259.69 L 275.24 260.91 C 273.55 260.40 271.81 259.26 270.00 259.92 C 266.14 260.94 265.75 266.99 269.20 268.79 C 271.20 269.94 273.32 268.72 275.26 268.09 C 276.16 270.72 272.78 271.12 270.93 271.05 C 266.02 271.15 263.32 264.91 265.80 261.00 Z" />
</g>
<g id="#c56636ff">
<path fill="#c56636" opacity="1.00" d=" M 298.34 258.10 C 300.63 257.98 302.92 257.97 305.22 257.97 C 305.36 258.37 305.63 259.17 305.77 259.57 C 303.85 259.67 301.93 259.77 300.02 259.85 C 300.02 260.66 300.01 262.28 300.00 263.09 C 302.43 263.22 306.23 263.74 306.05 266.98 C 306.77 271.67 297.77 272.84 297.81 268.10 C 299.69 268.59 301.75 269.88 303.63 268.68 C 303.77 267.96 304.05 266.50 304.19 265.78 C 302.24 265.06 300.16 265.03 298.11 265.16 C 298.21 262.80 298.28 260.45 298.34 258.10 Z" />
<path fill="#c56636" opacity="1.00" d=" M 319.32 258.15 C 321.75 258.45 325.82 256.53 326.90 259.54 C 324.93 259.68 322.97 259.78 321.00 259.87 C 321.00 260.67 321.01 262.28 321.01 263.09 C 323.43 263.23 327.21 263.73 327.05 266.96 C 327.75 271.65 318.86 272.86 318.78 268.11 C 320.70 268.83 322.69 269.32 324.75 268.94 C 324.85 268.17 325.04 266.63 325.13 265.86 C 323.25 264.92 321.15 265.08 319.13 265.24 C 319.21 262.87 319.28 260.51 319.32 258.15 Z" />
</g>
<g id="#d8b543ff">
<path fill="#d8b543" opacity="1.00" d=" M 463.95 263.97 C 463.66 258.74 471.56 255.61 474.58 259.83 C 474.17 261.82 472.11 259.72 470.94 259.85 C 466.62 258.79 464.15 265.04 467.08 267.86 C 468.90 270.16 471.99 269.10 474.20 268.07 C 475.32 270.14 472.54 270.98 471.05 271.04 C 467.05 271.75 463.36 267.91 463.95 263.97 Z" />
</g>
<g id="#d6b343ff">
<path fill="#d6b343" opacity="1.00" d=" M 499.16 259.09 C 501.17 257.11 506.65 257.39 506.17 261.03 C 504.31 260.31 502.15 258.95 500.27 260.41 C 499.55 261.47 499.23 262.72 498.78 263.91 C 501.54 262.36 505.71 262.60 506.86 266.05 C 507.51 269.63 503.30 272.17 500.19 270.76 C 496.20 268.47 496.19 262.19 499.16 259.09 M 501.63 264.77 C 500.44 264.90 498.77 266.25 499.50 267.52 C 500.20 270.15 505.08 269.69 505.01 266.88 C 505.18 265.08 502.99 264.62 501.63 264.77 Z" />
</g>
<g id="#e2bd46ff">
<path fill="#e2bd46" opacity="1.00" d=" M 521.00 259.07 C 522.81 257.07 528.02 257.63 527.26 261.00 C 525.87 260.65 524.55 259.23 523.08 259.88 C 521.23 260.12 521.20 262.31 520.86 263.70 C 523.02 262.83 525.98 262.40 527.37 264.77 C 529.81 267.99 525.54 272.45 522.06 270.80 C 517.96 268.64 517.94 262.12 521.00 259.07 M 523.65 264.72 C 520.24 264.43 520.39 269.44 523.63 269.34 C 526.86 269.73 526.97 264.18 523.65 264.72 Z" />
</g>
<g id="#d51745ff">
<path fill="#d51745" opacity="1.00" d=" M 101.01 258.93 C 101.46 258.97 102.37 259.04 102.83 259.08 C 102.84 259.79 102.85 261.21 102.85 261.92 C 103.56 261.97 104.98 262.06 105.68 262.11 C 104.96 263.03 104.00 263.63 102.82 263.90 C 102.95 266.11 101.83 270.47 105.63 269.51 L 105.46 271.16 C 104.03 270.84 102.03 271.34 101.23 269.74 C 100.80 267.78 101.01 265.76 100.97 263.78 C 100.46 263.50 99.44 262.95 98.93 262.67 C 99.44 262.43 100.44 261.96 100.94 261.73 C 100.96 261.03 100.99 259.63 101.01 258.93 Z" />
</g>
<g id="#c86736ff">
<path fill="#c86736" opacity="1.00" d=" M 287.27 259.00 C 287.70 259.00 288.57 259.00 289.00 258.99 C 289.00 259.71 289.00 261.14 289.00 261.85 C 289.81 261.97 291.43 262.19 292.24 262.30 C 291.67 263.66 290.15 263.44 289.00 263.74 C 289.00 265.51 289.01 267.27 289.03 269.04 C 290.37 269.26 292.21 268.99 292.20 270.93 C 290.60 270.87 288.29 271.60 287.51 269.67 C 286.65 267.25 287.65 264.27 285.61 262.28 C 286.89 261.69 287.44 260.60 287.27 259.00 Z" />
</g>
<g id="#d4b243ff">
<path fill="#d4b243" opacity="1.00" d=" M 486.24 259.01 C 486.68 259.00 487.56 258.99 488.00 258.99 C 488.00 259.69 488.00 261.10 488.00 261.80 C 489.29 261.77 490.37 262.17 491.24 263.01 C 490.16 263.25 489.08 263.49 488.00 263.72 C 488.00 265.53 488.00 267.35 488.02 269.16 C 488.77 269.21 490.29 269.30 491.04 269.35 C 491.33 271.42 489.32 271.08 487.90 271.00 C 485.29 269.66 486.28 266.33 486.03 263.99 C 485.44 263.46 484.85 262.93 484.26 262.41 C 486.16 262.20 486.16 260.53 486.24 259.01 Z" />
</g>
<g id="#c21841ff">
<path fill="#c21841" opacity="1.00" d=" M 90.64 264.00 C 90.92 261.43 93.93 261.84 95.78 262.15 C 98.72 263.96 97.51 267.89 97.83 270.75 C 95.17 270.60 91.44 272.13 89.96 269.06 C 89.45 265.48 93.72 265.51 96.16 265.59 C 95.62 262.95 92.51 263.96 90.64 264.00 M 92.11 267.17 C 92.17 267.80 92.27 269.08 92.33 269.72 C 94.01 269.48 96.33 269.34 96.09 267.03 C 94.76 267.06 93.44 267.11 92.11 267.17 Z" />
</g>
<g id="#d66e38ff">
<path fill="#d66e38" opacity="1.00" d=" M 276.68 263.83 C 277.56 261.53 280.64 261.54 282.51 262.50 C 285.11 264.47 283.63 268.21 284.04 270.99 C 281.33 270.01 277.53 272.32 276.09 268.78 C 276.20 265.65 279.84 265.53 282.18 265.63 C 282.31 262.56 278.52 264.09 276.68 263.83 M 277.71 269.02 C 279.57 269.82 282.80 269.87 282.33 266.96 C 280.60 267.23 277.90 266.48 277.71 269.02 Z" />
</g>
<g id="#d26c38ff">
<path fill="#d26c38" opacity="1.00" d=" M 328.95 267.02 C 328.64 264.27 331.08 261.25 334.02 261.99 C 336.45 262.24 337.34 264.88 337.43 267.00 C 335.16 267.00 332.90 267.00 330.65 267.06 C 331.29 270.26 334.97 269.17 337.28 269.17 C 335.32 272.71 328.94 271.06 328.95 267.02 M 331.00 265.68 C 332.50 265.58 334.00 265.47 335.50 265.31 C 334.80 262.91 331.08 263.08 331.00 265.68 Z" />
</g>
<g id="#ccab41ff">
<path fill="#ccab41" opacity="1.00" d=" M 476.57 264.02 C 476.99 261.45 479.87 261.81 481.78 262.13 C 484.74 263.98 483.52 267.93 483.85 270.82 C 481.20 270.49 477.38 272.23 475.99 269.07 C 475.36 265.49 479.80 265.41 482.22 265.62 C 481.55 262.97 478.51 263.91 476.57 264.02 M 477.76 269.23 C 479.59 269.75 482.45 269.58 482.14 266.98 C 480.27 267.11 477.51 266.36 477.76 269.23 Z" />
</g>
<g id="#deba45ff">
<path fill="#deba45" opacity="1.00" d=" M 529.59 264.05 C 530.02 261.47 533.00 261.85 534.93 262.14 C 538.31 263.86 536.63 268.22 537.00 271.22 C 536.57 271.02 535.70 270.62 535.26 270.42 C 533.08 271.26 530.25 271.44 528.98 269.10 C 528.52 265.32 533.23 265.73 535.72 265.29 C 534.30 262.99 531.76 263.76 529.59 264.05 M 530.91 269.00 C 532.71 270.22 534.75 269.28 535.82 267.62 C 534.10 267.12 530.48 265.99 530.91 269.00 Z" />
</g>
<g id="#29271dff">
<path fill="#29271d" opacity="1.00" d=" M 477.76 269.23 C 477.51 266.36 480.27 267.11 482.14 266.98 C 482.45 269.58 479.59 269.75 477.76 269.23 Z" />
</g>
</svg>
