<?xml version="1.0" encoding="UTF-8" standalone="no"?>
<!-- Created with Inkscape (http://www.inkscape.org/) -->

<svg
   xmlns:dc="http://purl.org/dc/elements/1.1/"
   xmlns:cc="http://creativecommons.org/ns#"
   xmlns:rdf="http://www.w3.org/1999/02/22-rdf-syntax-ns#"
   xmlns:svg="http://www.w3.org/2000/svg"
   xmlns="http://www.w3.org/2000/svg"
   xmlns:sodipodi="http://sodipodi.sourceforge.net/DTD/sodipodi-0.dtd"
   xmlns:inkscape="http://www.inkscape.org/namespaces/inkscape"
   width="211.66667mm"
   height="105.83334mm"
   viewBox="0 0 211.66667 105.83334"
   version="1.1"
   id="svg8"
   inkscape:version="0.92.0 r15299"
   sodipodi:docname="category-cable-wiring.svg">
  <defs
     id="defs2" />
  <sodipodi:namedview
     id="base"
     pagecolor="#ffffff"
     bordercolor="#666666"
     borderopacity="1.0"
     inkscape:pageopacity="0.0"
     inkscape:pageshadow="2"
     inkscape:zoom="1.4"
     inkscape:cx="447.73922"
     inkscape:cy="116.29823"
     inkscape:document-units="mm"
     inkscape:current-layer="layer1"
     showgrid="false"
     fit-margin-top="0"
     fit-margin-left="0"
     fit-margin-right="0"
     fit-margin-bottom="0"
     inkscape:window-width="1920"
     inkscape:window-height="1017"
     inkscape:window-x="1272"
     inkscape:window-y="-8"
     inkscape:window-maximized="1" />
  <metadata
     id="metadata5">
    <rdf:RDF>
      <cc:Work
         rdf:about="">
        <dc:format>image/svg+xml</dc:format>
        <dc:type
           rdf:resource="http://purl.org/dc/dcmitype/StillImage" />
        <dc:title></dc:title>
      </cc:Work>
    </rdf:RDF>
  </metadata>
  <g
     inkscape:label="Layer 1"
     inkscape:groupmode="layer"
     id="layer1"
     transform="translate(15.875,-14.273809)">
    <g
       id="g456"
       transform="matrix(0.35277778,0,0,0.35277778,-15.875,14.273809)"
       inkscape:export-xdpi="300"
       inkscape:export-ydpi="300">
      <g
         id="#ffffffff">
        <path
           id="path10"
           d="M 0,0 H 600 V 300 H 0 V 0 m 148.3,16.36 c -3.51,4.51 -3.72,11.28 -0.82,16.14 2.97,4.92 10.17,5.78 14.79,2.78 1.78,-0.73 -0.13,-2.69 -0.32,-3.81 -2.41,1.27 -5.11,2.83 -7.9,1.8 -6.82,-2.51 -6.78,-14.05 0.03,-16.56 2.73,-0.97 5.35,0.55 7.72,1.72 0.43,-0.7 1.29,-2.09 1.72,-2.78 -4.24,-3.69 -11.46,-3.64 -15.22,0.71 m 133.97,0.04 c -3.47,4.5 -3.69,11.24 -0.79,16.09 3.26,5.4 11.6,5.96 16.05,1.74 -0.69,-0.91 -1.38,-1.83 -2.07,-2.75 -2.36,1.88 -5.71,2.93 -8.51,1.32 -5.72,-3.42 -5.28,-13.71 1.16,-16.1 2.72,-0.95 5.32,0.55 7.68,1.74 0.43,-0.7 1.3,-2.09 1.74,-2.78 -4.25,-3.72 -11.51,-3.65 -15.26,0.74 M 317,14.01 c 0.01,7.38 -0.02,14.77 0.01,22.15 1.35,-0.01 2.46,-0.48 2.95,-1.79 2.88,3.72 9.36,3.52 11.46,-0.87 2.07,-4.37 1.44,-11.57 -3.89,-13.2 -2.55,-0.99 -5.07,0.25 -7.16,1.64 0.1,-2.65 0.11,-5.3 0.08,-7.95 C 319.59,14 317.86,14 317,14.01 m 19,0 c 0,7.33 0,14.66 0,21.98 0.86,0.01 2.59,0.02 3.45,0.02 0.01,-7.34 0.04,-14.68 -0.01,-22.03 -0.86,0.01 -2.58,0.02 -3.44,0.03 m 29.53,0 c 2.17,7.32 4.59,14.56 6.73,21.89 0.71,0.03 2.13,0.09 2.84,0.12 1.52,-5.1 2.55,-10.36 4.45,-15.33 1.47,5.1 2.86,10.24 4.23,15.37 0.73,-0.06 2.19,-0.19 2.93,-0.26 2.11,-7.3 4.48,-14.53 6.74,-21.8 -0.95,0 -2.84,-0.02 -3.79,-0.03 -1.54,5.02 -2.91,10.09 -4.27,15.16 -2.08,-4.84 -2.93,-10.09 -4.45,-15.11 -0.75,0 -2.24,-0.02 -2.99,-0.02 -1.58,5.02 -2.48,10.26 -4.44,15.15 -1.38,-5.08 -2.8,-10.15 -4.28,-15.2 -0.92,0.01 -2.77,0.04 -3.7,0.06 m 30.75,0.37 c -2.13,1.71 1.29,5.22 3.04,2.97 2.22,-1.73 -1.24,-5.19 -3.04,-2.97 m 19,-0.02 c -2.15,1.76 1.28,5.21 3.04,2.99 2.21,-1.74 -1.23,-5.15 -3.04,-2.99 m -230.75,1.63 c 0.03,1.6 0.05,3.2 0.09,4.8 -0.75,0.08 -2.24,0.25 -2.99,0.34 -0.5,2.32 0.83,2.91 2.89,2.67 0.21,3.71 -0.53,7.57 0.59,11.17 1.65,2.67 5.32,2.36 7.74,1 -0.23,-0.55 -0.69,-1.65 -0.92,-2.19 -1.35,-0.02 -3.16,0.82 -3.84,-0.84 -0.24,-3.07 -0.05,-6.15 -0.08,-9.22 1.3,0.02 2.6,0.04 3.91,0.06 0.03,-0.69 0.08,-2.08 0.11,-2.77 C 190.69,21 189.34,21 188.01,21 188,19.33 188,17.67 188,16.01 187.13,16 185.4,15.99 184.53,15.99 m -18.1,4.92 c 0.15,0.76 0.45,2.29 0.6,3.05 2.19,-0.52 4.56,-1.58 6.76,-0.59 1.61,0.54 1.47,2.45 1.89,3.78 -3.99,-0.98 -10.51,-0.51 -10.7,4.84 0.05,5.28 7.08,6.33 10.46,3.35 1.18,0.28 2.35,0.56 3.54,0.83 -0.23,-4.36 0.74,-8.98 -0.81,-13.16 -2.43,-4.13 -7.87,-3.13 -11.74,-2.1 m 29.31,1.81 c -2.4,3.57 -2.4,8.81 0.47,12.12 2.48,2.54 6.54,2.65 9.67,1.38 2.29,-0.41 1.14,-2.1 0.33,-3.31 -2.08,0.86 -4.58,1.79 -6.68,0.47 -1.55,-0.9 -1.68,-2.85 -2.25,-4.36 3.7,-0.04 7.41,-0.01 11.11,-0.03 -0.26,-2.47 -0.36,-5.31 -2.3,-7.13 -2.78,-2.86 -8.08,-2.4 -10.35,0.86 m 17.39,-1.62 c -2.52,1.75 -2.32,5.15 -1.36,7.73 -2.15,1.66 -2.21,4.51 -0.16,6.32 -1.27,1.63 -2.61,3.55 -1.25,5.59 2.76,2.83 7.37,2.66 10.9,1.62 3.01,-0.78 5.13,-4.8 2.73,-7.31 -2.99,-2.37 -7.16,-1.29 -10.59,-2.48 -0.18,-0.48 -0.56,-1.43 -0.74,-1.9 2.99,-0.02 6.44,1.02 8.99,-1.12 1.48,-1.79 1.45,-4.17 1.06,-6.33 0.5,-0.28 1.5,-0.84 2.01,-1.12 l -0.41,-0.97 c -3.78,0.54 -7.7,-2.39 -11.18,-0.03 m 19.9,-0.88 c -5.97,1.03 -7.43,8.85 -4.69,13.44 3.25,5.42 13.37,4.09 14.32,-2.51 2.1,-5.92 -3.28,-12.84 -9.63,-10.93 m 67.43,0.66 c 0.14,0.77 0.42,2.32 0.55,3.09 2.2,-0.52 4.56,-1.59 6.78,-0.61 1.58,0.56 1.47,2.45 1.91,3.78 -2.88,-0.38 -6.11,-0.82 -8.68,0.88 -2.93,1.93 -2.56,7.16 0.83,8.39 2.52,1.16 5.41,0.51 7.59,-1.07 1.17,0.28 2.35,0.56 3.54,0.83 -0.23,-4.36 0.75,-9 -0.82,-13.17 -2.43,-4.12 -7.83,-3.09 -11.7,-2.12 m 43.51,12.11 c 1.8,4.1 7.16,4.86 10.93,3.22 2.4,0.11 1.32,-3.98 -0.55,-2.83 -1.91,0.35 -4.04,1.2 -5.82,0 -1.56,-0.9 -1.71,-2.84 -2.19,-4.38 3.68,-0.01 7.36,0.01 11.05,-0.01 0.33,-4.36 -2.46,-9.52 -7.43,-9.02 -6.23,0.19 -8.47,8.19 -5.99,13.02 m 83.92,-12.16 c -1.52,1.09 -3.27,0.43 -4.89,0.09 0,5.02 -0.01,10.05 0,15.08 0.86,0 2.59,0.01 3.45,0.01 0.11,-3.51 -0.24,-7.05 0.21,-10.54 0.87,-3.14 6.04,-3.47 6.98,-0.21 0.75,3.51 0.22,7.16 0.35,10.73 0.86,0 2.59,0.02 3.45,0.02 -0.04,-3.64 0.21,-7.29 -0.09,-10.92 -0.44,-4.35 -5.92,-6.41 -9.46,-4.26 m 15.27,0.25 c -2.56,1.74 -2.35,5.18 -1.4,7.77 -2.12,1.65 -2.21,4.49 -0.15,6.28 -1.49,1.67 -2.75,4.24 -0.8,6.09 3.31,2.45 8.25,2.35 11.81,0.46 2.57,-1.28 3.38,-5.36 0.84,-7.07 -3.04,-1.73 -6.76,-0.98 -10.03,-2.01 -0.18,-0.49 -0.56,-1.49 -0.75,-1.99 3.08,0.05 7.12,1.26 9.32,-1.6 1.86,-2.16 -0.61,-5.96 2.81,-7.01 l -0.63,-0.84 c -3.72,0.42 -7.59,-2.39 -11.02,-0.08 M 246,21 c 0,5 0,10 0,15 0.87,0 2.59,0 3.45,0.01 0.09,-3.19 -0.22,-6.41 0.22,-9.57 0.53,-1.94 2.64,-2.36 4.33,-2.7 0,-0.73 -0.01,-2.2 -0.02,-2.93 -2.06,0.12 -3.87,1.04 -5.54,2.18 -0.03,-0.5 -0.09,-1.49 -0.12,-1.99 -0.58,0 -1.74,0 -2.32,0 m 9.22,0.11 c 2.08,4.65 4.27,9.25 6.22,13.96 -0.68,2.41 -1.95,4.6 -2.91,6.9 0.9,0.01 2.71,0.05 3.61,0.06 3.01,-7.02 6.02,-14.03 8.96,-21.08 -1.24,0.07 -2.47,0.15 -3.71,0.23 -1.28,3.54 -2.71,7.02 -3.89,10.59 -1.72,-3.48 -2.98,-7.17 -4.38,-10.79 -1.3,0.04 -2.6,0.08 -3.9,0.13 M 396,21.01 c 0,5 -0.01,9.99 0,14.99 0.87,0 2.59,0 3.46,0 0,-5 0.02,-10.01 -0.02,-15.01 C 398.58,21 396.86,21 396,21.01 M 404,21 c -0.01,5 0,9.99 0,14.99 0.87,0 2.6,0.01 3.46,0.02 0.07,-3.18 -0.24,-6.39 0.2,-9.56 0.51,-1.94 2.65,-2.38 4.34,-2.7 0,-0.73 -0.01,-2.2 -0.02,-2.93 -2.06,0.08 -3.86,1.04 -5.49,2.21 -0.05,-0.51 -0.14,-1.53 -0.18,-2.03 -0.58,0 -1.73,0 -2.31,0 m 11,0.01 c 0,4.99 0,9.98 0,14.98 0.86,0.01 2.58,0.02 3.44,0.03 0.04,-5.01 0.03,-10.02 0.01,-15.03 -0.87,0 -2.59,0.01 -3.45,0.02 M 19,49 c 0,80 0,160 0,240 53.33,0 106.67,0 160,0 0,-80 0,-160 0,-240 -53.33,0 -106.67,0 -160,0 m 201,0 c 0,80 0,160 0,240 53.33,0 106.67,0 160,0 0,-80 0,-160 0,-240 -53.33,0 -106.67,0 -160,0 m 201,0 c 0,80 0,160 0,240 53.33,0 106.67,0 160,0 0,-80 0,-160 0,-240 -53.33,0 -106.67,0 -160,0 z"
           inkscape:connector-curvature="0"
           style="opacity:1;fill:#ffffff" />
        <path
           id="path12"
           d="m 197.69,26.78 c 0.18,-1.87 1.25,-4.16 3.46,-4.07 2.39,-0.41 3.11,2.26 3.85,3.96 -2.44,0.05 -4.88,0.09 -7.31,0.11 z"
           inkscape:connector-curvature="0"
           style="opacity:1;fill:#ffffff" />
        <path
           id="path14"
           d="m 216.44,22.43 c 3.88,-0.9 5.02,5.63 1.1,6.13 -3.65,0.77 -4.61,-5.41 -1.1,-6.13 z"
           inkscape:connector-curvature="0"
           style="opacity:1;fill:#ffffff" />
        <path
           id="path16"
           d="m 346.28,26.31 c 0.97,-1.41 1.73,-3.73 3.85,-3.6 2.42,-0.43 3.11,2.25 3.87,3.96 -2.58,0.08 -5.19,0.29 -7.72,-0.36 z"
           inkscape:connector-curvature="0"
           style="opacity:1;fill:#ffffff" />
        <path
           id="path18"
           d="m 446.43,22.44 c 2.02,-0.44 4.04,1.5 3.56,3.56 -0.1,1.9 -2.43,3.18 -4.11,2.36 -2.43,-1.09 -2.13,-5.34 0.55,-5.92 z"
           inkscape:connector-curvature="0"
           style="opacity:1;fill:#ffffff" />
        <path
           id="path20"
           d="m 233.13,23.15 c 3.22,-1.8 6.5,1.69 6.44,4.86 0.4,3.14 -2,7.08 -5.57,6.22 -4.59,-1.45 -4.75,-8.75 -0.87,-11.08 z"
           inkscape:connector-curvature="0"
           style="opacity:1;fill:#ffffff" />
        <path
           id="path22"
           d="m 322.35,23.51 c 2.65,-1.64 6.37,0.31 6.56,3.39 0.52,2.79 -0.52,6.73 -3.81,7.12 -5.34,0.42 -6.4,-7.78 -2.75,-10.51 z"
           inkscape:connector-curvature="0"
           style="opacity:1;fill:#ffffff" />
        <path
           id="path24"
           d="m 168.91,30.07 c 1.78,-1.65 4.36,-0.89 6.53,-0.93 0.24,2.02 -0.11,4.66 -2.51,5.14 -2.53,1.39 -5.89,-1.69 -4.02,-4.21 z"
           inkscape:connector-curvature="0"
           style="opacity:1;fill:#ffffff" />
        <path
           id="path26"
           d="m 302.88,30.03 c 2.02,-1.6 4.74,-1.11 7,-0.35 -0.54,1.72 -0.69,4.19 -2.91,4.59 -2.57,1.42 -5.9,-1.67 -4.09,-4.24 z"
           inkscape:connector-curvature="0"
           style="opacity:1;fill:#ffffff" />
        <path
           id="path28"
           d="m 213.2,39.63 c -0.88,-4.87 6.67,-4.78 8.48,-1.72 -0.94,3.71 -5.83,2.85 -8.48,1.72 z"
           inkscape:connector-curvature="0"
           style="opacity:1;fill:#ffffff" />
        <path
           id="path30"
           d="m 443.22,39.67 c -1.05,-4.93 6.92,-4.86 8.33,-1.71 -0.69,3.69 -5.78,2.75 -8.33,1.71 z"
           inkscape:connector-curvature="0"
           style="opacity:1;fill:#ffffff" />
        <path
           id="path32"
           d="m 512.08,73.86 c 1.82,-0.59 3.78,-0.5 5.16,1 -0.45,2.01 -0.97,4.01 -1.96,5.83 -0.98,-2.32 -2,-4.62 -3.2,-6.83 z"
           inkscape:connector-curvature="0"
           style="opacity:1;fill:#ffffff" />
        <path
           id="path34"
           d="m 481.31,74.02 c 1.58,-0.03 3.16,-0.05 4.74,-0.05 1.16,2.88 1.39,6.01 1.05,9.08 -1.96,-2.19 -3.99,-4.38 -5.29,-7.03 -0.13,-0.5 -0.37,-1.5 -0.5,-2 z"
           inkscape:connector-curvature="0"
           style="opacity:1;fill:#ffffff" />
        <path
           id="path36"
           d="m 110.47,77.64 c -0.03,6.3 0.03,12.72 1.89,18.8 1.11,9.67 0.42,19.58 -1.66,29.09 -2.41,-7.37 -1.18,-15.29 -1.36,-22.9 -0.54,-8.34 -0.67,-16.78 1.13,-24.99 z"
           inkscape:connector-curvature="0"
           style="opacity:1;fill:#ffffff" />
        <path
           id="path38"
           d="m 285.61,78.42 c 1.58,-0.38 3.17,-0.77 4.75,-1.19 2.13,7.07 1.64,14.54 1.2,21.81 -2.93,-6.54 -5.78,-13.34 -5.95,-20.62 z"
           inkscape:connector-curvature="0"
           style="opacity:1;fill:#ffffff" />
        <path
           id="path40"
           d="m 310.16,98.43 c -1.22,-6.96 -0.6,-14.06 0.64,-20.96 1.87,0.12 3.68,0.62 5.48,1.17 -1.04,6.86 -3.1,13.54 -6.12,19.79 z"
           inkscape:connector-curvature="0"
           style="opacity:1;fill:#ffffff" />
        <path
           id="path42"
           d="m 461.83,80.26 c 1.45,-0.17 2.92,-0.33 4.39,-0.49 1.85,2.58 2.07,5.79 2.32,8.85 -2.5,-2.11 -5.03,-4.3 -6.69,-7.16 z"
           inkscape:connector-curvature="0"
           style="opacity:1;fill:#ffffff" />
        <path
           id="path44"
           d="m 525.3,81.27 c 1.04,-2.14 3.79,-1.4 5.68,-1.33 0.56,1.83 1.15,3.64 1.63,5.49 0.89,5.9 -0.92,11.89 -4.35,16.69 -2.51,-5.19 0.35,-11.07 -2.03,-16.29 -0.43,-1.49 -1.11,-2.99 -0.93,-4.56 z"
           inkscape:connector-curvature="0"
           style="opacity:1;fill:#ffffff" />
        <path
           id="path46"
           d="m 81.85,81.61 c 1.49,5.14 2.43,10.51 5.15,15.19 3.01,9.26 4.12,19.14 3.95,28.86 -3.86,-6.74 -4.09,-14.79 -5.78,-22.22 -1.85,-7.12 -3.79,-14.39 -3.32,-21.83 z"
           inkscape:connector-curvature="0"
           style="opacity:1;fill:#ffffff" />
        <path
           id="path48"
           d="m 507.83,90.49 c 0.06,-3.04 0.78,-6.02 2.06,-8.78 1.21,2.21 2.04,4.65 2.06,7.2 0.05,4 1.24,7.84 2.52,11.6 1.85,6.65 1.53,14.01 -1.24,20.36 -2.4,-6.33 -1.55,-13.23 -3.33,-19.65 -0.41,-1.37 -0.88,-2.72 -1.29,-4.09 -0.24,-2.21 -0.52,-4.42 -0.78,-6.64 z"
           inkscape:connector-curvature="0"
           style="opacity:1;fill:#ffffff" />
        <path
           id="path50"
           d="m 481.98,83.75 c 2.67,2.25 4.24,5.43 4.6,8.89 1.4,1.61 2.86,3.18 4.28,4.79 3.26,3.59 4.56,8.49 3.92,13.27 -4.42,-3.23 -5.23,-9.05 -9.11,-12.66 -4.46,-3.22 -5.39,-9.31 -3.69,-14.29 z"
           inkscape:connector-curvature="0"
           style="opacity:1;fill:#ffffff" />
        <path
           id="path52"
           d="m 256.82,87.01 c 1.49,-0.9 2.99,-1.78 4.52,-2.6 3.34,6.33 5.05,13.46 5.67,20.56 -4.21,-5.47 -8.06,-11.34 -10.19,-17.96 z"
           inkscape:connector-curvature="0"
           style="opacity:1;fill:#ffffff" />
        <path
           id="path54"
           d="m 334.71,104.78 c 0.17,-6.84 2.07,-13.73 5.17,-19.83 1.81,-0.6 3.26,1.43 4.79,2.11 -2.17,6.48 -5.88,12.29 -9.96,17.72 z"
           inkscape:connector-curvature="0"
           style="opacity:1;fill:#ffffff" />
        <path
           id="path56"
           d="m 463.5,89.93 c 4.82,2.6 4.75,8.96 9.46,11.61 4.28,3.22 6.52,8.52 6.63,13.79 -1.92,-1.66 -4.15,-3.09 -5.46,-5.32 -1.43,-2.34 -2.84,-4.81 -5.23,-6.3 -4.79,-2.69 -6.54,-8.62 -5.4,-13.78 z"
           inkscape:connector-curvature="0"
           style="opacity:1;fill:#ffffff" />
        <path
           id="path58"
           d="m 285.39,99.12 c 1.92,5.21 4.21,10.39 4.77,15.98 0.26,4.2 2.55,7.83 4.61,11.36 4.45,9.48 7.41,20.79 3.96,31.04 -1.02,-3.46 -2.35,-6.81 -3.64,-10.17 -0.31,-3.55 -0.88,-7.07 -1.84,-10.5 -0.83,-3.18 -2.18,-6.21 -3.89,-9 -5.42,-8.47 -6.25,-19.09 -3.97,-28.71 z"
           inkscape:connector-curvature="0"
           style="opacity:1;fill:#ffffff" />
        <path
           id="path60"
           d="m 311.1,115.94 c 0.69,-5.56 2.61,-10.86 4.73,-16.02 3.11,9.34 1.27,20.06 -3.96,28.31 -5.62,8.47 -4.18,19.25 -8.88,28.08 l -0.69,0.77 c -2.49,-10.13 -0.18,-20.86 4.17,-30.14 1.94,-3.47 4.29,-6.92 4.63,-11 z"
           inkscape:connector-curvature="0"
           style="opacity:1;fill:#ffffff" />
        <path
           id="path62"
           d="m 518.93,118.53 c -1.2,-5.99 0.29,-12.52 4.24,-17.22 2.17,5.55 -0.89,11.36 0.88,16.99 0.46,3.02 0.24,6.13 -0.43,9.11 -1.29,3.34 -3.44,6.21 -6,8.68 -0.15,-3.79 0.08,-7.6 1.28,-11.22 0.78,-2.06 0.46,-4.25 0.03,-6.34 z"
           inkscape:connector-curvature="0"
           style="opacity:1;fill:#ffffff" />
        <path
           id="path64"
           d="m 261.66,107.52 c 3.21,4.57 6.41,9.25 8.2,14.59 1.11,3.8 4.21,6.47 6.74,9.35 6.65,8.35 11.56,18.78 11.02,29.69 -2.33,-3.93 -5.47,-7.43 -6.91,-11.82 -1.92,-5.41 -4.61,-10.64 -8.61,-14.81 -7.07,-6.96 -11.28,-17.02 -10.44,-27 z"
           inkscape:connector-curvature="0"
           style="opacity:1;fill:#ffffff" />
        <path
           id="path66"
           d="m 331.77,121.77 c 1.77,-5.23 4.96,-9.78 8.1,-14.27 0.73,9.74 -3.19,19.62 -10.02,26.52 -4.43,4.48 -7.4,10.17 -9.48,16.07 -1.36,3.98 -4.19,7.18 -6.27,10.78 -0.95,-10.9 4.35,-21.38 11.02,-29.64 2.64,-2.81 5.5,-5.66 6.65,-9.46 z"
           inkscape:connector-curvature="0"
           style="opacity:1;fill:#ffffff" />
        <path
           id="path68"
           d="m 491.5,125.64 c -1.44,-4.12 -3.87,-8.66 -1.52,-12.96 3.93,3.93 4.34,10.1 8.99,13.48 3.32,4.42 5.11,10.29 3.29,15.69 -4.52,-4.19 -3.87,-11.54 -9.22,-14.98 -0.38,-0.31 -1.15,-0.92 -1.54,-1.23 z"
           inkscape:connector-curvature="0"
           style="opacity:1;fill:#ffffff" />
        <path
           id="path70"
           d="m 474.96,117.72 c 4.15,3.29 5.25,9.08 9.95,11.83 4.29,3.91 6.85,9.97 6.06,15.8 -5.1,-3.53 -5.65,-10.46 -10.77,-13.91 -4.06,-3.13 -6.98,-8.56 -5.24,-13.72 z"
           inkscape:connector-curvature="0"
           style="opacity:1;fill:#ffffff" />
        <path
           id="path72"
           d="m 506.79,141.39 c -1.89,-6.83 -1.89,-14.68 1.82,-20.92 2.13,5.28 1.53,11.06 1.49,16.61 -0.04,5.08 2.35,9.74 3.13,14.69 -0.25,1.95 -0.64,3.88 -1.12,5.78 -1.04,-0.76 -2.07,-1.51 -3.1,-2.27 0.28,-4.74 -0.87,-9.39 -2.22,-13.89 z"
           inkscape:connector-curvature="0"
           style="opacity:1;fill:#ffffff" />
        <path
           id="path74"
           d="m 106.44,135.85 c 0.5,6.11 0.28,12.46 2.55,18.25 2.24,11.92 2.55,24.51 -0.12,36.4 -1.34,-9.53 -1.68,-19.17 -2.82,-28.72 -1.74,-8.61 -0.06,-17.29 0.39,-25.93 z"
           inkscape:connector-curvature="0"
           style="opacity:1;fill:#ffffff" />
        <path
           id="path76"
           d="m 89.22,138.88 c 1.55,5.27 2.54,10.88 5.65,15.52 1.07,1.67 1.52,3.63 2.1,5.51 2.9,9.87 5.01,20.11 4.82,30.45 -3.33,-9.4 -5.56,-19.16 -8.63,-28.64 -2.81,-7.29 -3.39,-15.13 -3.94,-22.84 z"
           inkscape:connector-curvature="0"
           style="opacity:1;fill:#ffffff" />
        <path
           id="path78"
           d="m 496.08,142.32 c 3.44,3.52 6.03,7.89 6.31,12.92 -1.61,0.04 -3.21,0.23 -4.82,0.11 -2.43,-3.82 -2.16,-8.72 -1.49,-13.03 z"
           inkscape:connector-curvature="0"
           style="opacity:1;fill:#ffffff" />
        <path
           id="path80"
           d="m 484.19,145.96 c 3.24,2.99 6.62,6.14 7.65,10.64 -1.73,0.83 -3.42,1.73 -5.16,2.53 -1.47,-4.25 -2.56,-8.64 -2.49,-13.17 z"
           inkscape:connector-curvature="0"
           style="opacity:1;fill:#ffffff" />
        <path
           id="path82"
           d="m 292.37,156.34 c 0.18,0.13 0.53,0.41 0.7,0.54 0.79,4.71 2.38,9.31 2.21,14.14 -0.16,3.63 0.53,7.19 1.67,10.62 -1.9,0.31 -3.8,0.66 -5.67,1.1 -0.09,-0.66 -0.29,-1.99 -0.39,-2.66 -1.21,-7.96 0.09,-15.92 1.48,-23.74 z"
           inkscape:connector-curvature="0"
           style="opacity:1;fill:#ffffff" />
        <path
           id="path84"
           d="m 305.08,180.99 c 1.69,-7.84 0.34,-16.23 3.74,-23.76 0.87,2.7 1.51,5.48 1.82,8.3 0.63,5.31 0.46,10.69 -0.26,15.99 -1.76,-0.25 -3.53,-0.42 -5.3,-0.53 z"
           inkscape:connector-curvature="0"
           style="opacity:1;fill:#ffffff" />
        <path
           id="path86"
           d="m 281.18,161.68 c 5,6.27 5.52,14.5 8.83,21.52 -1.6,0.58 -3.19,1.19 -4.8,1.72 -0.14,-0.22 -0.43,-0.66 -0.58,-0.88 -2.87,-7.06 -3.52,-14.8 -3.45,-22.36 z"
           inkscape:connector-curvature="0"
           style="opacity:1;fill:#ffffff" />
        <path
           id="path88"
           d="m 312.15,181.82 c 2.68,-6.59 3.47,-14.03 8.01,-19.82 0.27,6.79 -0.26,13.83 -2.76,20.2 -0.13,0.21 -0.39,0.63 -0.52,0.84 -1.59,-0.39 -3.15,-0.84 -4.73,-1.22 z"
           inkscape:connector-curvature="0"
           style="opacity:1;fill:#ffffff" />
        <path
           id="path90"
           d="m 97.64,189.09 c 2,4.97 3.28,10.18 5.14,15.21 0.76,-2.79 1.21,-5.65 1.57,-8.51 -0.15,-0.31 -0.46,-0.92 -0.62,-1.23 l 0.83,0.23 c 0.15,-1.76 0.36,-3.51 0.61,-5.26 1.11,6.02 1.5,12.14 2.35,18.2 -2.82,-0.39 -5.67,-0.13 -8.47,0.23 -0.12,-1.08 -0.24,-2.16 -0.36,-3.24 -0.54,-5.2 -0.36,-10.45 -1.05,-15.63 z"
           inkscape:connector-curvature="0"
           style="opacity:1;fill:#ffffff" />
      </g>
      <g
         id="#666666ff">
        <path
           id="path93"
           d="m 148.3,16.36 c 3.76,-4.35 10.98,-4.4 15.22,-0.71 -0.43,0.69 -1.29,2.08 -1.72,2.78 -2.37,-1.17 -4.99,-2.69 -7.72,-1.72 -6.81,2.51 -6.85,14.05 -0.03,16.56 2.79,1.03 5.49,-0.53 7.9,-1.8 0.19,1.12 2.1,3.08 0.32,3.81 -4.62,3 -11.82,2.14 -14.79,-2.78 -2.9,-4.86 -2.69,-11.63 0.82,-16.14 z"
           inkscape:connector-curvature="0"
           style="opacity:1;fill:#666666" />
        <path
           id="path95"
           d="m 282.27,16.4 c 3.75,-4.39 11.01,-4.46 15.26,-0.74 -0.44,0.69 -1.31,2.08 -1.74,2.78 -2.36,-1.19 -4.96,-2.69 -7.68,-1.74 -6.44,2.39 -6.88,12.68 -1.16,16.1 2.8,1.61 6.15,0.56 8.51,-1.32 0.69,0.92 1.38,1.84 2.07,2.75 -4.45,4.22 -12.79,3.66 -16.05,-1.74 -2.9,-4.85 -2.68,-11.59 0.79,-16.09 z"
           inkscape:connector-curvature="0"
           style="opacity:1;fill:#666666" />
        <path
           id="path97"
           d="m 317,14.01 c 0.86,-0.01 2.59,-0.01 3.45,-0.02 0.03,2.65 0.02,5.3 -0.08,7.95 2.09,-1.39 4.61,-2.63 7.16,-1.64 5.33,1.63 5.96,8.83 3.89,13.2 -2.1,4.39 -8.58,4.59 -11.46,0.87 -0.49,1.31 -1.6,1.78 -2.95,1.79 -0.03,-7.38 0,-14.77 -0.01,-22.15 m 5.35,9.5 c -3.65,2.73 -2.59,10.93 2.75,10.51 3.29,-0.39 4.33,-4.33 3.81,-7.12 -0.19,-3.08 -3.91,-5.03 -6.56,-3.39 z"
           inkscape:connector-curvature="0"
           style="opacity:1;fill:#666666" />
        <path
           id="path99"
           d="m 336,14.01 c 0.86,-0.01 2.58,-0.02 3.44,-0.03 0.05,7.35 0.02,14.69 0.01,22.03 -0.86,0 -2.59,-0.01 -3.45,-0.02 0,-7.32 0,-14.65 0,-21.98 z"
           inkscape:connector-curvature="0"
           style="opacity:1;fill:#666666" />
        <path
           id="path101"
           d="m 365.53,14.01 c 0.93,-0.02 2.78,-0.05 3.7,-0.06 1.48,5.05 2.9,10.12 4.28,15.2 1.96,-4.89 2.86,-10.13 4.44,-15.15 0.75,0 2.24,0.02 2.99,0.02 1.52,5.02 2.37,10.27 4.45,15.11 1.36,-5.07 2.73,-10.14 4.27,-15.16 0.95,0.01 2.84,0.03 3.79,0.03 -2.26,7.27 -4.63,14.5 -6.74,21.8 -0.74,0.07 -2.2,0.2 -2.93,0.26 -1.37,-5.13 -2.76,-10.27 -4.23,-15.37 -1.9,4.97 -2.93,10.23 -4.45,15.33 -0.71,-0.03 -2.13,-0.09 -2.84,-0.12 -2.14,-7.33 -4.56,-14.57 -6.73,-21.89 z"
           inkscape:connector-curvature="0"
           style="opacity:1;fill:#666666" />
        <path
           id="path103"
           d="m 396.28,14.38 c 1.8,-2.22 5.26,1.24 3.04,2.97 -1.75,2.25 -5.17,-1.26 -3.04,-2.97 z"
           inkscape:connector-curvature="0"
           style="opacity:1;fill:#666666" />
        <path
           id="path105"
           d="m 415.28,14.36 c 1.81,-2.16 5.25,1.25 3.04,2.99 -1.76,2.22 -5.19,-1.23 -3.04,-2.99 z"
           inkscape:connector-curvature="0"
           style="opacity:1;fill:#666666" />
        <path
           id="path107"
           d="m 184.53,15.99 c 0.87,0 2.6,0.01 3.47,0.02 0,1.66 0,3.32 0.01,4.99 1.33,0 2.68,0 4.02,0.01 -0.03,0.69 -0.08,2.08 -0.11,2.77 -1.31,-0.02 -2.61,-0.04 -3.91,-0.06 0.03,3.07 -0.16,6.15 0.08,9.22 0.68,1.66 2.49,0.82 3.84,0.84 0.23,0.54 0.69,1.64 0.92,2.19 -2.42,1.36 -6.09,1.67 -7.74,-1 -1.12,-3.6 -0.38,-7.46 -0.59,-11.17 -2.06,0.24 -3.39,-0.35 -2.89,-2.67 0.75,-0.09 2.24,-0.26 2.99,-0.34 -0.04,-1.6 -0.06,-3.2 -0.09,-4.8 z"
           inkscape:connector-curvature="0"
           style="opacity:1;fill:#666666" />
        <path
           id="path109"
           d="m 166.43,20.91 c 3.87,-1.03 9.31,-2.03 11.74,2.1 1.55,4.18 0.58,8.8 0.81,13.16 -1.19,-0.27 -2.36,-0.55 -3.54,-0.83 -3.38,2.98 -10.41,1.93 -10.46,-3.35 0.19,-5.35 6.71,-5.82 10.7,-4.84 -0.42,-1.33 -0.28,-3.24 -1.89,-3.78 -2.2,-0.99 -4.57,0.07 -6.76,0.59 -0.15,-0.76 -0.45,-2.29 -0.6,-3.05 m 2.48,9.16 c -1.87,2.52 1.49,5.6 4.02,4.21 2.4,-0.48 2.75,-3.12 2.51,-5.14 -2.17,0.04 -4.75,-0.72 -6.53,0.93 z"
           inkscape:connector-curvature="0"
           style="opacity:1;fill:#666666" />
        <path
           id="path111"
           d="m 195.74,22.72 c 2.27,-3.26 7.57,-3.72 10.35,-0.86 1.94,1.82 2.04,4.66 2.3,7.13 -3.7,0.02 -7.41,-0.01 -11.11,0.03 0.57,1.51 0.7,3.46 2.25,4.36 2.1,1.32 4.6,0.39 6.68,-0.47 0.81,1.21 1.96,2.9 -0.33,3.31 -3.13,1.27 -7.19,1.16 -9.67,-1.38 -2.87,-3.31 -2.87,-8.55 -0.47,-12.12 m 1.95,4.06 c 2.43,-0.02 4.87,-0.06 7.31,-0.11 -0.74,-1.7 -1.46,-4.37 -3.85,-3.96 -2.21,-0.09 -3.28,2.2 -3.46,4.07 z"
           inkscape:connector-curvature="0"
           style="opacity:1;fill:#666666" />
        <path
           id="path113"
           d="m 213.13,21.1 c 3.48,-2.36 7.4,0.57 11.18,0.03 l 0.41,0.97 c -0.51,0.28 -1.51,0.84 -2.01,1.12 0.39,2.16 0.42,4.54 -1.06,6.33 -2.55,2.14 -6,1.1 -8.99,1.12 0.18,0.47 0.56,1.42 0.74,1.9 3.43,1.19 7.6,0.11 10.59,2.48 2.4,2.51 0.28,6.53 -2.73,7.31 -3.53,1.04 -8.14,1.21 -10.9,-1.62 -1.36,-2.04 -0.02,-3.96 1.25,-5.59 -2.05,-1.81 -1.99,-4.66 0.16,-6.32 -0.96,-2.58 -1.16,-5.98 1.36,-7.73 m 3.31,1.33 c -3.51,0.72 -2.55,6.9 1.1,6.13 3.92,-0.5 2.78,-7.03 -1.1,-6.13 m -3.24,17.2 c 2.65,1.13 7.54,1.99 8.48,-1.72 -1.81,-3.06 -9.36,-3.15 -8.48,1.72 z"
           inkscape:connector-curvature="0"
           style="opacity:1;fill:#666666" />
        <path
           id="path115"
           d="m 233.03,20.22 c 6.35,-1.91 11.73,5.01 9.63,10.93 -0.95,6.6 -11.07,7.93 -14.32,2.51 -2.74,-4.59 -1.28,-12.41 4.69,-13.44 m 0.1,2.93 c -3.88,2.33 -3.72,9.63 0.87,11.08 3.57,0.86 5.97,-3.08 5.57,-6.22 0.06,-3.17 -3.22,-6.66 -6.44,-4.86 z"
           inkscape:connector-curvature="0"
           style="opacity:1;fill:#666666" />
        <path
           id="path117"
           d="m 300.46,20.88 c 3.87,-0.97 9.27,-2 11.7,2.12 1.57,4.17 0.59,8.81 0.82,13.17 -1.19,-0.27 -2.37,-0.55 -3.54,-0.83 -2.18,1.58 -5.07,2.23 -7.59,1.07 -3.39,-1.23 -3.76,-6.46 -0.83,-8.39 2.57,-1.7 5.8,-1.26 8.68,-0.88 -0.44,-1.33 -0.33,-3.22 -1.91,-3.78 -2.22,-0.98 -4.58,0.09 -6.78,0.61 -0.13,-0.77 -0.41,-2.32 -0.55,-3.09 m 2.42,9.15 c -1.81,2.57 1.52,5.66 4.09,4.24 2.22,-0.4 2.37,-2.87 2.91,-4.59 -2.26,-0.76 -4.98,-1.25 -7,0.35 z"
           inkscape:connector-curvature="0"
           style="opacity:1;fill:#666666" />
        <path
           id="path119"
           d="m 343.97,32.99 c -2.48,-4.83 -0.24,-12.83 5.99,-13.02 4.97,-0.5 7.76,4.66 7.43,9.02 -3.69,0.02 -7.37,0 -11.05,0.01 0.48,1.54 0.63,3.48 2.19,4.38 1.78,1.2 3.91,0.35 5.82,0 1.87,-1.15 2.95,2.94 0.55,2.83 -3.77,1.64 -9.13,0.88 -10.93,-3.22 m 2.31,-6.68 c 2.53,0.65 5.14,0.44 7.72,0.36 -0.76,-1.71 -1.45,-4.39 -3.87,-3.96 -2.12,-0.13 -2.88,2.19 -3.85,3.6 z"
           inkscape:connector-curvature="0"
           style="opacity:1;fill:#666666" />
        <path
           id="path121"
           d="m 427.89,20.83 c 3.54,-2.15 9.02,-0.09 9.46,4.26 0.3,3.63 0.05,7.28 0.09,10.92 -0.86,0 -2.59,-0.02 -3.45,-0.02 -0.13,-3.57 0.4,-7.22 -0.35,-10.73 -0.94,-3.26 -6.11,-2.93 -6.98,0.21 -0.45,3.49 -0.1,7.03 -0.21,10.54 -0.86,0 -2.59,-0.01 -3.45,-0.01 -0.01,-5.03 0,-10.06 0,-15.08 1.62,0.34 3.37,1 4.89,-0.09 z"
           inkscape:connector-curvature="0"
           style="opacity:1;fill:#666666" />
        <path
           id="path123"
           d="m 443.16,21.08 c 3.43,-2.31 7.3,0.5 11.02,0.08 l 0.63,0.84 c -3.42,1.05 -0.95,4.85 -2.81,7.01 -2.2,2.86 -6.24,1.65 -9.32,1.6 0.19,0.5 0.57,1.5 0.75,1.99 3.27,1.03 6.99,0.28 10.03,2.01 2.54,1.71 1.73,5.79 -0.84,7.07 -3.56,1.89 -8.5,1.99 -11.81,-0.46 -1.95,-1.85 -0.69,-4.42 0.8,-6.09 -2.06,-1.79 -1.97,-4.63 0.15,-6.28 -0.95,-2.59 -1.16,-6.03 1.4,-7.77 m 3.27,1.36 c -2.68,0.58 -2.98,4.83 -0.55,5.92 1.68,0.82 4.01,-0.46 4.11,-2.36 0.48,-2.06 -1.54,-4 -3.56,-3.56 m -3.21,17.23 c 2.55,1.04 7.64,1.98 8.33,-1.71 -1.41,-3.15 -9.38,-3.22 -8.33,1.71 z"
           inkscape:connector-curvature="0"
           style="opacity:1;fill:#666666" />
        <path
           id="path125"
           d="m 246,21 c 0.58,0 1.74,0 2.32,0 0.03,0.5 0.09,1.49 0.12,1.99 1.67,-1.14 3.48,-2.06 5.54,-2.18 0.01,0.73 0.02,2.2 0.02,2.93 -1.69,0.34 -3.8,0.76 -4.33,2.7 -0.44,3.16 -0.13,6.38 -0.22,9.57 C 248.59,36 246.87,36 246,36 c 0,-5 0,-10 0,-15 z"
           inkscape:connector-curvature="0"
           style="opacity:1;fill:#666666" />
        <path
           id="path127"
           d="m 255.22,21.11 c 1.3,-0.05 2.6,-0.09 3.9,-0.13 1.4,3.62 2.66,7.31 4.38,10.79 1.18,-3.57 2.61,-7.05 3.89,-10.59 1.24,-0.08 2.47,-0.16 3.71,-0.23 -2.94,7.05 -5.95,14.06 -8.96,21.08 -0.9,-0.01 -2.71,-0.05 -3.61,-0.06 0.96,-2.3 2.23,-4.49 2.91,-6.9 -1.95,-4.71 -4.14,-9.31 -6.22,-13.96 z"
           inkscape:connector-curvature="0"
           style="opacity:1;fill:#666666" />
        <path
           id="path129"
           d="m 396,21.01 c 0.86,-0.01 2.58,-0.01 3.44,-0.02 0.04,5 0.02,10.01 0.02,15.01 -0.87,0 -2.59,0 -3.46,0 -0.01,-5 0,-9.99 0,-14.99 z"
           inkscape:connector-curvature="0"
           style="opacity:1;fill:#666666" />
        <path
           id="path131"
           d="m 404,21 c 0.58,0 1.73,0 2.31,0 0.04,0.5 0.13,1.52 0.18,2.03 1.63,-1.17 3.43,-2.13 5.49,-2.21 0.01,0.73 0.02,2.2 0.02,2.93 -1.69,0.32 -3.83,0.76 -4.34,2.7 -0.44,3.17 -0.13,6.38 -0.2,9.56 C 406.6,36 404.87,35.99 404,35.99 404,30.99 403.99,26 404,21 Z"
           inkscape:connector-curvature="0"
           style="opacity:1;fill:#666666" />
        <path
           id="path133"
           d="m 415,21.01 c 0.86,-0.01 2.58,-0.02 3.45,-0.02 0.02,5.01 0.03,10.02 -0.01,15.03 -0.86,-0.01 -2.58,-0.02 -3.44,-0.03 0,-5 0,-9.99 0,-14.98 z"
           inkscape:connector-curvature="0"
           style="opacity:1;fill:#666666" />
        <path
           id="path135"
           d="m 296.95,181.64 c 2.08,-0.28 4.18,-0.47 6.28,-0.58 0.46,-0.02 1.39,-0.05 1.85,-0.07 1.77,0.11 3.54,0.28 5.3,0.53 0.44,0.07 1.33,0.22 1.77,0.3 1.58,0.38 3.14,0.83 4.73,1.22 0.13,-0.21 0.39,-0.63 0.52,-0.84 1.24,2.02 3.63,2.69 5.59,3.78 0.01,17.34 0.02,34.67 0,52.01 -13.33,-0.01 -26.66,0.04 -39.99,-0.01 0.02,-16.69 -0.02,-33.37 0,-50.05 -0.12,-1.5 1.02,-2.64 1.63,-3.89 0.15,0.22 0.44,0.66 0.58,0.88 1.61,-0.53 3.2,-1.14 4.8,-1.72 0.32,-0.11 0.95,-0.34 1.27,-0.46 1.87,-0.44 3.77,-0.79 5.67,-1.1 z"
           inkscape:connector-curvature="0"
           style="opacity:1;fill:#666666" />
        <path
           id="path137"
           d="m 487.75,196.24 c 7.8,-2.52 16.53,-3.14 24.22,0.13 1.04,0.45 2.03,1.03 3.05,1.57 -0.06,13.35 0.03,26.71 -0.05,40.06 -10.32,-0.01 -20.64,0.01 -30.96,-0.01 -0.03,-12.34 0,-24.67 -0.02,-37 -0.11,-1.58 0.41,-3.07 1.01,-4.49 0.91,-0.08 1.83,-0.14 2.75,-0.26 z"
           inkscape:connector-curvature="0"
           style="opacity:1;fill:#666666" />
        <path
           id="path139"
           d="m 98.69,204.72 c 0.12,1.08 0.24,2.16 0.36,3.24 2.8,-0.36 5.65,-0.62 8.47,-0.23 0.86,0.18 2.6,0.54 3.46,0.72 0.5,0.12 1.5,0.36 2,0.48 0.04,9.68 0.01,19.36 0.03,29.04 -5.33,0.06 -10.67,0.02 -16,0.02 -0.03,-8.66 0.01,-17.31 -0.03,-25.96 -0.05,-2.56 1.42,-4.8 1.71,-7.31 z"
           inkscape:connector-curvature="0"
           style="opacity:1;fill:#666666" />
      </g>
      <g
         id="#1a1a1aff">
        <path
           id="path142"
           d="m 19,49 c 53.33,0 106.67,0 160,0 0,80 0,160 0,240 -53.33,0 -106.67,0 -160,0 0,-80 0,-160 0,-240 m 91.47,28.64 c -1.8,8.21 -1.67,16.65 -1.13,24.99 -0.27,0.36 -0.8,1.08 -1.06,1.44 -2.72,10.33 -2.33,21.2 -1.84,31.78 -0.45,8.64 -2.13,17.32 -0.39,25.93 -1.43,4.6 -1.36,9.48 -1.47,14.24 0.09,4.51 -0.34,9.07 0.59,13.51 -0.25,1.75 -0.46,3.5 -0.61,5.26 l -0.83,-0.23 c -0.69,-1.39 -1.38,-2.76 -1.94,-4.2 0.19,-10.34 -1.92,-20.58 -4.82,-30.45 -0.58,-1.88 -1.03,-3.84 -2.1,-5.51 0.49,-7.57 -0.95,-15.09 -2.17,-22.52 -0.44,-2.1 -0.56,-4.37 -1.75,-6.22 0.17,-9.72 -0.94,-19.6 -3.95,-28.86 1.11,-2.48 0.7,-5.19 0.61,-7.8 -0.23,-4.19 -0.01,-8.49 -1.2,-12.56 -0.93,-1.22 -2.52,-1.53 -3.91,-0.99 -1.66,1.64 -1.05,4.15 -0.65,6.16 -0.47,7.44 1.47,14.71 3.32,21.83 -0.76,1.41 -0.95,3 -0.9,4.57 0.19,10.47 2.4,20.76 4.95,30.87 0.55,7.71 1.13,15.55 3.94,22.84 0.21,9.24 1.27,18.66 4.48,27.37 0.69,5.18 0.51,10.43 1.05,15.63 -0.29,2.51 -1.76,4.75 -1.71,7.31 0.04,8.65 0,17.3 0.03,25.96 5.33,0 10.67,0.04 16,-0.02 -0.02,-9.68 0.01,-19.36 -0.03,-29.04 -0.5,-0.12 -1.5,-0.36 -2,-0.48 1.2,-6.13 -0.68,-12.06 -2.11,-17.95 2.67,-11.89 2.36,-24.48 0.12,-36.4 1.93,-5.86 1.76,-12.09 2.15,-18.17 0.01,-3.46 0.71,-7.05 -0.44,-10.4 2.08,-9.51 2.77,-19.42 1.66,-29.09 2.52,-6.35 3.41,-13.44 3.31,-20.24 -1.25,-3.04 -5.67,-1.79 -5.2,1.44 M 80.98,258.97 c -4.26,2.73 -3.55,9.91 1.18,11.73 2.23,0.75 6.66,0.69 6.69,-2.49 -1.92,0.4 -3.88,1.45 -5.86,0.8 -3.02,-1.08 -4.08,-5.51 -1.72,-7.78 1.81,-2.53 5.24,-0.92 7.71,-0.72 -0.92,-3.26 -5.67,-3.18 -8,-1.54 m 30.41,-0.81 c -0.08,0.36 -0.24,1.09 -0.33,1.45 1.81,0.09 3.62,0.18 5.44,0.27 -1.2,1.54 -2.31,3.15 -3.14,4.92 1.86,0.2 5.47,0.34 4.59,3.21 -1.67,2.18 -4.75,0.64 -6.94,0.49 1.33,3.79 7.82,3.38 8.81,-0.53 0.65,-2.4 -1.47,-4.06 -3.53,-4.6 1.39,-1.62 2.85,-3.26 3.5,-5.35 -2.8,-0.03 -5.62,-0.2 -8.4,0.14 m -10.38,0.77 c -0.02,0.7 -0.05,2.1 -0.07,2.8 -0.5,0.23 -1.5,0.7 -2.01,0.94 0.51,0.28 1.53,0.83 2.04,1.11 0.04,1.98 -0.17,4 0.26,5.96 0.8,1.6 2.8,1.1 4.23,1.42 l 0.17,-1.65 c -3.8,0.96 -2.68,-3.4 -2.81,-5.61 1.18,-0.27 2.14,-0.87 2.86,-1.79 -0.7,-0.05 -2.12,-0.14 -2.83,-0.19 0,-0.71 -0.01,-2.13 -0.02,-2.84 -0.46,-0.04 -1.37,-0.11 -1.82,-0.15 M 90.64,264 c 1.87,-0.04 4.98,-1.05 5.52,1.59 -2.44,-0.08 -6.71,-0.11 -6.2,3.47 1.48,3.07 5.21,1.54 7.87,1.69 -0.32,-2.86 0.89,-6.79 -2.05,-8.6 -1.85,-0.31 -4.86,-0.72 -5.14,1.85 z"
           inkscape:connector-curvature="0"
           style="opacity:1;fill:#1a1a1a" />
        <path
           id="path144"
           d="m 220,49 c 53.33,0 106.67,0 160,0 0,80 0,160 0,240 -53.33,0 -106.67,0 -160,0 0,-80 0,-160 0,-240 m 59.72,29.11 c 0.7,7.26 3.03,14.25 5.67,21.01 -2.28,9.62 -1.45,20.24 3.97,28.71 -2.17,9.43 -0.84,19.39 2.74,28.3 l 0.27,0.21 c -1.39,7.82 -2.69,15.78 -1.48,23.74 -1.69,-6.21 0.9,-13.5 -3.27,-18.93 0.54,-10.91 -4.37,-21.34 -11.02,-29.69 -0.37,-9.53 -3.81,-18.92 -9.59,-26.49 -0.62,-7.1 -2.33,-14.23 -5.67,-20.56 -1.53,0.82 -3.03,1.7 -4.52,2.6 l -0.3,-0.85 c -1.75,0.53 -4.11,0.46 -5.19,2.13 2.19,6.97 6.42,13.12 10.33,19.23 -0.84,9.98 3.37,20.04 10.44,27 -0.9,9.77 3.47,19.39 9.08,27.16 -0.07,7.56 0.58,15.3 3.45,22.36 -0.61,1.25 -1.75,2.39 -1.63,3.89 -0.02,16.68 0.02,33.36 0,50.05 13.33,0.05 26.66,0 39.99,0.01 0.02,-17.34 0.01,-34.67 0,-52.01 -1.96,-1.09 -4.35,-1.76 -5.59,-3.78 2.5,-6.37 3.03,-13.41 2.76,-20.2 5.94,-8.07 9.76,-17.87 9.69,-27.98 6.83,-6.9 10.75,-16.78 10.02,-26.52 3.83,-6.38 8.78,-12.59 10.11,-20.06 -1.65,-0.45 -3.29,-0.89 -4.94,-1.34 -0.09,0.24 -0.27,0.72 -0.37,0.96 -1.53,-0.68 -2.98,-2.71 -4.79,-2.11 -3.1,6.1 -5,12.99 -5.17,19.83 -0.25,0.25 -0.75,0.76 -1,1.01 -4.99,7.52 -8.69,16.28 -8.59,25.44 -6.67,8.26 -11.97,18.74 -11.02,29.64 -0.98,1.67 -2.08,3.28 -3.46,4.66 -0.31,-2.82 -0.95,-5.6 -1.82,-8.3 3.85,-8.98 5.92,-19.46 3.05,-29 5.23,-8.25 7.07,-18.97 3.96,-28.31 2.69,-7 5.09,-14.19 6.04,-21.66 -1.78,-0.26 -3.57,-0.52 -5.34,-0.78 l -0.25,1.16 c -1.8,-0.55 -3.61,-1.05 -5.48,-1.17 -1.24,6.9 -1.86,14 -0.64,20.96 -4.21,8.86 -4.78,18.89 -3.69,28.51 -4.35,9.28 -6.66,20.01 -4.17,30.14 l 0.69,-0.77 c -0.82,2.69 -1.78,5.34 -2.85,7.95 -0.18,-2.31 -0.78,-4.55 -1.41,-6.76 3.45,-10.25 0.49,-21.56 -3.96,-31.04 1.64,-9.18 0.63,-18.89 -3.21,-27.42 0.44,-7.27 0.93,-14.74 -1.2,-21.81 -1.58,0.42 -3.17,0.81 -4.75,1.19 -1.8,-1.15 -3.93,-0.44 -5.89,-0.31 m 35.87,176.43 c -3.14,6.21 -6.72,12.28 -9.12,18.82 2.2,-0.35 2.73,-2.7 3.71,-4.31 2.41,-5.14 5.34,-10.04 7.38,-15.34 -0.49,0.21 -1.48,0.62 -1.97,0.83 M 265.8,261 c -2.48,3.91 0.22,10.15 5.13,10.05 1.85,0.07 5.23,-0.33 4.33,-2.96 -1.94,0.63 -4.06,1.85 -6.06,0.7 -3.45,-1.8 -3.06,-7.85 0.8,-8.87 1.81,-0.66 3.55,0.48 5.24,0.99 l 0.17,-1.22 c -2.22,-3.11 -7.92,-1.97 -9.61,1.31 m 32.54,-2.9 c -0.06,2.35 -0.13,4.7 -0.23,7.06 2.05,-0.13 4.13,-0.1 6.08,0.62 -0.14,0.72 -0.42,2.18 -0.56,2.9 -1.88,1.2 -3.94,-0.09 -5.82,-0.58 -0.04,4.74 8.96,3.57 8.24,-1.12 0.18,-3.24 -3.62,-3.76 -6.05,-3.89 0.01,-0.81 0.02,-2.43 0.02,-3.24 1.91,-0.08 3.83,-0.18 5.75,-0.28 -0.14,-0.4 -0.41,-1.2 -0.55,-1.6 -2.3,0 -4.59,0.01 -6.88,0.13 m 20.98,0.05 c -0.04,2.36 -0.11,4.72 -0.19,7.09 2.02,-0.16 4.12,-0.32 6,0.62 -0.09,0.77 -0.28,2.31 -0.38,3.08 -2.06,0.38 -4.05,-0.11 -5.97,-0.83 0.08,4.75 8.97,3.54 8.27,-1.15 0.16,-3.23 -3.62,-3.73 -6.04,-3.87 0,-0.81 -0.01,-2.42 -0.01,-3.22 1.97,-0.09 3.93,-0.19 5.9,-0.33 -1.08,-3.01 -5.15,-1.09 -7.58,-1.39 M 287.27,259 c 0.17,1.6 -0.38,2.69 -1.66,3.28 2.04,1.99 1.04,4.97 1.9,7.39 0.78,1.93 3.09,1.2 4.69,1.26 0.01,-1.94 -1.83,-1.67 -3.17,-1.89 -0.02,-1.77 -0.03,-3.53 -0.03,-5.3 1.15,-0.3 2.67,-0.08 3.24,-1.44 -0.81,-0.11 -2.43,-0.33 -3.24,-0.45 0,-0.71 0,-2.14 0,-2.86 -0.43,0.01 -1.3,0.01 -1.73,0.01 m -10.59,4.83 c 1.84,0.26 5.63,-1.27 5.5,1.8 -2.34,-0.1 -5.98,0.02 -6.09,3.15 1.44,3.54 5.24,1.23 7.95,2.21 -0.41,-2.78 1.07,-6.52 -1.53,-8.49 -1.87,-0.96 -4.95,-0.97 -5.83,1.33 m 52.27,3.19 c -0.01,4.04 6.37,5.69 8.33,2.15 -2.31,0 -5.99,1.09 -6.63,-2.11 2.25,-0.06 4.51,-0.06 6.78,-0.06 -0.09,-2.12 -0.98,-4.76 -3.41,-5.01 -2.94,-0.74 -5.38,2.28 -5.07,5.03 z"
           inkscape:connector-curvature="0"
           style="opacity:1;fill:#1a1a1a" />
        <path
           id="path146"
           d="m 421,49 c 53.33,0 106.67,0 160,0 0,80 0,160 0,240 -53.33,0 -106.67,0 -160,0 0,-80 0,-160 0,-240 m 70.5,16.97 c 0.11,0.71 0.33,2.11 0.43,2.81 -0.82,0.01 -2.47,0.01 -3.3,0.01 0.3,6.43 0.63,12.89 1.39,19.29 -0.66,-1.84 -1.56,-3.62 -2.92,-5.03 0.34,-3.07 0.11,-6.2 -1.05,-9.08 -1.58,0 -3.16,0.02 -4.74,0.05 0.13,0.5 0.37,1.5 0.5,2 -0.26,-0.53 -0.79,-1.57 -1.05,-2.1 -1.66,0.11 -3.28,0.46 -4.79,1.16 1.17,3.4 3.31,6.33 6.01,8.67 -1.7,4.98 -0.77,11.07 3.69,14.29 -2.47,5.33 0.35,10.97 4.31,14.64 -2.35,4.3 0.08,8.84 1.52,12.96 -0.48,6.88 0.08,13.81 0.38,20.7 -0.23,-0.25 -0.68,-0.74 -0.91,-0.99 0.79,-5.83 -1.77,-11.89 -6.06,-15.8 1.18,-5.28 -1.71,-10.57 -5.32,-14.22 -0.11,-5.27 -2.35,-10.57 -6.63,-13.79 1.05,-4.63 -0.92,-9.79 -4.42,-12.92 -0.25,-3.06 -0.47,-6.27 -2.32,-8.85 -1.47,0.16 -2.94,0.32 -4.39,0.49 l 0.02,1.2 c -0.91,-1.92 -3.9,-0.77 -4.86,0.53 0.5,3.61 3.85,5.85 6.51,7.94 -1.14,5.16 0.61,11.09 5.4,13.78 -1.69,5.62 1.6,10.86 6.06,14.01 -1.74,5.16 1.18,10.59 5.24,13.72 -1.21,5.09 0.48,10.7 3.99,14.52 -0.07,4.53 1.02,8.92 2.49,13.17 -0.24,8.95 0.29,17.96 0.91,26.9 -0.27,0.52 -0.81,1.58 -1.08,2.1 -6.35,-18.22 -12.6,-36.48 -19.15,-54.63 -0.97,-2.63 -4.86,-1.29 -3.62,1.44 6.87,20.58 14.5,40.93 21.26,61.56 -0.6,1.42 -1.12,2.91 -1.01,4.49 0.02,12.33 -0.01,24.66 0.02,37 10.32,0.02 20.64,0 30.96,0.01 0.08,-13.35 -0.01,-26.71 0.05,-40.06 -1.02,-0.54 -2.01,-1.12 -3.05,-1.57 0.14,-12.94 -0.14,-25.88 0.14,-38.82 0.48,-1.9 0.87,-3.83 1.12,-5.78 1.03,-1.64 2.18,-3.28 2.62,-5.2 0.41,-0.54 1.22,-1.6 1.62,-2.13 8.99,-17.38 17.95,-34.76 27.03,-52.09 0.54,-0.95 2.01,-4.05 -0.43,-3.39 -7.37,12.49 -13.19,25.89 -20.45,38.45 0.67,-2.98 0.89,-6.09 0.43,-9.11 4.28,-4.07 5.5,-10.58 4.21,-16.18 3.43,-4.8 5.24,-10.79 4.35,-16.69 1.05,-1.12 2.16,-2.24 2.87,-3.64 -0.4,-2.22 -2.9,-1.5 -4.5,-1.85 -1.89,-0.07 -4.64,-0.81 -5.68,1.33 -0.18,1.57 0.5,3.07 0.93,4.56 -3.2,4.41 -4.37,10.18 -3.06,15.48 -3.95,4.7 -5.44,11.23 -4.24,17.22 -2.09,1.84 -3.35,4.35 -4.55,6.81 -0.39,-1.5 -0.76,-2.98 -1.15,-4.47 2.77,-6.35 3.09,-13.71 1.24,-20.36 3.25,-6.05 3.23,-13.49 0.81,-19.82 0.99,-1.82 1.51,-3.82 1.96,-5.83 -1.38,-1.5 -3.34,-1.59 -5.16,-1 -1.32,-1.31 -3.21,-1.51 -4.94,-1.8 -0.4,3.48 1.16,6.67 2.75,9.65 -1.28,2.76 -2,5.74 -2.06,8.78 -0.9,-8.24 -1.39,-16.53 -1.9,-24.8 -2.38,-0.45 -4.69,0.46 -6.98,0.95 -2.49,-0.17 -4.97,-0.38 -7.45,-0.67 m 22.22,192 c -2.41,5.11 -5.22,10.02 -7.43,15.21 l 1.64,-0.35 c 3.7,-6.08 6.74,-12.61 9.68,-19.1 -2.46,0 -2.9,2.59 -3.89,4.24 m -49.77,6 c -0.59,3.94 3.1,7.78 7.1,7.07 1.49,-0.06 4.27,-0.9 3.15,-2.97 -2.21,1.03 -5.3,2.09 -7.12,-0.21 -2.93,-2.82 -0.46,-9.07 3.86,-8.01 1.17,-0.13 3.23,1.97 3.64,-0.02 -3.02,-4.22 -10.92,-1.09 -10.63,4.14 m 35.21,-4.88 c -2.97,3.1 -2.96,9.38 1.03,11.67 3.11,1.41 7.32,-1.13 6.67,-4.71 -1.15,-3.45 -5.32,-3.69 -8.08,-2.14 0.45,-1.19 0.77,-2.44 1.49,-3.5 1.88,-1.46 4.04,-0.1 5.9,0.62 0.48,-3.64 -5,-3.92 -7.01,-1.94 M 521,259.07 c -3.06,3.05 -3.04,9.57 1.06,11.73 3.48,1.65 7.75,-2.81 5.31,-6.03 -1.39,-2.37 -4.35,-1.94 -6.51,-1.07 0.34,-1.39 0.37,-3.58 2.22,-3.82 1.47,-0.65 2.79,0.77 4.18,1.12 0.76,-3.37 -4.45,-3.93 -6.26,-1.93 m -34.76,-0.06 c -0.08,1.52 -0.08,3.19 -1.98,3.4 0.59,0.52 1.18,1.05 1.77,1.58 0.25,2.34 -0.74,5.67 1.87,7.01 1.42,0.08 3.43,0.42 3.14,-1.65 -0.75,-0.05 -2.27,-0.14 -3.02,-0.19 -0.02,-1.81 -0.02,-3.63 -0.02,-5.44 1.08,-0.23 2.16,-0.47 3.24,-0.71 -0.87,-0.84 -1.95,-1.24 -3.24,-1.21 0,-0.7 0,-2.11 0,-2.81 -0.44,0 -1.32,0.01 -1.76,0.02 m -9.67,5.01 c 1.94,-0.11 4.98,-1.05 5.65,1.6 -2.42,-0.21 -6.86,-0.13 -6.23,3.45 1.39,3.16 5.21,1.42 7.86,1.75 -0.33,-2.89 0.89,-6.84 -2.07,-8.69 -1.91,-0.32 -4.79,-0.68 -5.21,1.89 m 53.02,0.03 c 2.17,-0.29 4.71,-1.06 6.13,1.24 -2.49,0.44 -7.2,0.03 -6.74,3.81 1.27,2.34 4.1,2.16 6.28,1.32 0.44,0.2 1.31,0.6 1.74,0.8 -0.37,-3 1.31,-7.36 -2.07,-9.08 -1.93,-0.29 -4.91,-0.67 -5.34,1.91 z"
           inkscape:connector-curvature="0"
           style="opacity:1;fill:#1a1a1a" />
        <path
           id="path148"
           d="m 507.92,102.94 c -0.34,-1.98 -0.02,-3.95 0.69,-5.81 0.41,1.37 0.88,2.72 1.29,4.09 -0.5,0.76 -1.16,1.34 -1.98,1.72 z"
           inkscape:connector-curvature="0"
           style="opacity:1;fill:#1a1a1a" />
        <path
           id="path150"
           d="m 293.25,136.83 c 0.96,3.43 1.53,6.95 1.84,10.5 -1.48,-3.3 -1.71,-6.94 -1.84,-10.5 z"
           inkscape:connector-curvature="0"
           style="opacity:1;fill:#1a1a1a" />
        <path
           id="path152"
           d="m 331,265.68 c 0.08,-2.6 3.8,-2.77 4.5,-0.37 -1.5,0.16 -3,0.27 -4.5,0.37 z"
           inkscape:connector-curvature="0"
           style="opacity:1;fill:#1a1a1a" />
        <path
           id="path154"
           d="m 501.63,264.77 c 1.36,-0.15 3.55,0.31 3.38,2.11 0.07,2.81 -4.81,3.27 -5.51,0.64 -0.73,-1.27 0.94,-2.62 2.13,-2.75 z"
           inkscape:connector-curvature="0"
           style="opacity:1;fill:#1a1a1a" />
        <path
           id="path156"
           d="m 523.65,264.72 c 3.32,-0.54 3.21,5.01 -0.02,4.62 -3.24,0.1 -3.39,-4.91 0.02,-4.62 z"
           inkscape:connector-curvature="0"
           style="opacity:1;fill:#1a1a1a" />
        <path
           id="path158"
           d="m 92.11,267.17 c 1.33,-0.06 2.65,-0.11 3.98,-0.14 0.24,2.31 -2.08,2.45 -3.76,2.69 -0.06,-0.64 -0.16,-1.92 -0.22,-2.55 z"
           inkscape:connector-curvature="0"
           style="opacity:1;fill:#1a1a1a" />
        <path
           id="path160"
           d="m 277.71,269.02 c 0.19,-2.54 2.89,-1.79 4.62,-2.06 0.47,2.91 -2.76,2.86 -4.62,2.06 z"
           inkscape:connector-curvature="0"
           style="opacity:1;fill:#1a1a1a" />
        <path
           id="path162"
           d="m 530.91,269 c -0.43,-3.01 3.19,-1.88 4.91,-1.38 -1.07,1.66 -3.11,2.6 -4.91,1.38 z"
           inkscape:connector-curvature="0"
           style="opacity:1;fill:#1a1a1a" />
      </g>
      <g
         id="#b3b3b3ff">
        <path
           id="path165"
           d="m 491.5,65.97 c 2.48,0.29 4.96,0.5 7.45,0.67 0.48,15.11 1.14,30.22 2.39,45.3 0.43,3.69 0.66,7.41 0.4,11.13 -3.54,-18.04 -6.58,-36.18 -9.81,-54.29 -0.1,-0.7 -0.32,-2.1 -0.43,-2.81 z"
           inkscape:connector-curvature="0"
           style="opacity:1;fill:#b3b3b3" />
      </g>
      <g
         id="#ccccccff">
        <path
           id="path168"
           d="m 498.95,66.64 c 2.29,-0.49 4.6,-1.4 6.98,-0.95 0.51,8.27 1,16.56 1.9,24.8 0.26,2.22 0.54,4.43 0.78,6.64 -0.71,1.86 -1.03,3.83 -0.69,5.81 -0.98,5.81 -1.75,11.95 0.69,17.53 -3.71,6.24 -3.71,14.09 -1.82,20.92 -0.68,1.58 -1.34,3.16 -1.9,4.79 -0.86,-1.46 -1.7,-2.92 -2.63,-4.33 1.82,-5.4 0.03,-11.27 -3.29,-15.69 0.63,-5.5 -0.64,-11.14 -4.19,-15.46 0.64,-4.78 -0.66,-9.68 -3.92,-13.27 -0.01,-3.14 -0.23,-6.28 -0.84,-9.35 -0.76,-6.4 -1.09,-12.86 -1.39,-19.29 0.83,0 2.48,0 3.3,-0.01 3.23,18.11 6.27,36.25 9.81,54.29 0.26,-3.72 0.03,-7.44 -0.4,-11.13 -1.25,-15.08 -1.91,-30.19 -2.39,-45.3 z"
           inkscape:connector-curvature="0"
           style="opacity:1;fill:#cccccc" />
        <path
           id="path170"
           d="m 491.5,125.64 c 0.39,0.31 1.16,0.92 1.54,1.23 -0.67,5.31 -0.46,11.08 3.04,15.45 -0.67,4.31 -0.94,9.21 1.49,13.03 1.61,0.12 3.21,-0.07 4.82,-0.11 0.58,0 1.72,0.01 2.29,0.02 1.39,0.18 2.77,0.43 4.16,0.64 l 0.17,-0.62 c 1.03,0.76 2.06,1.51 3.1,2.27 -0.28,12.94 0,25.88 -0.14,38.82 -7.69,-3.27 -16.42,-2.65 -24.22,-0.13 0.09,-3.4 0.27,-6.82 -0.16,-10.21 -0.62,-8.94 -1.15,-17.95 -0.91,-26.9 1.74,-0.8 3.43,-1.7 5.16,-2.53 1.5,-0.04 2.95,-0.35 4.42,-0.65 -0.96,-3.41 -2.47,-6.63 -4.38,-9.61 -0.3,-6.89 -0.86,-13.82 -0.38,-20.7 z"
           inkscape:connector-curvature="0"
           style="opacity:1;fill:#cccccc" />
      </g>
      <g
         id="#0071bcff">
        <path
           id="path173"
           d="m 507.14,72.06 c 1.73,0.29 3.62,0.49 4.94,1.8 1.2,2.21 2.22,4.51 3.2,6.83 2.42,6.33 2.44,13.77 -0.81,19.82 -1.28,-3.76 -2.47,-7.6 -2.52,-11.6 -0.02,-2.55 -0.85,-4.99 -2.06,-7.2 -1.59,-2.98 -3.15,-6.17 -2.75,-9.65 z"
           inkscape:connector-curvature="0"
           style="opacity:1;fill:#0071bc" />
        <path
           id="path175"
           d="m 316.28,78.64 0.25,-1.16 c 1.77,0.26 3.56,0.52 5.34,0.78 -0.95,7.47 -3.35,14.66 -6.04,21.66 -2.12,5.16 -4.04,10.46 -4.73,16.02 -0.34,4.08 -2.69,7.53 -4.63,11 -1.09,-9.62 -0.52,-19.65 3.69,-28.51 3.02,-6.25 5.08,-12.93 6.12,-19.79 z"
           inkscape:connector-curvature="0"
           style="opacity:1;fill:#0071bc" />
        <path
           id="path177"
           d="m 507.92,102.94 c 0.82,-0.38 1.48,-0.96 1.98,-1.72 1.78,6.42 0.93,13.32 3.33,19.65 0.39,1.49 0.76,2.97 1.15,4.47 -1.81,3.76 -3.27,7.69 -4.28,11.74 0.04,-5.55 0.64,-11.33 -1.49,-16.61 -2.44,-5.58 -1.67,-11.72 -0.69,-17.53 z"
           inkscape:connector-curvature="0"
           style="opacity:1;fill:#0071bc" />
        <path
           id="path179"
           d="m 302.99,156.31 c 4.7,-8.83 3.26,-19.61 8.88,-28.08 2.87,9.54 0.8,20.02 -3.05,29 -3.4,7.53 -2.05,15.92 -3.74,23.76 -0.46,0.02 -1.39,0.05 -1.85,0.07 -0.97,-5.61 -2.78,-11.09 -3.09,-16.8 1.07,-2.61 2.03,-5.26 2.85,-7.95 z"
           inkscape:connector-curvature="0"
           style="opacity:1;fill:#0071bc" />
        <path
           id="path181"
           d="m 504.89,146.18 c 0.56,-1.63 1.22,-3.21 1.9,-4.79 1.35,4.5 2.5,9.15 2.22,13.89 l -0.17,0.62 c -1.39,-0.21 -2.77,-0.46 -4.16,-0.64 -0.18,-3.03 -0.27,-6.08 0.21,-9.08 z"
           inkscape:connector-curvature="0"
           style="opacity:1;fill:#0071bc" />
      </g>
      <g
         id="#006837ff">
        <path
           id="path184"
           d="m 110.47,77.64 c -0.47,-3.23 3.95,-4.48 5.2,-1.44 0.1,6.8 -0.79,13.89 -3.31,20.24 -1.86,-6.08 -1.92,-12.5 -1.89,-18.8 z"
           inkscape:connector-curvature="0"
           style="opacity:1;fill:#006837" />
        <path
           id="path186"
           d="m 456.99,81.99 c 0.96,-1.3 3.95,-2.45 4.86,-0.53 1.66,2.86 4.19,5.05 6.69,7.16 3.5,3.13 5.47,8.29 4.42,12.92 -4.71,-2.65 -4.64,-9.01 -9.46,-11.61 -2.66,-2.09 -6.01,-4.33 -6.51,-7.94 z"
           inkscape:connector-curvature="0"
           style="opacity:1;fill:#006837" />
        <path
           id="path188"
           d="m 251.33,88.29 c 1.08,-1.67 3.44,-1.6 5.19,-2.13 l 0.3,0.85 c 2.13,6.62 5.98,12.49 10.19,17.96 5.78,7.57 9.22,16.96 9.59,26.49 -2.53,-2.88 -5.63,-5.55 -6.74,-9.35 -1.79,-5.34 -4.99,-10.02 -8.2,-14.59 -3.91,-6.11 -8.14,-12.26 -10.33,-19.23 z"
           inkscape:connector-curvature="0"
           style="opacity:1;fill:#006837" />
        <path
           id="path190"
           d="m 108.28,104.07 c 0.26,-0.36 0.79,-1.08 1.06,-1.44 0.18,7.61 -1.05,15.53 1.36,22.9 1.15,3.35 0.45,6.94 0.44,10.4 -0.39,6.08 -0.22,12.31 -2.15,18.17 -2.27,-5.79 -2.05,-12.14 -2.55,-18.25 -0.49,-10.58 -0.88,-21.45 1.84,-31.78 z"
           inkscape:connector-curvature="0"
           style="opacity:1;fill:#006837" />
        <path
           id="path192"
           d="m 468.9,103.71 c 2.39,1.49 3.8,3.96 5.23,6.3 1.31,2.23 3.54,3.66 5.46,5.32 3.61,3.65 6.5,8.94 5.32,14.22 -4.7,-2.75 -5.8,-8.54 -9.95,-11.83 -4.46,-3.15 -7.75,-8.39 -6.06,-14.01 z"
           inkscape:connector-curvature="0"
           style="opacity:1;fill:#006837" />
        <path
           id="path194"
           d="m 480.2,131.44 c 5.12,3.45 5.67,10.38 10.77,13.91 0.23,0.25 0.68,0.74 0.91,0.99 1.91,2.98 3.42,6.2 4.38,9.61 -1.47,0.3 -2.92,0.61 -4.42,0.65 -1.03,-4.5 -4.41,-7.65 -7.65,-10.64 -3.51,-3.82 -5.2,-9.43 -3.99,-14.52 z"
           inkscape:connector-curvature="0"
           style="opacity:1;fill:#006837" />
        <path
           id="path196"
           d="m 272.1,134.52 c 4,4.17 6.69,9.4 8.61,14.81 1.44,4.39 4.58,7.89 6.91,11.82 4.17,5.43 1.58,12.72 3.27,18.93 0.1,0.67 0.3,2 0.39,2.66 -0.32,0.12 -0.95,0.35 -1.27,0.46 -3.31,-7.02 -3.83,-15.25 -8.83,-21.52 -5.61,-7.77 -9.98,-17.39 -9.08,-27.16 z"
           inkscape:connector-curvature="0"
           style="opacity:1;fill:#006837" />
        <path
           id="path198"
           d="m 106.05,161.78 c 1.14,9.55 1.48,19.19 2.82,28.72 1.43,5.89 3.31,11.82 2.11,17.95 -0.86,-0.18 -2.6,-0.54 -3.46,-0.72 -0.85,-6.06 -1.24,-12.18 -2.35,-18.2 -0.93,-4.44 -0.5,-9 -0.59,-13.51 0.11,-4.76 0.04,-9.64 1.47,-14.24 z"
           inkscape:connector-curvature="0"
           style="opacity:1;fill:#006837" />
      </g>
      <g
         id="#f15a24ff">
        <path
           id="path201"
           d="m 475.97,75.08 c 1.51,-0.7 3.13,-1.05 4.79,-1.16 0.26,0.53 0.79,1.57 1.05,2.1 1.3,2.65 3.33,4.84 5.29,7.03 1.36,1.41 2.26,3.19 2.92,5.03 0.61,3.07 0.83,6.21 0.84,9.35 -1.42,-1.61 -2.88,-3.18 -4.28,-4.79 -0.36,-3.46 -1.93,-6.64 -4.6,-8.89 -2.7,-2.34 -4.84,-5.27 -6.01,-8.67 z"
           inkscape:connector-curvature="0"
           style="opacity:1;fill:#f15a24" />
        <path
           id="path203"
           d="m 82.5,75.45 c 1.39,-0.54 2.98,-0.23 3.91,0.99 1.19,4.07 0.97,8.37 1.2,12.56 0.09,2.61 0.5,5.32 -0.61,7.8 -2.72,-4.68 -3.66,-10.05 -5.15,-15.19 -0.4,-2.01 -1.01,-4.52 0.65,-6.16 z"
           inkscape:connector-curvature="0"
           style="opacity:1;fill:#f15a24" />
        <path
           id="path205"
           d="m 279.72,78.11 c 1.96,-0.13 4.09,-0.84 5.89,0.31 0.17,7.28 3.02,14.08 5.95,20.62 3.84,8.53 4.85,18.24 3.21,27.42 -2.06,-3.53 -4.35,-7.16 -4.61,-11.36 -0.56,-5.59 -2.85,-10.77 -4.77,-15.98 -2.64,-6.76 -4.97,-13.75 -5.67,-21.01 z"
           inkscape:connector-curvature="0"
           style="opacity:1;fill:#f15a24" />
        <path
           id="path207"
           d="m 485.67,98.04 c 3.88,3.61 4.69,9.43 9.11,12.66 3.55,4.32 4.82,9.96 4.19,15.46 -4.65,-3.38 -5.06,-9.55 -8.99,-13.48 -3.96,-3.67 -6.78,-9.31 -4.31,-14.64 z"
           inkscape:connector-curvature="0"
           style="opacity:1;fill:#f15a24" />
        <path
           id="path209"
           d="m 84.27,108.01 c -0.05,-1.57 0.14,-3.16 0.9,-4.57 1.69,7.43 1.92,15.48 5.78,22.22 1.19,1.85 1.31,4.12 1.75,6.22 1.22,7.43 2.66,14.95 2.17,22.52 -3.11,-4.64 -4.1,-10.25 -5.65,-15.52 -2.55,-10.11 -4.76,-20.4 -4.95,-30.87 z"
           inkscape:connector-curvature="0"
           style="opacity:1;fill:#f15a24" />
        <path
           id="path211"
           d="m 493.04,126.87 c 5.35,3.44 4.7,10.79 9.22,14.98 0.93,1.41 1.77,2.87 2.63,4.33 -0.48,3 -0.39,6.05 -0.21,9.08 -0.57,-0.01 -1.71,-0.02 -2.29,-0.02 -0.28,-5.03 -2.87,-9.4 -6.31,-12.92 -3.5,-4.37 -3.71,-10.14 -3.04,-15.45 z"
           inkscape:connector-curvature="0"
           style="opacity:1;fill:#f15a24" />
        <path
           id="path213"
           d="m 289.36,127.83 c 1.71,2.79 3.06,5.82 3.89,9 0.13,3.56 0.36,7.2 1.84,10.5 1.29,3.36 2.62,6.71 3.64,10.17 0.63,2.21 1.23,4.45 1.41,6.76 0.31,5.71 2.12,11.19 3.09,16.8 -2.1,0.11 -4.2,0.3 -6.28,0.58 -1.14,-3.43 -1.83,-6.99 -1.67,-10.62 0.17,-4.83 -1.42,-9.43 -2.21,-14.14 -0.17,-0.13 -0.52,-0.41 -0.7,-0.54 l -0.27,-0.21 c -3.58,-8.91 -4.91,-18.87 -2.74,-28.3 z"
           inkscape:connector-curvature="0"
           style="opacity:1;fill:#f15a24" />
        <path
           id="path215"
           d="m 93.16,161.72 c 3.07,9.48 5.3,19.24 8.63,28.64 0.56,1.44 1.25,2.81 1.94,4.2 0.16,0.31 0.47,0.92 0.62,1.23 -0.36,2.86 -0.81,5.72 -1.57,8.51 -1.86,-5.03 -3.14,-10.24 -5.14,-15.21 -3.21,-8.71 -4.27,-18.13 -4.48,-27.37 z"
           inkscape:connector-curvature="0"
           style="opacity:1;fill:#f15a24" />
      </g>
      <g
         id="#896541ff">
        <path
           id="path218"
           d="m 530.98,79.94 c 1.6,0.35 4.1,-0.37 4.5,1.85 -0.71,1.4 -1.82,2.52 -2.87,3.64 -0.48,-1.85 -1.07,-3.66 -1.63,-5.49 z"
           inkscape:connector-curvature="0"
           style="opacity:1;fill:#896541" />
      </g>
      <g
         id="#8c6239ff">
        <path
           id="path221"
           d="m 345.04,86.1 c 1.65,0.45 3.29,0.89 4.94,1.34 -1.33,7.47 -6.28,13.68 -10.11,20.06 -3.14,4.49 -6.33,9.04 -8.1,14.27 -1.15,3.8 -4.01,6.65 -6.65,9.46 -0.1,-9.16 3.6,-17.92 8.59,-25.44 0.25,-0.25 0.75,-0.76 1,-1.01 4.08,-5.43 7.79,-11.24 9.96,-17.72 0.1,-0.24 0.28,-0.72 0.37,-0.96 z"
           inkscape:connector-curvature="0"
           style="opacity:1;fill:#8c6239" />
        <path
           id="path223"
           d="m 526.23,85.83 c 2.38,5.22 -0.48,11.1 2.03,16.29 1.29,5.6 0.07,12.11 -4.21,16.18 -1.77,-5.63 1.29,-11.44 -0.88,-16.99 -1.31,-5.3 -0.14,-11.07 3.06,-15.48 z"
           inkscape:connector-curvature="0"
           style="opacity:1;fill:#8c6239" />
        <path
           id="path225"
           d="m 514.38,125.34 c 1.2,-2.46 2.46,-4.97 4.55,-6.81 0.43,2.09 0.75,4.28 -0.03,6.34 -1.2,3.62 -1.43,7.43 -1.28,11.22 0.12,3.58 -1.05,7.01 -1.77,10.48 -0.44,1.92 -1.59,3.56 -2.62,5.2 -0.78,-4.95 -3.17,-9.61 -3.13,-14.69 1.01,-4.05 2.47,-7.98 4.28,-11.74 z"
           inkscape:connector-curvature="0"
           style="opacity:1;fill:#8c6239" />
        <path
           id="path227"
           d="m 320.37,150.09 c 2.08,-5.9 5.05,-11.59 9.48,-16.07 0.07,10.11 -3.75,19.91 -9.69,27.98 -4.54,5.79 -5.33,13.23 -8.01,19.82 -0.44,-0.08 -1.33,-0.23 -1.77,-0.3 0.72,-5.3 0.89,-10.68 0.26,-15.99 1.38,-1.38 2.48,-2.99 3.46,-4.66 2.08,-3.6 4.91,-6.8 6.27,-10.78 z"
           inkscape:connector-curvature="0"
           style="opacity:1;fill:#8c6239" />
      </g>
      <g
         id="#5f5f5fff">
        <path
           id="path230"
           d="m 544.07,88.96 c 2.44,-0.66 0.97,2.44 0.43,3.39 -9.08,17.33 -18.04,34.71 -27.03,52.09 -0.4,0.53 -1.21,1.59 -1.62,2.13 0.72,-3.47 1.89,-6.9 1.77,-10.48 2.56,-2.47 4.71,-5.34 6,-8.68 7.26,-12.56 13.08,-25.96 20.45,-38.45 z"
           inkscape:connector-curvature="0"
           style="opacity:1;fill:#5f5f5f" />
      </g>
      <g
         id="#808080ff">
        <path
           id="path233"
           d="m 463.74,134.94 c -1.24,-2.73 2.65,-4.07 3.62,-1.44 6.55,18.15 12.8,36.41 19.15,54.63 0.27,-0.52 0.81,-1.58 1.08,-2.1 0.43,3.39 0.25,6.81 0.16,10.21 -0.92,0.12 -1.84,0.18 -2.75,0.26 -6.76,-20.63 -14.39,-40.98 -21.26,-61.56 z"
           inkscape:connector-curvature="0"
           style="opacity:1;fill:#808080" />
      </g>
      <g
         id="#e1733aff">
        <path
           id="path236"
           d="m 315.59,254.54 c 0.49,-0.21 1.48,-0.62 1.97,-0.83 -2.04,5.3 -4.97,10.2 -7.38,15.34 -0.98,1.61 -1.51,3.96 -3.71,4.31 2.4,-6.54 5.98,-12.61 9.12,-18.82 z"
           inkscape:connector-curvature="0"
           style="opacity:1;fill:#e1733a" />
      </g>
      <g
         id="#e8c247ff">
        <path
           id="path239"
           d="m 513.72,257.97 c 0.99,-1.65 1.43,-4.24 3.89,-4.24 -2.94,6.49 -5.98,13.02 -9.68,19.1 l -1.64,0.35 c 2.21,-5.19 5.02,-10.1 7.43,-15.21 z"
           inkscape:connector-curvature="0"
           style="opacity:1;fill:#e8c247" />
      </g>
      <g
         id="#c51842ff">
        <path
           id="path242"
           d="m 80.98,258.97 c 2.33,-1.64 7.08,-1.72 8,1.54 -2.47,-0.2 -5.9,-1.81 -7.71,0.72 -2.36,2.27 -1.3,6.7 1.72,7.78 1.98,0.65 3.94,-0.4 5.86,-0.8 -0.03,3.18 -4.46,3.24 -6.69,2.49 -4.73,-1.82 -5.44,-9 -1.18,-11.73 z"
           inkscape:connector-curvature="0"
           style="opacity:1;fill:#c51842" />
      </g>
      <g
         id="#c71742ff">
        <path
           id="path245"
           d="m 111.39,258.16 c 2.78,-0.34 5.6,-0.17 8.4,-0.14 -0.65,2.09 -2.11,3.73 -3.5,5.35 2.06,0.54 4.18,2.2 3.53,4.6 -0.99,3.91 -7.48,4.32 -8.81,0.53 2.19,0.15 5.27,1.69 6.94,-0.49 0.88,-2.87 -2.73,-3.01 -4.59,-3.21 0.83,-1.77 1.94,-3.38 3.14,-4.92 -1.82,-0.09 -3.63,-0.18 -5.44,-0.27 0.09,-0.36 0.25,-1.09 0.33,-1.45 z"
           inkscape:connector-curvature="0"
           style="opacity:1;fill:#c71742" />
      </g>
      <g
         id="#ce6a37ff">
        <path
           id="path248"
           d="m 265.8,261 c 1.69,-3.28 7.39,-4.42 9.61,-1.31 l -0.17,1.22 c -1.69,-0.51 -3.43,-1.65 -5.24,-0.99 -3.86,1.02 -4.25,7.07 -0.8,8.87 2,1.15 4.12,-0.07 6.06,-0.7 0.9,2.63 -2.48,3.03 -4.33,2.96 -4.91,0.1 -7.61,-6.14 -5.13,-10.05 z"
           inkscape:connector-curvature="0"
           style="opacity:1;fill:#ce6a37" />
      </g>
      <g
         id="#c56636ff">
        <path
           id="path251"
           d="m 298.34,258.1 c 2.29,-0.12 4.58,-0.13 6.88,-0.13 0.14,0.4 0.41,1.2 0.55,1.6 -1.92,0.1 -3.84,0.2 -5.75,0.28 0,0.81 -0.01,2.43 -0.02,3.24 2.43,0.13 6.23,0.65 6.05,3.89 0.72,4.69 -8.28,5.86 -8.24,1.12 1.88,0.49 3.94,1.78 5.82,0.58 0.14,-0.72 0.42,-2.18 0.56,-2.9 -1.95,-0.72 -4.03,-0.75 -6.08,-0.62 0.1,-2.36 0.17,-4.71 0.23,-7.06 z"
           inkscape:connector-curvature="0"
           style="opacity:1;fill:#c56636" />
        <path
           id="path253"
           d="m 319.32,258.15 c 2.43,0.3 6.5,-1.62 7.58,1.39 -1.97,0.14 -3.93,0.24 -5.9,0.33 0,0.8 0.01,2.41 0.01,3.22 2.42,0.14 6.2,0.64 6.04,3.87 0.7,4.69 -8.19,5.9 -8.27,1.15 1.92,0.72 3.91,1.21 5.97,0.83 0.1,-0.77 0.29,-2.31 0.38,-3.08 -1.88,-0.94 -3.98,-0.78 -6,-0.62 0.08,-2.37 0.15,-4.73 0.19,-7.09 z"
           inkscape:connector-curvature="0"
           style="opacity:1;fill:#c56636" />
      </g>
      <g
         id="#d8b543ff">
        <path
           id="path256"
           d="m 463.95,263.97 c -0.29,-5.23 7.61,-8.36 10.63,-4.14 -0.41,1.99 -2.47,-0.11 -3.64,0.02 -4.32,-1.06 -6.79,5.19 -3.86,8.01 1.82,2.3 4.91,1.24 7.12,0.21 1.12,2.07 -1.66,2.91 -3.15,2.97 -4,0.71 -7.69,-3.13 -7.1,-7.07 z"
           inkscape:connector-curvature="0"
           style="opacity:1;fill:#d8b543" />
      </g>
      <g
         id="#d6b343ff">
        <path
           id="path259"
           d="m 499.16,259.09 c 2.01,-1.98 7.49,-1.7 7.01,1.94 -1.86,-0.72 -4.02,-2.08 -5.9,-0.62 -0.72,1.06 -1.04,2.31 -1.49,3.5 2.76,-1.55 6.93,-1.31 8.08,2.14 0.65,3.58 -3.56,6.12 -6.67,4.71 -3.99,-2.29 -4,-8.57 -1.03,-11.67 m 2.47,5.68 c -1.19,0.13 -2.86,1.48 -2.13,2.75 0.7,2.63 5.58,2.17 5.51,-0.64 0.17,-1.8 -2.02,-2.26 -3.38,-2.11 z"
           inkscape:connector-curvature="0"
           style="opacity:1;fill:#d6b343" />
      </g>
      <g
         id="#e2bd46ff">
        <path
           id="path262"
           d="m 521,259.07 c 1.81,-2 7.02,-1.44 6.26,1.93 -1.39,-0.35 -2.71,-1.77 -4.18,-1.12 -1.85,0.24 -1.88,2.43 -2.22,3.82 2.16,-0.87 5.12,-1.3 6.51,1.07 2.44,3.22 -1.83,7.68 -5.31,6.03 -4.1,-2.16 -4.12,-8.68 -1.06,-11.73 m 2.65,5.65 c -3.41,-0.29 -3.26,4.72 -0.02,4.62 3.23,0.39 3.34,-5.16 0.02,-4.62 z"
           inkscape:connector-curvature="0"
           style="opacity:1;fill:#e2bd46" />
      </g>
      <g
         id="#d51745ff">
        <path
           id="path265"
           d="m 101.01,258.93 c 0.45,0.04 1.36,0.11 1.82,0.15 0.01,0.71 0.02,2.13 0.02,2.84 0.71,0.05 2.13,0.14 2.83,0.19 -0.72,0.92 -1.68,1.52 -2.86,1.79 0.13,2.21 -0.99,6.57 2.81,5.61 l -0.17,1.65 c -1.43,-0.32 -3.43,0.18 -4.23,-1.42 -0.43,-1.96 -0.22,-3.98 -0.26,-5.96 -0.51,-0.28 -1.53,-0.83 -2.04,-1.11 0.51,-0.24 1.51,-0.71 2.01,-0.94 0.02,-0.7 0.05,-2.1 0.07,-2.8 z"
           inkscape:connector-curvature="0"
           style="opacity:1;fill:#d51745" />
      </g>
      <g
         id="#c86736ff">
        <path
           id="path268"
           d="m 287.27,259 c 0.43,0 1.3,0 1.73,-0.01 0,0.72 0,2.15 0,2.86 0.81,0.12 2.43,0.34 3.24,0.45 -0.57,1.36 -2.09,1.14 -3.24,1.44 0,1.77 0.01,3.53 0.03,5.3 1.34,0.22 3.18,-0.05 3.17,1.89 -1.6,-0.06 -3.91,0.67 -4.69,-1.26 -0.86,-2.42 0.14,-5.4 -1.9,-7.39 1.28,-0.59 1.83,-1.68 1.66,-3.28 z"
           inkscape:connector-curvature="0"
           style="opacity:1;fill:#c86736" />
      </g>
      <g
         id="#d4b243ff">
        <path
           id="path271"
           d="m 486.24,259.01 c 0.44,-0.01 1.32,-0.02 1.76,-0.02 0,0.7 0,2.11 0,2.81 1.29,-0.03 2.37,0.37 3.24,1.21 -1.08,0.24 -2.16,0.48 -3.24,0.71 0,1.81 0,3.63 0.02,5.44 0.75,0.05 2.27,0.14 3.02,0.19 0.29,2.07 -1.72,1.73 -3.14,1.65 -2.61,-1.34 -1.62,-4.67 -1.87,-7.01 -0.59,-0.53 -1.18,-1.06 -1.77,-1.58 1.9,-0.21 1.9,-1.88 1.98,-3.4 z"
           inkscape:connector-curvature="0"
           style="opacity:1;fill:#d4b243" />
      </g>
      <g
         id="#c21841ff">
        <path
           id="path274"
           d="m 90.64,264 c 0.28,-2.57 3.29,-2.16 5.14,-1.85 2.94,1.81 1.73,5.74 2.05,8.6 -2.66,-0.15 -6.39,1.38 -7.87,-1.69 -0.51,-3.58 3.76,-3.55 6.2,-3.47 -0.54,-2.64 -3.65,-1.63 -5.52,-1.59 m 1.47,3.17 c 0.06,0.63 0.16,1.91 0.22,2.55 1.68,-0.24 4,-0.38 3.76,-2.69 -1.33,0.03 -2.65,0.08 -3.98,0.14 z"
           inkscape:connector-curvature="0"
           style="opacity:1;fill:#c21841" />
      </g>
      <g
         id="#d66e38ff">
        <path
           id="path277"
           d="m 276.68,263.83 c 0.88,-2.3 3.96,-2.29 5.83,-1.33 2.6,1.97 1.12,5.71 1.53,8.49 -2.71,-0.98 -6.51,1.33 -7.95,-2.21 0.11,-3.13 3.75,-3.25 6.09,-3.15 0.13,-3.07 -3.66,-1.54 -5.5,-1.8 m 1.03,5.19 c 1.86,0.8 5.09,0.85 4.62,-2.06 -1.73,0.27 -4.43,-0.48 -4.62,2.06 z"
           inkscape:connector-curvature="0"
           style="opacity:1;fill:#d66e38" />
      </g>
      <g
         id="#d26c38ff">
        <path
           id="path280"
           d="m 328.95,267.02 c -0.31,-2.75 2.13,-5.77 5.07,-5.03 2.43,0.25 3.32,2.89 3.41,5.01 -2.27,0 -4.53,0 -6.78,0.06 0.64,3.2 4.32,2.11 6.63,2.11 -1.96,3.54 -8.34,1.89 -8.33,-2.15 m 2.05,-1.34 c 1.5,-0.1 3,-0.21 4.5,-0.37 -0.7,-2.4 -4.42,-2.23 -4.5,0.37 z"
           inkscape:connector-curvature="0"
           style="opacity:1;fill:#d26c38" />
      </g>
      <g
         id="#ccab41ff">
        <path
           id="path283"
           d="m 476.57,264.02 c 0.42,-2.57 3.3,-2.21 5.21,-1.89 2.96,1.85 1.74,5.8 2.07,8.69 -2.65,-0.33 -6.47,1.41 -7.86,-1.75 -0.63,-3.58 3.81,-3.66 6.23,-3.45 -0.67,-2.65 -3.71,-1.71 -5.65,-1.6 m 1.19,5.21 c 1.83,0.52 4.69,0.35 4.38,-2.25 -1.87,0.13 -4.63,-0.62 -4.38,2.25 z"
           inkscape:connector-curvature="0"
           style="opacity:1;fill:#ccab41" />
      </g>
      <g
         id="#deba45ff">
        <path
           id="path286"
           d="m 529.59,264.05 c 0.43,-2.58 3.41,-2.2 5.34,-1.91 3.38,1.72 1.7,6.08 2.07,9.08 -0.43,-0.2 -1.3,-0.6 -1.74,-0.8 -2.18,0.84 -5.01,1.02 -6.28,-1.32 -0.46,-3.78 4.25,-3.37 6.74,-3.81 -1.42,-2.3 -3.96,-1.53 -6.13,-1.24 m 1.32,4.95 c 1.8,1.22 3.84,0.28 4.91,-1.38 -1.72,-0.5 -5.34,-1.63 -4.91,1.38 z"
           inkscape:connector-curvature="0"
           style="opacity:1;fill:#deba45" />
      </g>
      <g
         id="#29271dff">
        <path
           id="path289"
           d="m 477.76,269.23 c -0.25,-2.87 2.51,-2.12 4.38,-2.25 0.31,2.6 -2.55,2.77 -4.38,2.25 z"
           inkscape:connector-curvature="0"
           style="opacity:1;fill:#29271d" />
      </g>
    </g>
  </g>
</svg>
