<?xml version="1.0" encoding="UTF-8" standalone="no"?>
<!-- Created with Inkscape (http://www.inkscape.org/) -->
<svg
   xmlns:svg="http://www.w3.org/2000/svg"
   xmlns="http://www.w3.org/2000/svg"
   version="1.0"
   width="443"
   height="289"
   id="svg4464">
  <defs
     id="defs4466">
    <marker
       refX="0"
       refY="0"
       orient="auto"
       style="overflow:visible"
       id="Arrow2Mend">
      <path
         d="M 8.7185878,4.0337352 L -2.2072895,0.016013256 L 8.7185884,-4.0017078 C 6.97309,-1.6296469 6.9831476,1.6157441 8.7185878,4.0337352 z "
         transform="scale(-0.6,-0.6)"
         style="font-size:12px;fill-rule:evenodd;stroke-width:0.625;stroke-linejoin:round"
         id="path4581" />
    </marker>
  </defs>
  <g
     transform="translate(-155.64285,-442.64789)"
     id="layer1">
    <path
       d="M 221.64285,539.16729 L 221.64285,731.64789"
       style="fill:none;fill-rule:evenodd;stroke:#000000;stroke-width:4;stroke-linecap:butt;stroke-linejoin:miter;stroke-miterlimit:4;stroke-dasharray:none;stroke-opacity:1"
       id="path4482" />
    <path
       d="M 254.64285,539.16729 L 254.64285,731.64789"
       style="fill:none;fill-rule:evenodd;stroke:#000000;stroke-width:4;stroke-linecap:butt;stroke-linejoin:miter;stroke-miterlimit:4;stroke-dasharray:none;stroke-opacity:1"
       id="path4484" />
    <path
       d="M 287.64285,539.16729 L 287.64285,731.64789"
       style="fill:none;fill-rule:evenodd;stroke:#000000;stroke-width:4;stroke-linecap:butt;stroke-linejoin:miter;stroke-miterlimit:4;stroke-dasharray:none;stroke-opacity:1"
       id="path4486" />
    <path
       d="M 350.12345,602.64789 L 157.64285,602.64789"
       style="fill:none;fill-rule:evenodd;stroke:#000000;stroke-width:4;stroke-linecap:butt;stroke-linejoin:miter;stroke-miterlimit:4;stroke-dasharray:none;stroke-opacity:1"
       id="path4488" />
    <path
       d="M 350.12345,635.64789 L 157.64285,635.64789"
       style="fill:none;fill-rule:evenodd;stroke:#000000;stroke-width:4;stroke-linecap:butt;stroke-linejoin:miter;stroke-miterlimit:4;stroke-dasharray:none;stroke-opacity:1"
       id="path4490" />
    <path
       d="M 350.12345,668.64789 L 157.64285,668.64789"
       style="fill:none;fill-rule:evenodd;stroke:#000000;stroke-width:4;stroke-linecap:butt;stroke-linejoin:miter;stroke-miterlimit:4;stroke-dasharray:none;stroke-opacity:1"
       id="path4492" />
    <path
       d="M 77.496874 224.92116 A 11.894869 11.894869 0 1 1  53.707136,224.92116 A 11.894869 11.894869 0 1 1  77.496874 224.92116 z"
       transform="matrix(0.8881879,0,0,0.8881879,163.37594,468.87564)"
       style="opacity:1;fill:#ffffff;fill-opacity:1;stroke:#ff0000;stroke-width:2.25177574;stroke-linecap:butt;stroke-linejoin:round;stroke-miterlimit:4;stroke-dasharray:none;stroke-dashoffset:2.7;stroke-opacity:1"
       id="path4494" />
    <path
       d="M 77.496874 224.92116 A 11.894869 11.894869 0 1 1  53.707136,224.92116 A 11.894869 11.894869 0 1 1  77.496874 224.92116 z"
       transform="matrix(0.8881879,0,0,0.8881879,196.37594,435.87564)"
       style="opacity:1;fill:#ffffff;fill-opacity:1;stroke:#ff0000;stroke-width:2.25177574;stroke-linecap:butt;stroke-linejoin:round;stroke-miterlimit:4;stroke-dasharray:none;stroke-dashoffset:2.7;stroke-opacity:1"
       id="path4496" />
    <path
       d="M 77.496874 224.92116 A 11.894869 11.894869 0 1 1  53.707136,224.92116 A 11.894869 11.894869 0 1 1  77.496874 224.92116 z"
       transform="matrix(0.8881879,0,0,0.8881879,229.37594,402.87564)"
       style="opacity:1;fill:#ffffff;fill-opacity:1;stroke:#ff0000;stroke-width:2.25177574;stroke-linecap:butt;stroke-linejoin:round;stroke-miterlimit:4;stroke-dasharray:none;stroke-dashoffset:2.7;stroke-opacity:1"
       id="path4498" />
    <path
       d="M 487.96767,445.02035 C 535.96603,445.02035 574.9224,483.9452 574.9224,531.94357 C 574.9224,579.94194 535.96603,618.8983 487.96767,618.8983 C 439.9693,618.8983 401.04444,579.94194 401.04444,531.94357 C 401.04444,483.9452 439.9693,445.02035 487.96767,445.02035 z "
       style="opacity:1;fill:#ffffff;fill-opacity:0.50196078;stroke:none;stroke-width:2;stroke-linecap:butt;stroke-linejoin:round;stroke-miterlimit:4;stroke-dasharray:none;stroke-dashoffset:2.7;stroke-opacity:1"
       id="path4500" />
    <path
       d="M 434.63159,461.67042 L 281.80055,593.95577"
       style="fill:none;fill-rule:evenodd;stroke:#0000ff;stroke-width:2;stroke-linecap:butt;stroke-linejoin:miter;stroke-miterlimit:4;stroke-dasharray:8, 8;stroke-dashoffset:0;stroke-opacity:1"
       id="path4502" />
    <path
       d="M 487.61782,619.90822 L 288.28866,613.05965"
       style="fill:none;fill-rule:evenodd;stroke:#0000ff;stroke-width:2;stroke-linecap:butt;stroke-linejoin:miter;stroke-miterlimit:4;stroke-dasharray:8, 8;stroke-dashoffset:0;stroke-opacity:1"
       id="path4504" />
    <path
       d="M 436.99204,532.64789 L 399.14473,532.64789"
       style="fill:none;fill-rule:evenodd;stroke:#000000;stroke-width:4;stroke-linecap:butt;stroke-linejoin:miter;stroke-miterlimit:4;stroke-dasharray:none;stroke-opacity:1"
       id="path4506" />
    <path
       d="M 576.12596,532.64789 L 540.0809,532.64789"
       style="fill:none;fill-rule:evenodd;stroke:#000000;stroke-width:4;stroke-linecap:butt;stroke-linejoin:miter;stroke-miterlimit:4;stroke-dasharray:none;stroke-opacity:1"
       id="path4508" />
    <path
       d="M 488.64285,480.02211 L 488.64285,443.97705"
       style="fill:none;fill-rule:evenodd;stroke:#000000;stroke-width:4;stroke-linecap:butt;stroke-linejoin:miter;stroke-miterlimit:4;stroke-dasharray:none;stroke-opacity:1"
       id="path4510" />
    <path
       d="M 488.64285,620.23738 L 488.64285,584.55277"
       style="fill:none;fill-rule:evenodd;stroke:#000000;stroke-width:4;stroke-linecap:butt;stroke-linejoin:miter;stroke-miterlimit:4;stroke-dasharray:none;stroke-opacity:1"
       id="path4512" />
    <path
       d="M 487.96767,443.004 C 438.87833,443.004 399.0281,482.85423 399.0281,531.94357 C 399.0281,581.03291 438.87833,620.91465 487.96767,620.91465 C 537.057,620.91465 576.93874,581.03291 576.93874,531.94357 C 576.93874,482.85423 537.057,443.004 487.96767,443.004 z M 487.96767,445.02035 C 535.96603,445.02035 574.9224,483.9452 574.9224,531.94357 C 574.9224,579.94194 535.96603,618.8983 487.96767,618.8983 C 439.9693,618.8983 401.04444,579.94194 401.04444,531.94357 C 401.04444,483.9452 439.9693,445.02035 487.96767,445.02035 z "
       style="opacity:1;fill:#0000ff;fill-opacity:1;stroke:none;stroke-width:2;stroke-linecap:butt;stroke-linejoin:round;stroke-miterlimit:4;stroke-dasharray:none;stroke-dashoffset:2.7;stroke-opacity:1"
       id="path4523" />
    <rect
       width="75.08979"
       height="75.08979"
       x="-68.643463"
       y="684.67871"
       transform="matrix(0.7071068,-0.7071068,0.7071068,0.7071068,0,0)"
       style="opacity:1;fill:none;fill-opacity:0.50196078;stroke:#ff0000;stroke-width:2.08322024;stroke-linecap:butt;stroke-linejoin:round;stroke-miterlimit:4;stroke-dasharray:8.33288147, 8.33288147;stroke-dashoffset:0;stroke-opacity:1"
       id="rect4529" />
    <path
       d="M 436.07339,532.64789 L 541.6854,532.64789"
       style="fill:none;fill-rule:evenodd;stroke:#ff0000;stroke-width:2;stroke-linecap:butt;stroke-linejoin:miter;stroke-miterlimit:4;stroke-dasharray:8, 8;stroke-dashoffset:0;stroke-opacity:1"
       id="path4531" />
    <path
       d="M 489.64285,479.51272 L 489.64285,585.12473"
       style="fill:none;fill-rule:evenodd;stroke:#ff0000;stroke-width:2;stroke-linecap:butt;stroke-linejoin:miter;stroke-miterlimit:4;stroke-dasharray:8, 8;stroke-dashoffset:0;stroke-opacity:1"
       id="path4533" />
    <path
       d="M 310.34793 112.10013 A 7.2090111 7.2090111 0 1 1  295.9299,112.10013 A 7.2090111 7.2090111 0 1 1  310.34793 112.10013 z"
       transform="matrix(1.0878183,0,0,1.0878183,130.10307,433.80345)"
       style="opacity:1;fill:#ffffff;fill-opacity:1;stroke:#ff0000;stroke-width:1.83854234;stroke-linecap:butt;stroke-linejoin:round;stroke-miterlimit:4;stroke-dasharray:none;stroke-dashoffset:0;stroke-opacity:1"
       id="path4535" />
    <path
       d="M 310.34793 112.10013 A 7.2090111 7.2090111 0 1 1  295.9299,112.10013 A 7.2090111 7.2090111 0 1 1  310.34793 112.10013 z"
       transform="matrix(1.0878183,0,0,1.0878183,158.21821,427.67579)"
       style="opacity:1;fill:#ffffff;fill-opacity:1;stroke:#ff0000;stroke-width:1.83854234;stroke-linecap:butt;stroke-linejoin:round;stroke-miterlimit:4;stroke-dasharray:none;stroke-dashoffset:0;stroke-opacity:1"
       id="path4539" />
    <path
       d="M 310.34793 112.10013 A 7.2090111 7.2090111 0 1 1  295.9299,112.10013 A 7.2090111 7.2090111 0 1 1  310.34793 112.10013 z"
       transform="matrix(1.0878183,0,0,1.0878183,187.77516,432.7221)"
       style="opacity:1;fill:#ffffff;fill-opacity:1;stroke:#ff0000;stroke-width:1.83854234;stroke-linecap:butt;stroke-linejoin:round;stroke-miterlimit:4;stroke-dasharray:none;stroke-dashoffset:0;stroke-opacity:1"
       id="path4541" />
    <path
       d="M 310.34793 112.10013 A 7.2090111 7.2090111 0 1 1  295.9299,112.10013 A 7.2090111 7.2090111 0 1 1  310.34793 112.10013 z"
       transform="matrix(1.0878183,0,0,1.0878183,184.5311,381.53812)"
       style="opacity:1;fill:#ffffff;fill-opacity:1;stroke:#ff0000;stroke-width:1.83854234;stroke-linecap:butt;stroke-linejoin:round;stroke-miterlimit:4;stroke-dasharray:none;stroke-dashoffset:0;stroke-opacity:1"
       id="path4543" />
    <path
       d="M 310.34793 112.10013 A 7.2090111 7.2090111 0 1 1  295.9299,112.10013 A 7.2090111 7.2090111 0 1 1  310.34793 112.10013 z"
       transform="matrix(1.0878183,0,0,1.0878183,134.78892,380.81722)"
       style="opacity:1;fill:#ffffff;fill-opacity:1;stroke:#ff0000;stroke-width:1.83854234;stroke-linecap:butt;stroke-linejoin:round;stroke-miterlimit:4;stroke-dasharray:none;stroke-dashoffset:0;stroke-opacity:1"
       id="path4545" />
    <path
       d="M 310.34793 112.10013 A 7.2090111 7.2090111 0 1 1  295.9299,112.10013 A 7.2090111 7.2090111 0 1 1  310.34793 112.10013 z"
       transform="matrix(1.0878183,0,0,1.0878183,141.27703,410.37417)"
       style="opacity:1;fill:#ffffff;fill-opacity:1;stroke:#ff0000;stroke-width:1.83854234;stroke-linecap:butt;stroke-linejoin:round;stroke-miterlimit:4;stroke-dasharray:none;stroke-dashoffset:0;stroke-opacity:1"
       id="path4547" />
    <g
       transform="translate(0,1)"
       id="g4775">
      <path
         d="M 482.96875,604.8125 L 415.21875,665.75 L 416.5625,667.21875 L 484.3125,606.3125 L 482.96875,604.8125 z "
         style="fill:#000000;fill-opacity:1;fill-rule:evenodd;stroke:none;stroke-width:2;stroke-linecap:butt;stroke-linejoin:miter;stroke-miterlimit:4;stroke-dasharray:none;stroke-opacity:1"
         id="path4549" />
      <path
         d="M 472.63618,608.96607 L 485.60985,603.78649 L 479.08248,616.1371 C 478.73726,612.61992 476.12472,609.73172 472.63618,608.96607 z "
         style="font-size:12px;fill-rule:evenodd;stroke-width:0.625;stroke-linejoin:round"
         id="path4781" />
    </g>
    <text
       x="413.18457"
       y="686.47162"
       style="font-size:15.88490105px;font-style:normal;font-weight:normal;text-align:center;text-anchor:middle;fill:#000000;fill-opacity:1;stroke:none;stroke-width:1px;stroke-linecap:butt;stroke-linejoin:miter;stroke-opacity:1;font-family:Arial"
       id="text4749"
       xml:space="preserve"><tspan
         x="413.18457"
         y="686.47162"
         id="tspan4751">Wire</tspan></text>
    <text
       x="413.18457"
       y="704.85461"
       style="font-size:15.88490105px;font-style:normal;font-weight:normal;text-align:center;text-anchor:middle;fill:#000000;fill-opacity:1;stroke:none;stroke-width:1px;stroke-linecap:butt;stroke-linejoin:miter;stroke-opacity:1;font-family:Arial"
       id="text4753"
       xml:space="preserve"><tspan
         x="413.18457"
         y="704.85461"
         id="tspan4755">Segment</tspan></text>
    <text
       x="547.63263"
       y="664.8446"
       style="font-size:15.88490105px;font-style:normal;font-weight:normal;text-align:center;text-anchor:middle;fill:#000000;fill-opacity:1;stroke:none;stroke-width:1px;stroke-linecap:butt;stroke-linejoin:miter;stroke-opacity:1;font-family:Arial"
       id="text4757"
       xml:space="preserve"><tspan
         x="547.63263"
         y="664.8446"
         id="tspan4759">Programmable</tspan></text>
    <text
       x="547.63263"
       y="683.2276"
       style="font-size:15.88490105px;font-style:normal;font-weight:normal;text-align:center;text-anchor:middle;fill:#000000;fill-opacity:1;stroke:none;stroke-width:1px;stroke-linecap:butt;stroke-linejoin:miter;stroke-opacity:1;font-family:Arial"
       id="text4761"
       xml:space="preserve"><tspan
         x="547.63263"
         y="683.2276"
         id="tspan4763">Switch</tspan></text>
    <g
       transform="translate(0,1)"
       id="g4767">
      <path
         d="M 524.96875,566.34375 L 523.0625,566.9375 L 549.75,651.65625 L 551.65625,651.0625 L 524.96875,566.34375 z "
         style="fill:#000000;fill-opacity:1;fill-rule:evenodd;stroke:none;stroke-width:2;stroke-linecap:butt;stroke-linejoin:miter;stroke-miterlimit:4;stroke-dasharray:none;stroke-opacity:1"
         id="path4765" />
      <path
         d="M 522.54874,578.07598 L 523.20944,564.1222 L 531.74606,575.1798 C 528.40189,574.03687 524.69086,575.2181 522.54874,578.07598 z "
         style="font-size:12px;fill-rule:evenodd;stroke-width:0.625;stroke-linejoin:round"
         id="path4773" />
    </g>
  </g>
</svg>
